<svg xmlns="http://www.w3.org/2000/svg">
<defs>
<font id="TTWallsRoughBoldDEMO" horiz-adv-x="535" >
  <font-face 
    font-family="TT Walls Rough Bold DEMO"
    font-weight="400"
    font-stretch="normal"
    units-per-em="1000"
    panose-1="2 0 5 3 3 0 0 2 0 3"
    ascent="800"
    descent="-200"
    x-height="711"
    cap-height="718"
    bbox="-180 -249.006 1130 905"
    underline-thickness="50"
    underline-position="-50"
    stemh="45"
    stemv="126"
    unicode-range="U+0020-U+2122"
  />
<missing-glyph horiz-adv-x="578" 
d="M204 681c7 13 21 14 27 14c43 0 253 15 290 16h2c17 0 35 -17 35 -34s-153 -557 -183 -653c-5 -16 -19 -22 -31 -23c-81 0 -280 -11 -288 -13c-33 0 -75 6 -64 43c7 34 209 640 212 650zM247 663l-195 -605c-4 -13 -7 -27 -11 -43c12 1 24 1 37 1c66 0 165 10 222 13
c8 2 11 8 13 17c11 42 161 545 181 607l6 24c-82 0 -258 -15 -253 -14zM384 380c-17 -65 -83 -57 -116 -136c-1 -2 -2 -3 -3 -3c-19 0 -59 14 -59 25c5 25 50 80 85 102c21 10 26 29 26 44c0 26 -15 50 -22 53c-10 -10 -19 -33 -26 -33c-8 0 -55 8 -55 16c0 1 1 4 1 6
c12 26 15 61 63 61c74 0 108 -55 108 -122c0 -5 -1 -11 -2 -13zM260 218c0 -1 1 -2 1 -3c-3 -14 -13 -57 -21 -57c-9 2 -51 10 -53 18c0 20 14 58 18 58c3 0 48 -8 55 -16zM414 203l-7 4l-2 -9c2 -1 5 -2 5 -2c2 0 3 2 4 7zM432 265c-2 -1 -4 -1 -6 -1c-5 0 -8 2 -8 5
c0 1 1 2 1 3l-9 3s-1 -4 -5 -4c-1 0 -2 0 -4 1c4 0 4 0 4 1c0 0 -1 0 -4 2c2 1 4 1 8 1l-4 12l-13 -7c2 -3 4 -5 4 -5c-1 -2 -1 -3 -1 -4c0 -6 4 -8 10 -8c3 0 7 0 12 1c2 -2 7 -3 11 -3c2 0 4 1 4 3zM411 235h4c3 0 5 0 7 3l-7 4v5c0 2 0 4 -4 6c-2 -4 -3 -8 -3 -11
c0 -6 3 -7 3 -7zM125 393v-2l-8 -5c3 -1 3 -1 5 -1c-2 -2 -3 -4 -3 -7l5 -2l-2 -5c2 -1 3 -2 5 -2c3 0 5 3 9 3c2 0 3 0 5 -1l-14 7c0 6 4 8 14 10l-7 3s1 3 1 5c0 3 -1 6 -5 7zM429 258c-1 -3 -4 -4 -7 -4s-4 1 -4 1l4 -10zM400 211l12 5l-8 3zM464 358l-8 3l-2 -4
c0 -1 0 -1 1 -1s4 1 9 2zM413 335c-3 -6 -5 -9 -5 -11c0 -1 1 -1 2 -1s4 1 8 3zM442 339l8 -4c-3 6 -5 7 -5 7c-2 0 -13 -11 -14 -15c4 2 9 3 11 12zM432 314c0 0 2 1 4 1c1 0 2 0 4 -1l-22 10c-3 -5 -4 -7 -4 -9s2 -3 6 -4c-15 -25 -20 -9 -20 -19c0 -1 2 -2 6 -3l1 4h2

<glyph glyph-name=".notdef" horiz-adv-x="578" 
d="M204 681c7 13 21 14 27 14c43 0 253 15 290 16h2c17 0 35 -17 35 -34s-153 -557 -183 -653c-5 -16 -19 -22 -31 -23c-81 0 -280 -11 -288 -13c-33 0 -75 6 -64 43c7 34 209 640 212 650zM247 663l-195 -605c-4 -13 -7 -27 -11 -43c12 1 24 1 37 1c66 0 165 10 222 13
c8 2 11 8 13 17c11 42 161 545 181 607l6 24c-82 0 -258 -15 -253 -14zM384 380c-17 -65 -83 -57 -116 -136c-1 -2 -2 -3 -3 -3c-19 0 -59 14 -59 25c5 25 50 80 85 102c21 10 26 29 26 44c0 26 -15 50 -22 53c-10 -10 -19 -33 -26 -33c-8 0 -55 8 -55 16c0 1 1 4 1 6
c12 26 15 61 63 61c74 0 108 -55 108 -122c0 -5 -1 -11 -2 -13zM260 218c0 -1 1 -2 1 -3c-3 -14 -13 -57 -21 -57c-9 2 -51 10 -53 18c0 20 14 58 18 58c3 0 48 -8 55 -16zM414 203l-7 4l-2 -9c2 -1 5 -2 5 -2c2 0 3 2 4 7zM432 265c-2 -1 -4 -1 -6 -1c-5 0 -8 2 -8 5
c0 1 1 2 1 3l-9 3s-1 -4 -5 -4c-1 0 -2 0 -4 1c4 0 4 0 4 1c0 0 -1 0 -4 2c2 1 4 1 8 1l-4 12l-13 -7c2 -3 4 -5 4 -5c-1 -2 -1 -3 -1 -4c0 -6 4 -8 10 -8c3 0 7 0 12 1c2 -2 7 -3 11 -3c2 0 4 1 4 3zM411 235h4c3 0 5 0 7 3l-7 4v5c0 2 0 4 -4 6c-2 -4 -3 -8 -3 -11
c0 -6 3 -7 3 -7zM125 393v-2l-8 -5c3 -1 3 -1 5 -1c-2 -2 -3 -4 -3 -7l5 -2l-2 -5c2 -1 3 -2 5 -2c3 0 5 3 9 3c2 0 3 0 5 -1l-14 7c0 6 4 8 14 10l-7 3s1 3 1 5c0 3 -1 6 -5 7zM429 258c-1 -3 -4 -4 -7 -4s-4 1 -4 1l4 -10zM400 211l12 5l-8 3zM464 358l-8 3l-2 -4
c0 -1 0 -1 1 -1s4 1 9 2zM413 335c-3 -6 -5 -9 -5 -11c0 -1 1 -1 2 -1s4 1 8 3zM442 339l8 -4c-3 6 -5 7 -5 7c-2 0 -13 -11 -14 -15c4 2 9 3 11 12zM432 314c0 0 2 1 4 1c1 0 2 0 4 -1l-22 10c-3 -5 -4 -7 -4 -9s2 -3 6 -4c-15 -25 -20 -9 -20 -19c0 -1 2 -2 6 -3l1 4h2
c4 0 9 5 9 7l1 -2l-3 -7h2c0 -2 -2 -2 -4 -2l8 -4c0 -1 0 6 6 6l2 6c1 -1 2 -1 3 -1c6 0 12 4 12 4c-14 6 -4 8 -13 14zM385 234c-2 -3 -3 -4 -3 -5c0 -2 3 -3 8 -5c0 0 1 7 12 13c-1 0 -2 1 -2 1c-6 0 -8 -4 -13 -4h-2zM132 353l-2 -8l-3 -8l5 -3c1 4 3 6 3 8
c0 3 -2 6 -3 11zM418 368c1 -11 1 -15 6 -25c1 4 1 5 1 7c2 -1 3 -1 4 -1s2 1 4 6l-8 1c-1 3 -3 5 -3 10l2 -2l1 2s1 -1 1 -2s0 -1 -1 -2c3 2 7 4 10 8c0 -1 2 -1 2 -1c4 0 4 3 7 3h3v1c2 -1 2 -4 6 -4l3 8l-7 3l2 6c-3 -1 -4 -1 -6 -1v1c11 9 20 6 26 22c-8 2 -9 4 -9 4
s-1 -2 -1 -3s0 -2 1 -4l-6 4c4 9 5 13 8 13c1 0 3 -1 5 -2c3 1 4 2 4 2c0 4 -5 5 -15 9v2c0 2 -1 2 -3 2s-6 -1 -6 -1c-4 -13 -5 -12 -4 -12h-7c-10 -4 0 -38 -13 -36c17 3 10 -4 15 11c2 0 3 -2 5 -2c-4 -2 -5 -3 -5 -5s0 -3 2 -7l-4 -8h-1v2l-12 -7c-3 2 -5 2 -6 2
c0 0 -3 -2 -3 -4h2zM108 339c2 5 6 6 6 6s-1 0 -3 1l-12 -4zM461 493l-2 -9h3v-1l-2 -2l2 -2c2 -1 2 -1 3 -4l-2 -3c0 -1 0 -1 -1 -2l5 -2l-5 -2l5 -10c2 6 4 7 9 12c2 -2 5 -3 9 -3c-2 4 -4 6 -4 9c0 4 4 -3 12 14c-11 -6 -12 -10 -12 -10v1c0 1 2 -2 -2 -1c2 0 2 3 6 8h-2
c2 0 2 2 2 4l-5 3l9 6l-4 1c0 2 3 2 3 4l-13 5c0 -3 1 -5 3 -6l-9 3l2 5h1v1c0 3 5 4 5 8c0 1 -2 2 -3 2c-2 0 -5 -1 -5 -1c-3 0 -4 1 -6 1s-3 -1 -4 -6l5 -2c-2 -1 -2 -3 -4 -5l5 -9l7 -3l-3 -7c-4 0 -4 3 -8 3zM149 443l-11 -6l-1 -7c11 -4 -2 1 15 -5v1c0 4 -4 8 -4 13
c0 1 0 2 1 4zM127 318c-5 2 -8 3 -9 3c-2 0 -3 -2 -5 -6l-3 -8l10 -4zM92 296c4 0 11 0 11 6l-7 3c-2 -7 -4 -9 -4 -9zM89 283l-4 -8c2 5 3 7 5 7s4 -2 9 -4l4 9zM106 308v5c0 6 -1 8 -3 8c-1 0 -3 -2 -5 -5l1 -4l4 -10c5 1 6 2 6 3c0 2 -3 3 -3 3zM386 164c-4 1 -4 4 -4 6
v3l-4 -14c1 4 2 6 4 6c1 0 3 0 4 -1zM397 209c-6 -2 -8 -3 -11 -3c-1 0 -4 0 -7 1l6 -10s2 6 7 6c0 0 2 0 3 -1zM375 210l-3 -8l6 -3c1 4 1 5 1 7s0 3 -4 4zM386 182c2 -1 4 -2 5 -2s2 2 4 6h-2c-4 0 -7 -4 -7 -4zM395 186c-1 -1 -1 -2 -1 -3c0 -4 11 -1 16 -3
c-4 5 -8 6 -12 6h-3zM263 496l9 -6c-7 -10 -7 -10 -23 -12c2 -2 5 -3 7 -3c7 0 14 5 24 5c0 16 0 16 -17 16zM349 401c14 2 14 2 21 9c-10 7 -14 0 -23 7zM343 446l-9 -9c3 -2 6 -2 8 -2h8c2 0 4 0 6 -3c-1 3 -6 8 -6 8zM240 200h11l-7 6zM296 307c4 -3 6 -5 8 -5
c1 0 3 2 6 5l-9 8zM326 365c1 -5 2 -9 2 -12c0 -5 -2 -7 -9 -13l10 -7c0 31 2 13 2 23c0 5 -5 9 -5 9zM349 392l-16 -19c7 7 16 0 26 10h-4c-4 0 -9 0 -9 3c0 2 1 4 3 6zM283 321c2 -2 4 -3 5 -3c4 0 6 3 6 3l-6 7zM294 332l5 -6s-1 2 9 2c2 0 5 0 8 1l-16 13z" />
    <glyph glyph-name="space" unicode=" " horiz-adv-x="200" 
 />
    <glyph glyph-name="exclam" unicode="!" horiz-adv-x="299" 
d="M156 170c-60 2 -116 21 -117 46c0 4 1 14 6 27c20 59 122 397 131 427c6 20 16 26 30 26c22 0 103 -21 103 -51c0 -4 -1 -8 -4 -22c-12 -47 -120 -410 -126 -427c-4 -12 -8 -27 -23 -26zM35 153c23 0 114 -13 114 -45c0 -16 -27 -113 -42 -113c-25 0 -117 15 -117 38
c0 12 19 73 25 99c4 15 8 21 20 21zM181 439c-7 -19 -8 -19 -30 -24l2 -10c-9 -3 -18 -5 -26 -9l2 -22l15 1c1 9 6 20 9 28l13 6v-14l12 -4l10 14c6 8 -1 16 4 26zM186 543l-1 -11l19 -11c0 9 7 23 12 29c-2 1 -5 2 -7 3h-5c-8 -1 -13 -6 -18 -10zM137 342l-3 -8l15 -12
l11 12c-10 16 -10 21 -31 20zM187 475h-17l4 -14l-4 -11l7 -2l8 5c1 7 2 15 2 22zM174 384c-1 -7 -1 -18 -1 -27c4 5 14 9 22 10l-10 14zM48 97l-2 -19l23 -10v12h-15zM225 598c-1 -7 -4 -12 -6 -19l12 1l9 -5l-1 8zM153 492l3 -6l6 10l-2 11l-7 -5v-10zM129 323h-11
c2 -6 4 -13 6 -19c0 6 5 10 5 19zM153 446l-2 -13l9 -4v19zM196 475l3 -14l8 1l-3 10zM200 433l-5 -7l9 -3l3 10h-7zM181 571l8 5l-12 7zM56 37l13 4l-13 6v-10zM75 87l5 -7l5 17zM182 502l7 -6l-1 8z" />
    <glyph glyph-name="quotedbl" unicode="&#x22;" horiz-adv-x="336" 
d="M177 466c-7 -3 -21 -6 -42 -6c-44 0 -55 3 -55 20c0 2 1 5 2 9c14 50 49 146 66 196c5 17 8 23 32 23c27 0 73 -10 73 -26c0 -1 -1 -4 -3 -8c-25 -66 -66 -206 -73 -208zM340 466c-6 -2 -20 -6 -42 -6c-44 0 -54 3 -54 22c0 22 54 160 68 203c5 17 7 23 32 23
c14 0 83 -5 70 -35c-21 -69 -64 -204 -74 -207zM374 648c-6 -16 -7 -16 -25 -20l1 -8c-7 -3 -15 -5 -21 -8l2 -18l12 1c1 7 5 16 7 23l11 5l1 -12l10 -3l8 12c-1 8 -1 13 3 22zM162 608l-1 -9l16 -9c0 8 6 19 10 25c-2 0 -4 1 -6 2h-4c-6 -1 -10 -5 -15 -9zM326 634l-2 -7
l13 -10l9 10c-8 13 -8 17 -26 17zM163 552h-15l4 -13l-4 -9l6 -1l7 4c1 6 2 12 2 19zM282 554c-2 -6 -2 -16 -2 -23c4 4 13 7 19 8l-8 12zM307 585l-2 -15l19 -8v10h-12zM195 654c-1 -5 -3 -10 -5 -15l10 1l7 -5l-1 7zM134 566l3 -6l5 9l-2 9l-6 -4v-8zM320 618h-9
c1 -5 3 -11 5 -16c0 5 4 8 4 16zM134 527l-1 -11l7 -3v16zM171 552l2 -13l7 2l-3 8zM136 545l-4 -6l7 -2l2 8h-5zM158 632l6 4l-10 6zM314 535l10 4l-10 5v-9zM330 577l4 -5l5 13zM158 574l6 -5v6z" />
    <glyph glyph-name="numbersign" unicode="#" horiz-adv-x="698" 
d="M429 -10c-36 0 -126 11 -126 42c0 10 15 55 59 191h-102l-77 -210c-5 -14 -9 -22 -29 -21c-6 0 -15 0 -27 2c-73 12 -93 18 -93 46c0 2 1 4 1 6c9 47 43 122 65 180c-56 10 -115 26 -140 29c11 10 24 12 51 13h104l40 106c-58 10 -122 28 -146 31c21 18 86 13 162 13
l98 265c6 17 9 20 21 20c27 0 114 -23 118 -58l-5 -20l-72 -201c32 -1 64 -2 96 -2l89 263c2 5 8 7 16 7c36 0 120 -33 120 -46c0 -5 -3 -11 -4 -16c-13 -44 -35 -106 -66 -204c82 -5 155 -37 156 -43c0 -9 -18 -5 -24 -5c-15 0 -76 0 -147 -1l-33 -100
c95 -7 154 -39 154 -44c0 -3 -4 -5 -13 -5h-155l-69 -215c-3 -10 -7 -21 -22 -23zM313 373l-36 -100c17 -1 34 -1 51 -1c16 0 33 0 50 1c11 33 23 66 33 100h-65h-33zM433 257l7 3l11 -4v-15l6 -2l-14 -14h-8l-6 -8l3 1l-3 -9l8 -11l12 18l10 4l3 13c-6 12 -4 26 -5 39l-5 8
l19 8l-8 -2l-15 5l2 17l26 20l2 -12l-20 -14l24 8c5 14 13 15 29 15l-2 6l-17 -3l-1 5l4 9l10 -3c1 9 2 17 -6 22l-7 1v6l-8 6l-16 -25h-14l-3 -9l-18 3l-8 -9l24 -4l-17 -14l5 -8c0 -8 -9 -13 -11 -20l4 -5l7 5l11 -3v-8l-7 -9c-9 2 -25 8 -26 18c-5 -3 -19 -17 -18 -23
l15 4c4 -5 14 -8 21 -10zM497 369l17 -2l10 18l10 -3l3 12l-12 5l-6 -6c-4 0 -9 2 -14 3c0 -6 -7 -15 -8 -27zM481 389l-14 -4l-2 -17l5 -7c8 5 14 14 21 21zM478 330l-3 6v10c6 1 12 8 15 14l7 -11c-2 -5 -7 -10 -13 -10zM506 462l4 -9l10 11c0 7 -3 17 -6 23
c-3 -7 -6 -17 -8 -25zM413 196l-8 -19l8 -1l16 10zM517 407l8 -9l8 10c-6 7 -15 20 -22 25l11 -18zM403 231l1 -6l6 -4l9 14l-2 7zM540 448l7 -3v8l-13 13l-6 -7c5 -3 11 -8 12 -11zM530 435l-4 -9l20 -24c-2 7 -7 13 -7 20c-2 1 0 2 -2 4c-2 3 -6 6 -7 9zM443 244l-10 13
c-3 -4 -5 -8 -7 -12l9 -3zM444 180l-9 -3l-7 -8l7 -4h5zM490 305l8 -4l5 3l3 7l-6 5c-3 -3 -7 -7 -10 -11zM510 503l-9 -7l17 -5l-1 7zM545 547h-8l-5 -2c5 -4 7 -7 15 -7zM453 153l-10 2l-7 -10l2 -9l5 11zM455 209h18l-3 8c-5 -3 -10 -5 -15 -8zM455 179l-4 -9l6 -5l3 8z
M566 538h-7l-6 -5l8 -4zM492 456l-2 -6l5 -5l5 8zM413 157l-3 -8l4 -3l2 7zM457 365l-6 -9l10 1zM505 406l-6 -5l8 -3zM503 431v-3l5 -2l1 4zM475 276l-10 -3l16 -2zM251 368c-7 -17 -8 -18 -29 -20l2 -10c-8 -2 -17 -4 -24 -7v-20l15 2c1 6 6 16 8 23l12 6v-13l11 -4l9 13
c0 8 1 13 5 22zM261 461l-2 -9l17 -10c1 8 9 19 13 25c-3 1 -5 2 -6 3c0 0 -4 1 -5 1c-7 -1 -12 -6 -17 -10zM205 283l-3 -8l14 -12l10 11c-7 14 -7 19 -27 19zM259 401l-16 1l3 -14l-5 -10l7 -2l7 5c1 6 3 13 4 20zM242 318c-2 -6 -2 -16 -3 -24c4 4 14 7 21 8l-9 14z
M181 231l-2 -17l21 -10v11l-13 1zM300 510c-2 -6 -4 -11 -7 -16h11l8 -5l-1 7zM228 417l2 -5l7 9l-2 10l-6 -4zM198 265l-9 1c0 -5 2 -13 2 -18c1 6 6 10 7 17zM225 375l-1 -10l8 -5l1 17zM266 400l3 -13l7 1l-2 9zM268 362l-5 -6l8 -4l3 9zM258 488l8 4l-11 8zM186 177
l11 3l-11 6v-9zM205 221l5 -7l6 15zM255 425l6 -5l1 6z" />
    <glyph glyph-name="dollar" unicode="$" horiz-adv-x="458" 
d="M59 -49l15 51c-70 11 -124 67 -124 125c0 41 8 55 35 55c12 0 113 -12 113 -35c0 -15 -15 -42 -15 -57s10 -27 26 -28c71 10 100 104 100 150c0 95 -80 182 -80 267c0 101 104 199 206 222c16 46 14 73 40 73c-4 0 69 -19 69 -40c0 -12 -4 -25 -10 -45
c49 -17 84 -47 84 -96s-14 -85 -38 -85c-6 0 -18 2 -18 12c0 76 -33 90 -90 90c-43 0 -97 -55 -97 -128c0 -16 4 -34 10 -52c29 -84 65 -163 65 -227c0 -80 -63 -172 -177 -196c-4 -14 -7 -24 -8 -31c0 2 -16 -79 -30 -79c-7 0 -16 2 -23 4l-31 10c-14 5 -25 10 -25 23
c0 5 0 9 3 17zM240 379c1 -15 3 -18 0 -23c0 -4 -5 -6 -15 -18l9 -5c-7 -8 -15 -16 -20 -26l16 -17l12 12c2 8 -3 22 -7 29l6 12l10 -10l12 5v16c-3 7 -9 16 -9 24zM185 465l5 -10l24 4c-8 10 -5 20 -5 31l-8 -1c-6 -5 -15 -15 -16 -24zM254 270l3 -9l19 2l3 16
c-4 4 -9 5 -13 6c-5 3 -21 -7 -23 -10zM225 412l-16 -12l12 -8l2 -12l7 2l5 9c-2 6 -6 14 -10 21zM263 329c2 -7 11 -16 17 -23c-1 7 7 19 11 23c-6 1 -15 3 -20 3zM190 536l5 -21l10 9l11 3l-5 6zM266 209l7 -16l26 7l-7 9l-12 -8zM259 252l-10 -9c4 -5 9 -9 15 -11z
M234 418l10 -11l7 7l-9 7zM295 218l8 -2l-5 17l-8 -6zM259 384l2 -7l9 4l-5 8zM167 485l5 9l-16 -2zM308 168l7 9l-15 -2zM206 430h11l-6 6zM447 627l11 2c4 -13 4 -13 -7 -27c3 0 6 1 7 3c6 6 7 15 15 24c-13 12 -13 12 -26 -2zM447 643c9 13 9 13 9 23
c-13 -2 -11 -11 -24 -13zM466 584v-14c4 0 6 2 8 4s3 4 6 6c1 3 4 4 7 4h-11h-10zM414 641l9 9h-11zM467 552c6 0 9 0 10 2s1 4 1 10l-13 -3zM482 610c5 -3 8 -6 11 -8c5 -4 4 -8 5 -18l12 3c-25 24 -9 11 -16 19c-5 5 -12 4 -12 4zM478 649l3 -28c0 11 13 13 12 28
c0 0 -1 -1 -3 -2c-3 -4 -6 -8 -9 -5c-1 1 -3 4 -3 7zM484 540c3 0 6 1 7 2c3 3 2 8 2 8l-11 -1zM484 557c0 0 6 0 15 9c1 2 4 4 5 7l-23 -3zM86 -31c-2 -8 -2 -20 -2 -30c4 5 16 10 24 11l-11 15zM118 10l-2 -20l25 -11v13h-16zM128 -55l13 5l-13 7v-12zM148 -1l5 -7l6 18z
" />
    <glyph glyph-name="percent" unicode="%" horiz-adv-x="757" 
d="M656 662c7 -12 11 -21 11 -27c0 -17 -20 -35 -41 -62c-135 -168 -350 -429 -455 -567c-19 -25 -69 47 -70 59c0 2 -1 3 -1 5c0 12 8 23 23 41c79 93 461 567 474 582c6 7 14 13 19 13c6 0 14 0 40 -44zM367 596c0 -96 -94 -178 -169 -178c-87 0 -128 51 -128 109
c0 80 72 177 171 177c60 0 126 -35 126 -108zM687 169c0 -95 -95 -175 -169 -175c-89 0 -129 48 -129 107c0 80 73 177 171 177c60 0 127 -36 127 -109zM187 471c61 0 99 75 102 132c0 24 -11 44 -34 44c-49 0 -103 -82 -103 -134c0 -25 13 -42 35 -42zM512 45
c51 0 96 77 96 132c0 25 -9 46 -32 46c-47 0 -104 -81 -104 -136c0 -29 14 -42 40 -42zM365 322c-14 -11 -16 -11 -35 -5l-2 -8c-9 1 -17 3 -25 4l-8 -17l12 -6c5 6 13 12 19 17l13 -1l-6 -11l8 -9l14 7c4 8 6 12 15 18zM416 402l-6 -9l11 -16c3 7 15 14 22 17
c-1 2 -4 3 -5 5c0 0 -2 1 -3 3c-8 2 -13 1 -19 0zM286 267l-6 -6l6 -15l15 4c-1 16 2 21 -15 29v-12zM387 348l-15 8l-4 -13l-7 -7l5 -5l8 1c5 5 9 11 13 16zM335 282c-5 -4 -10 -13 -13 -20c4 1 15 0 21 -2l-2 15zM242 232l-10 -14l13 -18l5 10l-11 6zM471 427
c-4 -5 -8 -7 -14 -12l11 -5l4 -7l3 6zM366 377v-6l10 4l3 10h-7zM272 255l-9 5c-1 -5 -3 -12 -4 -18c3 6 8 6 13 13zM345 341l-7 -9l5 -7l10 14zM393 344l-4 -13l7 -2l2 8zM377 310l-7 -4l6 -7l6 8zM425 427h7l-5 10zM222 182l11 -3l-6 10zM258 212l2 -7l11 10zM394 372
l3 -8l3 6zM544 532v8l-8 1l-1 -8c0 -12 8 -13 8 -13l14 -1s1 12 -13 13zM527 509l2 22c0 -11 -10 -11 -9 -11c0 12 0 12 -13 13c0 0 0 -12 -1 -22l13 -1zM528 495l15 9l-13 12zM510 472c0 0 11 -1 12 10l-11 12s-1 -11 -1 -22zM480 485l8 -1s1 11 15 21
c-14 -10 -23 -9 -23 -20zM99 573l-3 -8l18 -13c0 12 9 18 15 23c-12 10 -19 -2 -30 -2zM340 585l-18 1l3 -13l-6 -8l6 -3l9 3c3 6 4 13 6 20zM166 638l5 -6l11 20l-13 2zM184 625c-4 -3 -8 -4 -13 -5l6 -15c5 2 9 10 11 16zM144 615l-9 -15h11l9 -6v8zM147 654l3 -13l6 3
l5 -2l4 4l-2 6zM303 562l-2 -10l9 -4v16zM310 602l3 -6l6 6v11l-8 -3zM180 636v-5l4 1l6 -2l4 8l-7 2zM348 583v-13h10l-2 11zM110 601l8 3l-11 7zM338 607l7 -5v7zM191 652l-2 -7l5 2zM650 135c-3 -3 -7 -6 -10 -11c-5 -8 3 -10 8 -15l2 -8l10 -4l6 10l-8 5l2 17zM623 144
l6 -10l10 -1c1 8 2 16 0 25h-7zM652 165c2 -5 0 -12 0 -17l11 1c0 5 0 11 -3 14l3 9c-3 1 -9 -3 -11 -7zM287 529c-4 -5 -9 -14 -9 -20c5 2 13 9 17 11v11zM318 518c-4 -2 -10 -2 -15 0l-1 -8l16 -1l3 5zM327 551c-2 -3 -2 -8 -2 -14l7 2l2 6l-1 3zM264 512v-9l8 -3l4 5z
M435 94l5 -4l7 5c-4 4 -7 5 -13 6zM583 82l4 -5l3 3l1 7l-6 3zM630 95l1 -6c2 4 4 4 6 7c0 2 1 4 1 8h-4zM619 105l4 -2l2 8l-8 1zM287 546l-4 -4l6 -3l2 7h-4zM278 498l4 -3c1 5 -1 8 -6 12zM631 171l-2 -6h8zM447 201l7 -6c-5 -9 -5 -9 -20 -11c2 -2 5 -2 7 -2
c6 0 11 4 21 4c0 15 0 15 -15 15zM477 203c12 2 12 2 18 7c-8 7 -12 0 -20 7zM432 166l-8 -8c3 -2 5 -3 7 -3s4 1 7 1c2 0 4 -1 6 -3c-1 3 -6 7 -6 7zM608 80h10l-6 6zM415 148c3 -4 5 -5 7 -5c1 0 2 1 6 5l-9 6zM456 170c1 -4 2 -7 2 -10c0 -5 -2 -7 -8 -12l8 -6
c0 27 2 11 2 20c0 5 -4 8 -4 8zM477 195l-15 -17c6 6 15 0 23 8h-3c-3 0 -8 0 -8 3c0 2 1 4 3 6zM417 131c2 -2 4 -3 5 -3c4 0 6 3 6 3l-6 6zM427 141c0 0 4 -4 13 -4c2 0 5 0 7 1l-14 12z" />
    <glyph glyph-name="ampersand" unicode="&#x26;" horiz-adv-x="540" 
d="M549 177c-12 -3 -57 -11 -103 -21c28 -9 58 -23 59 -25c1 -13 -171 -112 -200 -125c-9 -3 -29 -5 -49 -5c-23 0 -47 2 -58 3c-8 0 -29 4 -64 15c-39 12 -83 29 -122 121c-6 13 -12 29 -12 41c0 82 144 162 188 202c0 10 -71 73 -81 96c-3 6 -4 12 -4 18c0 10 4 20 12 29
l12 12c71 72 202 172 201 172c4 0 17 -17 38 -38c4 39 2 57 18 57c2 0 93 -41 100 -86c-4 -31 -26 -190 -37 -190c-7 4 -100 47 -100 72c0 2 0 11 2 23l3 16c-38 -33 -95 -83 -104 -97c-2 -2 -2 -4 -2 -4c25 -39 84 -117 86 -121s3 -8 3 -10c0 -6 -5 -9 -14 -15
c-5 0 -149 -123 -169 -141c-14 -13 -27 -22 -27 -34c0 -38 40 -91 56 -91c13 0 98 52 147 78l-21 -4c-36 4 -58 37 -58 37c0 10 204 57 235 66c10 3 18 6 24 6c-5 0 42 -29 42 -53c0 -1 0 -2 -1 -4zM259 629v-10l13 4v-13l13 -5c11 12 13 19 18 35l-9 8c-3 -5 -6 -9 -9 -14
c-3 -4 -21 -5 -26 -5zM259 620c-9 -1 -20 -2 -28 -7v-21h15c10 10 10 16 13 28zM236 564l-5 -8l15 -12l13 10l-7 12c-5 5 -15 6 -23 7zM280 600c-4 -6 -4 -21 -4 -28c4 5 16 7 23 7c-4 6 -9 13 -13 17zM205 532l-5 -17l21 -10l2 10l-14 3zM226 548h-12c0 -6 1 -13 2 -18
c4 5 10 12 10 18zM229 501l5 -6l8 13l-10 1zM313 640l-5 -6l9 -3l1 9h-5zM229 524l10 1l-10 7v-8zM392 645l9 -4l1 9l-5 8l-5 -4v-9zM360 655l5 -9l2 7zM342 139l7 1l3 17l-14 4c-8 -15 -12 -17 -2 -32zM397 146l16 7l-3 22l-10 -5l6 -11zM359 142l6 -9c4 4 8 9 13 13
c-6 -3 -11 0 -19 -4zM440 180l-9 7v-12zM392 173l3 6l-14 -3zM90 224l5 -12c14 12 15 11 34 5l3 8c9 -2 16 -4 24 -5l9 18l-12 5c-5 -4 -14 -12 -20 -16l-12 1l6 11l-7 10l-15 -8c-4 -7 -7 -12 -15 -17zM368 92l5 7l-10 18c-4 -7 -15 -14 -22 -17c1 -1 3 -3 4 -5l3 -2
c8 -4 13 -2 20 -1zM175 265l5 6l-4 14l-15 -2c0 -18 -2 -22 14 -31v13zM73 188l14 -8l3 13l8 6l-4 5l-8 1c-5 -7 -10 -11 -13 -17zM120 259l6 -8c5 4 10 13 14 21c-5 -3 -15 0 -21 2zM220 298l10 13l-13 18l-6 -9l11 -7zM308 85l4 -16c2 4 8 6 13 10l-10 6l-3 8zM91 159l1 6
l-10 -4l-3 -11l8 1zM189 276l9 -5c1 4 2 12 4 17c-3 -5 -9 -5 -13 -12zM113 195l7 8l-5 7l-8 -15h6zM66 192l5 13l-6 2l-3 -9zM83 226l7 2l-5 8l-8 -8zM358 68h-9l7 -11zM241 348l-11 2l6 -11zM203 318l-1 8l-11 -10zM65 165l-3 7l-3 -5z" />
    <glyph glyph-name="quotesingle" unicode="'" horiz-adv-x="171" 
d="M171 459c-5 0 -10 1 -68 4c-13 1 -23 7 -23 14v2c2 3 64 195 66 205c5 17 10 21 33 21c26 0 72 -9 72 -25c0 1 -49 -158 -64 -204c-2 -8 -5 -17 -16 -17zM108 524l10 -7c5 17 7 17 25 21l-1 8c7 3 15 5 22 8l-2 19l-13 -2c-1 -6 -5 -16 -7 -23l-11 -5l-1 12l-10 3l-9 -12
c1 -8 1 -13 -3 -22zM166 531l2 8l-12 10l-10 -10c8 -14 8 -18 26 -17zM202 616l9 -2c2 6 2 15 2 23c-4 -4 -13 -8 -19 -8zM186 581l1 16l-19 8v-10h12zM172 548h10c-2 5 -4 11 -5 17c0 -6 -5 -9 -5 -17zM178 632l-10 -3l10 -6v9zM162 589l-4 6l-4 -14z" />
    <glyph glyph-name="parenleft" unicode="(" horiz-adv-x="400" 
d="M94 339c25 81 109 248 271 248c84 0 115 -21 115 -29c-115 -58 -306 -145 -306 -382c0 -156 79 -247 79 -293c0 -5 -1 -7 -4 -7c-2 0 -5 1 -8 3c-79 45 -161 205 -161 354c0 34 3 72 14 106zM127 296c0 -3 1 -6 1 -10l11 4v-11l12 -5c11 11 12 18 17 32l-8 7
c-3 -5 -6 -8 -9 -13c-2 -3 -18 -4 -24 -4zM128 287c-7 -1 -18 -2 -25 -5v-20h13c9 10 9 15 12 25zM175 400l-3 -9l19 -12c0 11 8 17 13 23c-11 9 -18 -2 -29 -2zM107 237l-4 -8l13 -10l11 8l-6 12c-5 4 -14 6 -20 6zM169 344h-17l3 -12l-6 -8l6 -3l8 3c4 7 5 13 6 20z
M145 268c-2 -4 -2 -18 -2 -23c4 3 15 6 20 6c-3 5 -7 11 -11 15c0 0 -5 2 -7 2zM242 465l5 -7l12 20l-14 2zM260 451c-5 -3 -9 -3 -13 -5l5 -15c7 3 9 11 12 17zM220 442l-9 -15h12l8 -6v7zM124 168l-4 -16l19 -9l1 9l-13 2zM223 480l3 -13l6 3l6 -1l3 3l-2 6zM131 205h-12
c0 -6 2 -11 2 -17c5 5 8 11 10 17zM133 321l-2 -10l8 -3v15zM139 361l4 -6l6 6v10l-8 -3zM255 463v-5h5l6 -3l4 9l-7 1zM178 342v-13h9l-1 11zM101 179l4 -5l7 13h-8zM176 306l-4 -6l9 -2v8h-5zM175 424l8 3l-11 7zM101 200l9 2l-9 7v-9zM168 366l7 -5v6zM267 478l-2 -7l4 3
z" />
    <glyph glyph-name="parenright" unicode=")" horiz-adv-x="392" 
d="M291 190c-51 -164 -252 -297 -367 -297c-11 0 -24 0 -24 6c0 9 38 33 54 42l21 12c86 57 220 162 220 354c0 104 -40 177 -84 254c-4 6 -16 21 -16 28c0 2 5 4 9 4c33 0 133 -58 155 -90c41 -62 53 -131 53 -191c0 -45 -11 -88 -21 -122zM270 255c-3 -3 -6 -7 -10 -12
c-5 -9 4 -11 8 -16l2 -8l10 -4l7 10l-8 5l2 18zM243 264l6 -11l9 -1c2 9 3 17 1 25h-7zM273 286c2 -6 0 -13 -1 -19l11 2c0 5 2 11 -2 14l4 9c-5 2 -11 -3 -12 -6zM246 329c-3 -6 -9 -15 -9 -21c6 2 12 8 17 11v12zM277 317c-4 -3 -10 -3 -14 -1l-2 -8h16l5 5zM214 169l7 -4
l1 8l-4 9l-4 -5v-8zM246 396c-2 -3 -2 -9 -3 -15l8 3l2 6l-1 3zM222 310v-9l8 -3l5 6zM211 255l4 -5l9 5c-5 5 -9 6 -15 7zM200 199l5 -5l3 3l1 7l-6 3zM221 226v-7c3 4 5 4 6 7c1 2 3 5 3 8l-5 1zM230 247l6 -3l1 9l-9 2zM246 346l-3 -4l6 -4v8h-3zM237 296l4 -4
c2 6 -2 9 -6 12zM250 292l-1 -6h7zM183 178l5 -8l1 6z" />
    <glyph glyph-name="asterisk" unicode="*" horiz-adv-x="186" 
d="M81 588l60 24v8l-14 15c-6 6 -22 34 -22 51c0 1 0 2 1 2h2c11 -12 23 -23 35 -34c0 9 -1 19 -1 26v8c1 8 3 14 6 14c2 0 45 -34 53 -64c6 4 20 11 25 11c20 -2 38 -8 40 -10c0 -1 -1 -2 -1 -3l-65 -30c0 -3 -1 -6 -1 -8c38 -35 30 -21 35 -65c0 -3 -1 -4 -3 -4
c-5 4 -18 19 -34 35l-2 -36c-1 -5 -2 -8 -4 -8c-13 7 -52 42 -52 59c-28 -11 -16 -11 -23 -11c-3 0 -5 0 -8 2c-4 2 -28 12 -28 16c0 0 0 1 1 2zM188 588c-2 -1 -4 -3 -5 -5c-3 -5 1 -6 4 -8l1 -4l1 3l1 6l1 3v8zM166 595l5 -8l8 -2c2 8 3 15 1 21h-6zM178 624
c0 -3 0 -6 -1 -9l5 2c0 2 1 4 0 6l1 4c-2 1 -5 -1 -5 -3zM163 658c-3 -5 -8 -12 -8 -17c5 1 11 7 15 9v10zM175 639c-3 -2 -8 -2 -12 -1l-1 -6h13l4 3zM144 643v-8l6 -2l4 4zM140 588l4 -4l7 4c-4 4 -7 5 -12 6zM200 622v-5c2 3 4 3 5 5s2 4 2 7l-4 1zM158 593l4 -2l1 7
l-7 2zM155 631l4 -3c1 5 -2 7 -5 10zM167 628l-2 -6h7z" />
    <glyph glyph-name="plus" unicode="+" horiz-adv-x="509" 
d="M10 310c14 13 78 11 176 13c39 120 52 204 83 204c42 0 114 -37 114 -60v-6l-3 -17l-35 -118c12 0 21 1 30 1c30 0 114 -30 114 -42c0 -2 -1 -3 -6 -4c-11 -3 -34 -2 -154 -4c-59 -195 -58 -193 -83 -193c-62 1 -118 2 -118 50c0 8 8 33 43 140c-5 0 -12 -1 -16 -1h-7
c-81 0 -134 35 -138 37zM244 189l3 10l-15 12l-13 -11c10 -17 10 -22 31 -23zM272 250l3 20l-24 11l-1 -13l16 -1zM252 210h12c-1 5 -3 13 -4 20c-1 -7 -7 -11 -8 -20zM266 315l-13 -4l12 -8zM243 262l-5 7l-6 -16zM275 441l11 -7c-8 -12 -8 -12 -27 -14c3 -3 6 -4 9 -4
c7 0 15 6 28 6c0 19 0 19 -21 19zM315 444c16 3 16 3 24 10c-11 9 -16 0 -27 9zM256 396l-10 -11c4 -2 6 -3 9 -3s6 1 9 1s5 -1 8 -4c-2 4 -8 9 -8 9zM179 230h13l-8 8zM234 372c4 -5 6 -6 9 -6c1 0 3 1 7 6l-11 8zM288 402c1 -6 2 -11 2 -14c0 -7 -3 -9 -10 -16l11 -8
c0 36 3 15 3 27c0 6 -6 11 -6 11zM315 434l-19 -23c8 9 19 0 30 11h-4c-4 0 -10 0 -10 5c0 1 0 4 3 7zM237 350c2 -3 5 -4 7 -4c4 0 6 4 6 4l-7 8zM250 363c0 0 5 -5 17 -5c2 0 6 0 9 1l-19 15z" />
    <glyph glyph-name="comma" unicode="," horiz-adv-x="205" 
d="M34 -105c-26 0 -61 9 -61 20c2 5 10 34 28 90c-28 5 -41 10 -41 20c1 35 29 108 37 108c4 0 108 -16 108 -36c0 -10 -13 -48 -30 -97c-10 -30 -22 -81 -41 -105zM59 86v8h-8v-8c0 -12 8 -12 8 -12h14s0 12 -14 12zM44 62v22c1 -11 -9 -11 -8 -11c0 11 0 11 -13 11v-22h13
h8zM46 48l14 10l-14 11v-21zM29 24c0 0 12 0 12 11l-12 11v-22zM-1 35h8s0 11 14 21c-14 -10 -22 -10 -22 -21zM53 -17l3 3l-3 4l-4 -4c-5 -5 -2 -9 -2 -9l6 -5s5 5 0 11zM36 -21l9 9c-4 -5 -9 -1 -9 -2c6 6 6 6 0 11l-9 -9l5 -6zM31 -29l10 -1l-1 11zM13 -32c0 0 5 -5 10 0
l-1 9zM4 -14l4 -4s4 4 15 4c-11 0 -14 4 -19 0z" />
    <glyph glyph-name="hyphen" unicode="-" horiz-adv-x="466" 
d="M20 311c12 11 211 17 318 17c22 0 108 -25 108 -37c0 -4 -4 -5 -11 -5h-9c-16 0 -191 -5 -259 -7h-22c-40 0 -125 25 -125 32zM158 305v11h-11v-11c0 -14 11 -14 11 -14h17s0 14 -17 14zM233 292v28c1 -15 -11 -15 -10 -15c0 15 0 15 -17 15v-28h17h10zM181 292l17 13
l-17 14v-27zM240 303c0 0 9 -11 20 -3l3 18zM282 307l9 -6s7 12 29 13c-22 -1 -31 4 -38 -7zM191 290c0 0 3 -4 7 -1l1 7z" />
    <glyph glyph-name="period" unicode="." horiz-adv-x="204" 
d="M104 105v-5c0 -17 -19 -74 -28 -97c-6 -8 -8 -8 -17 -8c-20 3 -99 21 -99 34c0 29 24 100 37 107c15 10 97 -10 107 -31zM61 99v8h-9v-8c0 -11 9 -11 9 -11h13s0 11 -13 11zM46 76v22c1 -12 -9 -12 -8 -12c0 12 0 12 -13 12v-22h13h8zM48 62l13 10l-13 11v-21zM31 38
c0 0 11 0 11 11l-11 11v-22zM1 49h8s0 11 14 21c-14 -10 -22 -10 -22 -21z" />
    <glyph glyph-name="slash" unicode="/" horiz-adv-x="507" 
d="M90 32c-7 -8 -22 -28 -38 -28c-46 1 -127 -2 -121 25c1 8 2 13 15 30c65 91 470 604 473 607c20 30 29 28 57 30c33 2 108 6 100 -22c-4 -12 -190 -257 -201 -273c-27 -41 -238 -315 -285 -369zM228 308c-14 -15 -17 -14 -39 -9l-2 -10c-10 1 -19 3 -28 3l-8 -20l14 -6
c6 7 14 15 20 21h15l-6 -13l10 -9l15 9c4 9 7 14 16 21zM280 402l-6 -11l13 -18c3 9 16 17 24 21c-2 2 -5 4 -5 6c0 0 -3 2 -5 3c-9 2 -15 0 -21 -1zM143 239l-6 -7l8 -17l17 5c-3 19 0 24 -20 32zM251 338l-17 9l-3 -15l-8 -9l5 -5h10c5 7 9 14 13 20zM197 261
c-4 -6 -9 -17 -13 -25c5 2 17 1 24 -1l-3 17zM96 196l-10 -16l16 -20l5 11l-13 7zM341 434c-5 -6 -9 -9 -15 -14l12 -5l6 -8l3 7zM226 370v-8l11 7l2 10h-8zM128 224l-10 5c-2 -6 -2 -13 -4 -20c4 6 10 7 14 15zM205 327l-8 -11l7 -7l9 17zM259 334l-5 -15l9 -1l2 9z
M243 295l-7 -6l7 -6l6 8zM288 430l9 1l-8 11zM77 137l13 -2l-8 12zM116 174l3 -8l11 13zM257 365l4 -8l3 7zM415 558v10h-10v-10c0 -13 10 -13 10 -13h15s0 13 -15 13zM398 532v25c1 -14 -11 -14 -10 -14c0 14 0 14 -15 14v-25h15h10zM400 515l16 12l-16 13v-25zM381 488
c0 0 12 0 12 12l-12 13v-25zM346 500h9s0 13 16 25c-16 -12 -25 -12 -25 -25z" />
    <glyph glyph-name="zero" unicode="0" horiz-adv-x="566" 
d="M536 471c0 -195 -113 -476 -295 -476c-124 0 -201 61 -201 223c0 226 128 489 320 489c142 -3 176 -156 176 -236zM213 64c123 -14 202 290 202 445c0 74 -13 103 -42 103c-119 -18 -186 -255 -193 -410c0 -78 6 -138 33 -138zM471 345c0 3 -1 7 -1 11l-12 -5v13l-13 5
c-12 -12 -13 -19 -18 -35l9 -8c3 6 7 9 9 14c3 4 21 5 26 5zM470 355c10 1 21 1 29 5v21h-15c-10 -10 -10 -15 -14 -26zM420 230l2 10l-20 14c0 -12 -9 -19 -16 -25c14 -11 21 1 34 1zM494 411l5 7l-15 12l-13 -9l7 -13c5 -5 15 -7 22 -8zM425 292l19 -1l-3 14l7 9l-7 3
l-9 -3c-4 -6 -6 -14 -7 -22zM451 375c4 5 4 21 4 26c-5 -3 -17 -7 -23 -7c3 -5 8 -12 12 -16c0 0 6 -3 7 -3zM382 117l-5 7l-13 -22l15 -2zM359 136l4 -4c4 3 9 4 14 5l-6 17c-7 -3 -10 -11 -12 -18zM390 160l9 17h-12l-9 6v-8zM455 495l5 17l-22 10l-1 -10l13 -2zM202 426
l-4 15l-7 -5l-6 3l-2 -4v-7zM455 453h13c0 6 -1 12 -3 18c-4 -5 -9 -12 -10 -18zM465 317l3 11l-10 4v-17zM458 274l-3 6l-7 -7v-11l8 3zM367 119v6l-5 -1l-6 3l-5 -9l8 -2zM415 295v13h-10l2 -11zM500 474l-4 5l-8 -14h10zM418 334l4 6l-9 3v-9h5zM420 204l-10 -3l12 -8z
M500 451l-9 -3l9 -7v10zM427 268l-7 6v-8zM355 102l2 8l-5 -3zM123 428l12 -7c2 3 6 7 10 12c5 9 -4 11 -9 16l-1 9l-12 4l-6 -10l8 -5zM141 396l-6 11l-12 2c0 -9 -2 -18 0 -28h7zM109 374c-3 5 0 13 1 19l-13 -2c0 -5 -1 -12 2 -16l-3 -9c4 -2 11 3 13 8zM129 326l7 1
c5 6 11 16 11 23c-6 -2 -14 -10 -18 -12v-12zM99 345l5 -5c4 3 11 3 15 0l2 9l-17 1zM171 496l-8 4l-1 -9l4 -8l5 4v9zM130 260l7 -3c2 4 2 9 3 16l-8 -3l-3 -6zM162 347v10l-9 3l-5 -6zM174 406l-5 5l-9 -6c5 -5 9 -5 16 -7zM185 464l-5 6l-3 -4l-1 -7l7 -4zM163 436v7
c-3 -4 -5 -4 -7 -7c-1 -2 -2 -5 -2 -9l5 -1zM153 414l-6 3v-10l8 -1zM138 309l3 5l-6 4l-2 -9h5zM147 362l-5 4c-1 -6 2 -9 6 -13zM133 366l2 8l-9 -1zM203 487l-5 8l-2 -6z" />
    <glyph glyph-name="one" unicode="1" horiz-adv-x="383" 
d="M167 -3c-55 0 -127 17 -127 45c0 5 0 12 3 20l171 469c-55 -34 -109 -72 -117 -72s-27 79 -27 114c0 14 100 73 147 115c13 11 35 28 45 28c7 0 11 -4 17 -18c4 7 8 9 15 9c5 0 10 0 15 -1c28 -6 104 -28 104 -53c0 -9 -213 -610 -223 -635c-4 -11 -9 -19 -23 -21z
M246 387c-7 -19 -8 -19 -30 -24l2 -9c-9 -4 -18 -6 -26 -10l3 -21l14 1c1 8 6 19 9 27l12 7l1 -15l12 -4l10 15c-1 9 -1 15 4 25zM250 490v-11l19 -11c0 9 7 23 12 29c-3 1 -5 2 -8 3h-4c-8 -1 -13 -6 -19 -10zM202 291l-3 -8l15 -12l11 12c-10 16 -10 20 -30 20zM252 423
h-18l4 -14l-4 -12l8 -1l8 5c0 7 2 15 2 22zM239 333c-1 -7 -1 -18 -1 -27c4 5 14 9 21 9l-9 15zM179 234l-2 -18l22 -10v12h-14zM289 544c0 -6 -4 -12 -6 -18l12 1l9 -5l-1 8zM218 440l3 -7l6 11l-2 10l-7 -5v-9zM195 272h-12c2 -5 4 -12 6 -19c0 7 6 11 6 19zM218 394
l-2 -12l9 -4v18zM261 423l3 -14l8 1l-3 10zM265 382l-5 -8l9 -3l2 11h-6zM246 518l8 5l-12 7zM187 175l12 4l-12 6v-10zM206 224l4 -6l6 16zM246 449l8 -5l-1 7z" />
    <glyph glyph-name="two" unicode="2" 
d="M426 44c-23 -2 -238 -40 -284 -47c-12 -2 -40 -9 -60 -5c-39 8 -129 27 -132 46c3 19 20 41 51 64c87 73 413 358 413 455c0 6 -11 40 -18 40c-5 0 -17 0 -52 -24c-22 -15 -59 -37 -131 -121c-5 -5 -10 -7 -17 -7c-9 0 -110 34 -110 72c0 9 6 20 15 31
c59 68 163 146 244 146c119 0 180 -125 180 -193c0 -94 -98 -198 -163 -258l-192 -177c128 26 168 36 202 40c11 1 52 -28 54 -62zM277 235c5 5 18 18 19 27c-6 0 -11 5 -14 9l1 11l-12 7l-10 -11l10 -8l-10 -22zM310 217l-7 16l-13 4c-2 -10 -4 -21 -5 -32l10 -1zM259 191
l7 9c1 6 1 13 4 22h-14c-2 -7 -2 -13 -2 -20l-6 -11h11zM359 306c5 5 15 16 16 23c-7 0 -19 -5 -25 -11l-2 -15zM285 281l14 -1l4 8l24 1c-8 6 -30 6 -41 7zM199 499c7 7 11 14 14 21l-18 7l-1 -21zM310 300l7 11c-12 4 -34 -4 -43 -6zM319 327c9 1 15 1 22 -3l2 11l-22 3
l-7 -4zM246 531l9 3v19l-7 -2l-9 -17zM181 527l-5 10l-10 -13l3 -5l10 -3zM219 187c2 2 4 11 2 17h-7l-6 -8l4 -7zM463 527l-2 11c-4 -2 -12 -14 -12 -20h5zM418 395l-4 5l-11 -5l5 -7l11 -3zM432 506l-7 5c0 -1 -2 -9 -4 -9c2 -6 3 -9 3 -13l8 6v11zM392 322l1 15l-10 3
l-5 -3zM443 464l-4 6l-7 -3v-7l6 -5zM154 520l-7 7c1 -12 -6 -15 -6 -22l7 4zM198 569c0 2 0 6 -1 8c0 4 -2 7 -2 11l-10 -2zM163 538l7 10l-9 1l-6 -8zM396 407l-6 6l-4 -11l9 -4zM356 284l5 4l-8 5l-3 -8zM172 484l5 10l-7 -1l-4 -6zM377 346l-6 7c0 -7 1 -13 3 -18z
M242 236l2 11h-10zM327 280l3 2l-7 6l-2 -6zM303 259l3 7l-10 -2zM254 622l-6 9l-9 3zM357 378l2 3l-6 3l-1 -6h5zM270 560l-4 7l-5 -7h9zM470 488l-6 10l-1 -7zM305 235l2 9l-6 2zM238 606l1 6l-2 1l-3 -5zM184 549l1 4l-4 3z" />
    <glyph glyph-name="three" unicode="3" horiz-adv-x="514" 
d="M378 347c-9 11 -25 15 -50 15c-44 0 -103 -18 -139 -27c-2 0 -2 -1 -4 -1c-1 0 -87 34 -87 68c0 7 6 15 13 19c76 74 169 179 228 238c-91 -16 -171 -19 -246 -37c4 0 -73 14 -73 34c0 22 344 51 356 53c17 -7 54 -65 54 -87c0 -18 -62 -84 -146 -163c26 0 67 0 97 -12
c55 -21 113 -87 113 -139c0 -21 -8 -37 -20 -53c-42 -56 -209 -206 -270 -247c-20 -14 -45 -27 -57 -27c-25 0 -90 69 -91 71c-13 20 30 51 43 61c88 66 279 216 279 234zM274 168c-8 2 -17 4 -26 7l-8 -19c5 -2 9 -4 12 -5c6 -2 20 12 23 14l12 -1l-6 -10l8 -9l14 4
c4 7 10 14 16 16l-5 10c-20 -11 -13 -10 -37 2zM371 250l-7 -6l10 -19l8 9l16 3c-2 2 -3 5 -5 8c-3 3 -18 6 -22 5zM230 129l-7 -4l8 -16l16 5v11c-1 3 -13 14 -17 17v-13zM338 200l-16 6l-2 -10l-7 -5l3 -6l8 -2c5 4 11 10 14 17zM283 141c-1 -1 -4 -2 -6 -5
c-3 -4 -5 -10 -8 -16c6 2 16 0 22 -2l-3 17zM184 102l-14 -14l14 -18l8 9l-12 6zM302 583c-5 -5 -13 -11 -16 -17c6 -1 15 3 20 4l5 12zM329 561c-6 0 -11 2 -16 4l-3 -8l15 -4l7 2zM337 586l-7 -6l9 -4c7 4 16 0 24 3zM216 120l-11 8c-2 -6 -3 -12 -2 -18c5 2 10 7 13 10z
M319 230v-7l9 4l5 9h-9zM296 196l-9 -9l7 -6l9 12zM218 439l6 -6l4 8l-1 9l-8 -4zM199 81l2 -9l11 8l-6 6zM346 193l-6 -11l9 -3l2 9zM274 573l-3 -10l5 -4l8 3zM244 522l3 -5l9 3c-3 5 -6 7 -12 10v-8zM216 472l2 -7l6 3l2 7l-5 4zM160 418l-1 -7c1 3 4 3 7 5c2 2 4 4 5 7
l-4 2zM327 161l-5 -3l7 -7l3 8zM308 600l-6 -4l6 -5l7 5zM260 509l3 -5l5 9l-6 4zM163 53l9 -2l-6 11zM380 270h10l-1 7zM283 554l3 -5c2 5 1 9 -2 13zM347 221l4 -9l4 7zM294 528l-2 -3l4 -3l2 4zM193 457l1 -8l3 5zM255 474l-8 -5l5 1zM274 168l2 -1v0z" />
    <glyph glyph-name="four" unicode="4" horiz-adv-x="585" 
d="M195 679h12c90 0 97 -14 97 -17c-1 0 -6 -15 -14 -37l-89 -254c-3 -8 -7 -14 -10 -18c44 7 117 15 159 21c58 163 110 332 136 332c56 0 119 -45 119 -58c-2 -30 -217 -617 -225 -639c-4 -9 -8 -20 -23 -20c-75 7 -127 13 -127 45c1 8 2 16 5 24c24 81 62 173 94 263
c3 -1 -131 -28 -193 -28c-21 0 -75 20 -75 35c0 5 -1 6 2 20l100 309c8 16 11 19 30 22h2zM439 440c-5 0 -9 3 -13 5h-11l-9 14l-2 -2c-2 -4 -2 -8 -2 -12c0 -6 2 -12 4 -18l7 5c9 0 19 -1 28 -5c0 -6 -2 -15 -7 -19l-9 4l-3 10l-7 -3c-3 -7 0 -17 -3 -24l-8 -3l4 -22l-24 8
l3 -11l17 -8l-2 -10c10 -4 11 -11 11 -20v-20l9 1l4 5l6 -3c9 1 16 5 19 13l-10 4v11l7 4l11 -13l6 3c-9 7 -17 12 -17 23c0 3 1 5 3 9l-18 21l8 -25l-7 -8l-11 33l9 16c7 -1 16 -5 21 -11l-11 19c15 1 25 26 37 32l6 16l-6 7v23l-14 -3l-2 -10l-4 3v-10
c11 -10 10 -15 13 -29l-8 3l-7 -12l-11 3zM426 304c-4 -5 -10 -15 -10 -23c0 -7 7 -5 15 -9l2 -10l13 -2l5 12l-10 4v22zM390 309l11 -11h12c-1 10 -1 22 -5 31l-8 -4zM422 340c0 5 8 11 12 11l-1 -11c4 -4 6 -11 6 -17l-13 -5c0 7 0 16 -4 22zM376 220c-3 -9 -7 -20 -7 -27
c6 2 15 11 18 16l-2 15zM465 528l-6 -22h20l-6 19zM432 262l-12 -2l-2 -10l-18 -8c11 0 23 4 33 8zM416 211c-5 -2 -12 -2 -17 -2v-11l18 3l3 8zM417 238l-4 -9l10 1c7 7 16 8 25 16zM434 488l-4 -7l4 -16l8 5v16zM439 440c7 3 12 5 18 8l-6 6l-9 3c-3 -3 -3 -9 -3 -12v-5z
M490 510l6 -6l5 13l-3 4h-9zM459 365c0 -5 0 -11 3 -16l7 2l3 8l-4 5zM353 193l2 -12l9 -1l5 6zM351 124l7 -3l7 7c-6 4 -10 4 -17 4zM513 525l8 -5l-6 11l3 11l-5 -6v-11zM489 470l7 -16l8 5zM375 121l6 -4v11h-8zM509 506l-3 -11l9 2v9h-6zM371 240l-2 -7l7 -2v9h-5z
M485 551l-1 -11l5 2l4 9h-8zM373 179l6 -4c0 6 -5 10 -10 13zM395 344v-10l7 4zM396 251l-4 -4l9 -2v5zM458 408l7 -7h8zM410 276v-7l7 5zM401 295v-7h6zM425 454l5 -4l1 7zM467 424v-5h2v5h-2zM495 490v-4h4zM442 312c-1 -2 -1 -3 -1 -3v-5zM217 556v11h-12v-11
c0 -13 12 -13 12 -13h16s0 13 -16 13zM198 528v27c0 -15 -11 -15 -11 -15c0 15 0 15 -16 15v-27h16h11zM200 510l17 13l-17 13v-26zM179 479c0 0 14 0 14 14l-14 15v-29zM141 493h10s0 15 17 27c-17 -12 -27 -12 -27 -27z" />
    <glyph glyph-name="five" unicode="5" horiz-adv-x="509" 
d="M76 417c3 8 9 20 16 29c29 58 64 126 113 205c20 33 18 32 30 33c43 3 238 32 270 36c6 1 12 2 17 2c33 0 47 -54 47 -73c0 -1 -216 -40 -283 -49l-98 -159c24 5 62 9 91 9c15 0 32 -1 47 -4c60 -13 128 -75 128 -143c0 -7 -2 -14 -2 -21c0 -61 -183 -205 -246 -256
c-35 -29 -77 -48 -87 -48c-19 0 -99 60 -99 75c0 12 15 25 28 34c75 53 298 235 298 251c0 11 -32 16 -48 16c-47 0 -111 -28 -144 -28c-2 -1 -46 26 -62 36c-20 12 -26 17 -26 27c0 9 6 20 10 28zM209 123c4 -4 6 -9 7 -13l9 -7l-4 -16h4c7 7 15 13 17 22
c-15 3 -19 12 -25 25l9 8h10l4 -9l-6 -10l8 -2c9 6 11 14 19 17l8 -4l10 17l11 -21l7 10l-7 17l7 6l-2 13l21 22l-7 7l-6 -3l-2 7c-7 5 -15 9 -23 2l6 -8l-8 -7l-7 1l-1 17l-7 1c2 -8 4 -21 0 -27l-9 -4l-1 -27l10 23l11 1l-15 -31l-17 -5l-6 14v10l-6 -23l-9 4
c-8 -2 -31 -6 -39 -2l-16 -8v-7l-14 -18l10 -7l11 5l-2 -4c4 4 10 14 8 18l11 15l1 -6l15 6l6 -11zM311 211c5 0 13 2 17 6c11 6 4 12 2 21l3 7l-7 11l-11 -5l5 -11l-17 -14zM333 184l-1 14l-8 9c-6 -10 -12 -17 -17 -26l8 -4zM294 193c-1 -1 -3 -9 -4 -9
c-4 -3 -14 -2 -17 0l9 6c0 6 3 12 7 15l12 -6c-2 -2 -4 -3 -7 -6zM175 419c7 2 18 9 23 13c-8 2 -16 2 -23 0l-9 -11zM133 77c5 5 11 10 19 14l-15 12l-8 -16zM157 516l9 -8l9 8l17 -9c-1 3 -4 5 -5 7c-3 3 -20 9 -24 11zM182 520l9 7l-7 6l-9 -2c-8 7 -12 7 -18 6zM151 450
c3 -3 5 -3 8 -3c4 -2 4 -3 8 -6l8 8l-18 10h-7zM181 87l8 1l9 14l-9 1l-12 -11zM209 123c-4 2 -11 4 -17 6c0 -8 3 -10 6 -15c4 1 8 5 11 9zM121 100c5 4 6 9 6 17l-12 -7c0 -4 2 -7 6 -10zM246 190l6 6l3 7l-7 4l-5 -4l-3 -6zM309 671l-5 8c-6 -8 -5 -14 -10 -18l11 2z
M158 471l6 9l-4 8h-9zM212 555c3 5 2 9 0 14h-8l1 -8zM154 136c5 6 5 9 6 16l-10 2zM366 657l4 9c-6 -3 -12 -3 -18 -11l4 -4zM301 634l-1 6h-6l-4 -7l4 -6zM117 123l9 6l-8 5l-6 -7zM102 113l-3 8l-4 -12l-10 -6l10 3zM198 573c4 6 1 9 1 14l-8 -7zM165 402l6 2l-4 6l-6 -5
zM104 77l7 6l-5 2l-6 -4zM219 157v12l-6 4zM180 470l-3 6c-3 -3 -3 -21 -1 -16zM307 161l5 6l-6 4zM368 226l5 4l-5 6l-2 -4zM342 219l5 7h-10zM333 201l6 4l-3 4zM199 478l4 4l-4 2l-2 -4zM332 644l-1 8l-3 -4zM216 618l10 5l-6 1zM202 596l6 7l-6 -3v-4zM211 104v6l-5 -3z
M202 152l3 5l-3 2l-1 -5zM137 124l2 3l-4 3zM294 217c1 0 5 1 6 3z" />
    <glyph glyph-name="six" unicode="6" horiz-adv-x="569" 
d="M500 622c-46 -26 -119 -84 -184 -157c6 0 12 1 18 1c29 -1 61 -4 92 -13c50 -15 123 -85 123 -137c0 -22 -10 -37 -21 -54c-34 -50 -172 -156 -231 -203c-11 -9 -83 -63 -91 -63c-2 0 -20 1 -43 14c-65 36 -123 108 -123 223c1 211 291 437 351 475c13 8 20 10 25 10
c7 0 9 -1 20 -12c11 -12 70 -66 64 -84zM445 361c-58 35 -165 4 -211 -16c-40 -49 -67 -115 -67 -169c0 -15 1 -34 7 -47c95 68 271 219 271 232zM138 333c8 -5 12 -13 22 -16l2 -16l4 2c3 7 11 21 10 28c-14 -3 -26 7 -34 15l7 12l9 4l7 -8l-2 -11h8c5 3 8 8 6 14l8 9l9 -1
l5 21l18 -19l3 13l-12 16l5 9c-13 12 0 28 7 41l-9 2l-5 -3l-5 7c-9 3 -17 2 -24 -5l8 -7l-4 -10l-7 -1l-7 17l-6 -1c10 -13 11 -24 0 -37l7 -26l3 27l10 5l-4 -37l-16 -11c-7 3 -13 9 -17 17l5 -20l-11 1c-10 -6 -26 -18 -39 -16l-12 -12l3 -10l4 -25l8 9l1 -5l3 10
c-4 16 -1 15 2 31l4 -5l15 9l9 -7zM210 456c11 9 16 10 22 24c-3 1 -12 6 -12 11c1 3 0 6 2 10l-12 7l-10 -9l10 -10l-12 -21zM242 437l-5 15l-12 5c-3 -10 -6 -21 -8 -31l9 -2zM198 422c-3 -3 -11 -6 -17 -6l7 11c-1 5 0 12 2 17l15 -1c-5 -5 -7 -15 -7 -21zM294 516
c6 6 15 14 19 22c-8 -1 -17 -5 -24 -8l-4 -14h9zM223 500l13 -4l6 9l20 -1c-1 0 -8 5 -8 5l-27 3zM248 515l7 9l-10 3l-10 -3c-5 1 -15 0 -20 -2zM260 540c8 0 13 -1 19 -3l4 9l-20 4l-7 -3zM124 307l5 -16l5 18zM138 333c-6 0 -13 0 -18 1c1 -5 1 -11 8 -14c5 4 9 7 10 13z
M301 158l-8 7l-4 -10l1 -11l9 5zM151 415c1 1 3 4 5 7c1 3 0 6 1 8l-8 2l-5 -7v-6zM328 530l3 12l-8 5l-8 -3zM370 189v11c-6 -5 -11 -10 -14 -18l5 -1zM359 595l-4 5l-10 -3l4 -7l10 -4v9zM306 119l-3 6l-7 -3l-1 -8l6 -4zM264 133c2 6 1 12 0 18h-10zM338 609l-3 6l-6 -11
l9 -3v8zM136 372l-4 11l-7 3zM315 553l-4 6c1 -5 -1 -10 1 -15zM238 476l3 8l-9 -3zM238 454l4 7l-6 4zM191 458h3l3 5z" />
    <glyph glyph-name="seven" unicode="7" horiz-adv-x="455" 
d="M224 -7c-27 0 -127 25 -127 50c0 4 1 8 10 30l224 576c-91 -14 -155 -20 -226 -33l-16 -3c-29 0 -69 24 -69 32c0 13 250 57 343 57c24 1 46 -8 67 -16l36 -15c19 -11 18 -16 18 -28c-3 -27 -228 -608 -237 -629c-4 -10 -9 -19 -23 -21zM301 428c-5 0 -10 2 -13 5h-12
l-8 12l-3 -3c-2 -8 -1 -19 3 -28l7 5c8 0 18 -1 27 -5c0 -6 -2 -15 -6 -18l-10 3l-3 10l-7 -2c-2 -8 0 -18 -2 -25l-9 -3l5 -20l-23 8l2 -10l17 -10l-2 -9c17 -6 11 -23 11 -38l8 1l5 5l5 -4c9 1 17 5 19 13l-10 5v9l6 4l12 -13l5 5c-12 8 -19 14 -15 30l-15 20l7 -23l-6 -9
l-11 32l8 16c7 -2 17 -5 20 -10l-10 17c14 1 24 25 36 32l6 15l-6 7v22l-14 -2l-2 -10l-3 3v-10c10 -9 9 -15 12 -27l-7 2l-8 -12l-11 2zM288 295c-3 -5 -7 -10 -9 -17c-5 -13 4 -10 13 -15l3 -9l12 -3l5 12l-10 5v20zM253 300l10 -12h12c-1 10 -1 22 -5 30l-9 -3zM283 329
c0 5 8 11 13 11l-1 -11c3 -4 5 -11 5 -16l-12 -5c0 7 0 17 -5 21zM239 212c-3 -7 -7 -18 -7 -25c6 2 14 10 17 15l-1 14zM325 513l-5 -21h19l-6 17zM293 254l-12 -3l-1 -9l-19 -8c12 0 24 4 34 8zM278 205c-5 -3 -13 -4 -18 -4v-10l19 4l4 6zM279 231l-4 -10l10 1
c6 7 16 9 23 16zM296 473l-5 -6l5 -16l6 5l1 16zM301 428c5 1 11 3 16 6l-5 6l-9 2c-2 -2 -3 -7 -3 -11c0 -1 1 -2 1 -3zM350 494l7 -6l4 13l-4 4h-8zM320 354c0 -5 0 -11 2 -16l7 2l3 7l-4 5zM216 187l3 -12l8 -1l5 6zM371 509l8 -5l-4 11l2 11l-6 -6v-11zM349 456l8 -16
l7 5zM367 490l-1 -9l8 2l1 9zM234 232l-2 -6l7 -2v8h-5zM345 533l-1 -10l5 3l3 7h-7zM236 173l6 -4c-1 6 -5 10 -10 13zM256 333v-8l8 2zM258 243l-2 -4l7 -2v5zM271 268v-8l8 5zM318 396l7 -7h8zM263 286v-8h6zM286 440l5 -4l1 6z" />
    <glyph glyph-name="eight" unicode="8" horiz-adv-x="532" 
d="M369 393c45 -72 63 -136 63 -191c0 -161 -118 -208 -200 -208c-68 0 -151 19 -219 99c-9 10 -13 24 -13 36c0 98 172 276 185 295c-11 27 -22 76 -22 108c0 87 66 172 155 172c135 0 181 -118 188 -137c4 -13 6 -18 6 -25c-1 -14 -143 -149 -143 -149zM297 340
c-80 -49 -168 -207 -182 -238c13 -20 54 -32 77 -32c81 0 139 111 139 192c0 29 -10 59 -34 78zM420 628c-12 7 -32 15 -57 15c-69 0 -99 -47 -103 -83c0 -29 11 -55 14 -67c49 34 99 88 146 135zM127 256c0 -3 1 -6 1 -9l11 3v-11l12 -5c11 11 12 19 17 32l-8 8
c-4 -5 -6 -8 -9 -13c-3 -4 -19 -5 -24 -5zM128 248c-9 -1 -19 -2 -27 -6v-19h14c9 9 9 14 13 25zM199 328l-2 -8l18 -13c0 11 8 17 15 23c-12 9 -20 -2 -31 -2zM106 196l-5 -7l14 -11l12 9l-5 11c-6 5 -16 7 -22 7zM169 304l-17 2l3 -13l-6 -8l6 -3l9 3c3 6 4 13 5 19z
M146 228c-3 -4 -3 -18 -3 -23c4 3 16 6 21 6c-4 4 -9 11 -12 15c0 0 -5 2 -6 2zM210 628l6 -8l15 25l-17 3zM412 508c-7 1 -11 4 -16 7l-8 -19c8 -3 17 1 24 5v7zM356 482l-20 -7l10 -10l3 -12l6 7zM78 168l-5 -16l19 -9l2 9l-13 2zM248 632l4 -16l8 4l7 -2l3 4l-1 8z
M98 182h-13c0 -6 2 -12 3 -17c4 4 8 11 10 17zM133 282l-3 -10l9 -4v15zM139 321l4 -5l5 6v11l-7 -3zM407 539l-4 -5l4 -3l3 -8l11 5l-5 8zM178 303v-13h10l-2 10zM100 138l5 -5l6 13l-8 1zM176 266l-4 -5l9 -3v8h-5zM188 562l10 3l-14 9zM100 160l9 1l-9 7v-8zM168 327
l7 -6v8zM444 569l-7 -5l6 -2zM367 142c-3 -4 -8 -8 -12 -14c-6 -11 4 -13 10 -19l2 -9l12 -5l8 12l-10 6l3 21zM364 167l8 -13l12 -2c2 10 3 20 1 31h-9zM401 192c3 -6 0 -15 -1 -22l14 2c0 6 1 14 -3 18l4 11c-5 1 -12 -4 -14 -9zM370 244c-6 -7 -12 -18 -12 -25
c6 2 15 10 20 13v15zM407 230c-5 -3 -13 -3 -18 -1l-2 -9l20 -1l5 6zM330 52l9 -4l1 10l-5 10l-5 -5v-11zM345 274c-2 -3 -2 -9 -2 -16l8 2l3 7l-1 4zM340 222v-11l11 -4l5 7zM327 155l5 -5l10 6c-5 6 -10 6 -17 8zM314 89l6 -7l4 5l1 8l-8 4zM339 121l1 -8c3 5 5 5 7 9
c1 2 2 5 2 9l-5 1zM351 146l5 -3l2 11l-10 1zM368 265l-4 -5l8 -5l1 10h-5zM358 205l5 -4c1 6 -2 10 -7 14zM374 200l-2 -8l9 1zM294 63l5 -8l2 6z" />
    <glyph glyph-name="nine" unicode="9" horiz-adv-x="532" 
d="M32 40c-1 2 -2 4 -2 6c0 6 13 23 18 29c42 42 85 76 170 167c-12 -1 -25 -2 -39 -2c-283 0 -34 335 60 400c48 33 95 65 142 65c84 0 171 -106 171 -188c0 -25 -4 -49 -10 -74c-24 -102 -186 -270 -273 -349c-123 -111 -136 -102 -141 -102c-31 5 -79 21 -96 48zM128 364
c0 -3 2 -6 13 -8c40 0 157 31 230 61c22 35 47 92 47 130c0 20 -3 51 -15 51c-98 0 -275 -183 -275 -229v-5zM268 179c5 -2 8 -7 12 -12l11 -5l2 -16l4 2c5 8 11 20 11 29l-11 -1c-7 3 -17 8 -24 18c2 6 9 12 14 16l9 -9l-3 -12h10c5 6 6 16 13 23l10 -1l4 23l22 -18l1 11
l-12 17l6 9c-16 14 -2 28 6 43l-9 3l-6 -3l-5 7c-8 3 -18 3 -25 -6l8 -8l-3 -10l-9 -1l-7 18l-6 -1c7 -14 12 -25 1 -38l6 -27l4 26l11 7l-5 -39l-16 -12c-6 4 -12 10 -16 16l4 -18c-16 6 -37 -15 -52 -16l-14 -11l4 -11l-11 -22l15 -5l7 10l1 -5l6 11c-7 12 -3 18 0 33
l5 -8l16 9l8 -6zM342 307c6 4 13 7 17 12c9 11 -1 13 -6 24l2 9l-13 8l-9 -9l8 -10l-10 -20zM375 286l-4 17l-12 5c-4 -11 -10 -22 -10 -33l10 -1zM330 271c0 -5 -11 -8 -16 -5l5 9c0 6 0 14 3 20l15 -2c-2 -5 -7 -16 -7 -22zM430 369c7 5 16 14 20 23c-7 0 -20 -5 -25 -9
l-6 -14h11zM203 104l15 18l-18 10l-3 -21zM356 351l12 -3l7 10l22 -1c-9 3 -27 8 -37 8zM395 393c5 0 13 -1 19 -4l4 11l-21 4l-7 -4zM381 369l8 8l-10 3c-9 -4 -20 -2 -31 -6zM252 129l6 4l4 21l-9 -4l-7 -15zM268 179c-6 0 -14 1 -18 1l1 -8l7 -6c5 2 7 7 10 13zM188 133
l-4 11l-11 -12l1 -4l10 -6zM269 616l-9 6l-3 -9l1 -11l8 6zM282 263c3 5 5 11 5 16l-7 2l-6 -7l1 -7zM530 461l-6 12l-23 -7c6 -17 16 -17 29 -24v19zM466 383l2 12l-7 7l-9 -4zM274 575l-4 8l-5 -4l-2 -9l6 -5zM340 649v11c-2 -7 -9 -8 -13 -18l4 -4zM159 128l-7 11v-14
l-7 -10l8 2zM206 172v19l-10 -1zM487 488l-9 15l-12 -23l15 -9zM171 146l6 10h-9l-5 -8zM452 406l-6 8c0 -8 0 -11 6 -19v11zM426 347l6 4l-7 7l-4 -10zM174 92l5 8h-5l-7 -5zM356 255l4 8l-8 1zM397 345l4 3l-6 7l-3 -6zM371 328l4 6l-9 -2zM265 219l-3 11l-9 4zM371 304
l4 8l-7 3zM303 597l-4 8l-3 -6zM276 161l-2 5l-5 -5h7zM250 206l1 6l-1 1l-3 -5zM192 155v4l-3 2zM324 307c2 3 3 4 3 7z" />
    <glyph glyph-name="colon" unicode=":" horiz-adv-x="237" 
d="M124 101v-4c0 -15 -19 -73 -28 -97c-3 -6 -4 -9 -15 -9c-20 3 -101 22 -101 34c2 36 28 108 37 108c24 0 90 -13 107 -32zM216 440c0 0 1 -2 1 -4c0 -18 -27 -108 -40 -108c-9 0 -106 22 -106 36c0 36 30 108 38 108c23 0 91 -14 107 -32zM61 99v8h-9v-8
c0 -11 9 -11 9 -11h13s0 11 -13 11zM46 76v22c1 -12 -9 -12 -8 -12c0 12 0 12 -13 12v-22h13h8zM48 62l13 10l-13 11v-21zM31 38c0 0 11 0 11 11l-11 11v-22zM1 49h8s0 11 14 21c-14 -10 -22 -10 -22 -21zM113 431c-13 0 -13 -11 -13 -11h13s9 0 9 11v8h-9v-8zM128 430v-22
h8h13v22c-13 0 -13 0 -13 -12c1 0 -9 0 -8 12zM113 404l13 -10v21zM143 370v22l-11 -11c0 -11 11 -11 11 -11zM165 381h8c0 11 -8 11 -22 21c14 -10 14 -21 14 -21z" />
    <glyph glyph-name="semicolon" unicode=";" horiz-adv-x="237" 
d="M54 -105c-26 0 -62 9 -62 20c3 5 9 34 28 90c-27 5 -40 10 -40 20c1 35 28 108 36 108c1 0 109 -16 109 -36c0 -32 -45 -176 -71 -202zM216 440c0 0 1 -2 1 -4c0 -19 -27 -108 -41 -108s-105 23 -105 36c1 36 29 108 37 108h4c14 -2 94 -17 104 -32zM86 92v8h-8v-8
c0 -12 8 -12 8 -12h14s0 12 -14 12zM71 68v22c1 -11 -9 -11 -8 -11c0 11 0 11 -13 11v-22h13h8zM73 54l14 10l-14 11v-21zM56 30c0 0 12 0 12 11l-12 11v-22zM26 41h8s0 11 14 21c-14 -10 -22 -10 -22 -21zM80 -11l3 3l-3 4l-4 -4c-5 -5 -2 -9 -2 -9l6 -5s5 5 0 11zM63 -15
l9 9c-4 -5 -9 -1 -9 -2c6 6 6 6 0 11l-9 -9l5 -6zM58 -23l10 -1l-1 11zM40 -26c0 0 5 -5 10 0l-1 9zM31 -8l4 -4s4 4 15 4c-11 0 -14 4 -19 0zM160 427v8h-9v-8c0 -11 9 -11 9 -11h13s0 11 -13 11zM145 404v22c1 -12 -9 -12 -8 -12c0 12 0 12 -13 12v-22h13h8zM147 390
l13 10l-13 11v-21zM130 366c0 0 11 0 11 11l-11 11v-22zM100 377h8s0 11 14 21c-14 -10 -22 -10 -22 -21z" />
    <glyph glyph-name="less" unicode="&#x3c;" horiz-adv-x="457" 
d="M171 259l180 -157c14 -12 21 -24 21 -32c0 -18 -94 -59 -112 -59c-16 0 -33 14 -43 23l-206 165c-5 5 -11 9 -11 11c0 11 307 211 378 242c12 5 18 9 26 9c14 0 32 -27 33 -37c-16 -21 -237 -144 -266 -165zM254 135l8 7l-10 6l-13 -1l5 -10zM115 183l8 4l-3 12
c-7 -4 -10 -8 -14 -16h9zM189 181l8 3l-2 7l-10 3l-7 -6zM255 66l11 -2c-5 3 -4 7 -7 9c-4 5 -5 6 -9 8l-3 -5zM133 205l8 4l-11 7l-5 -10zM235 109l11 3l-4 11l-10 -3c-15 -4 -12 -15 -12 -15l5 -17s15 4 10 21zM200 120l28 8c-15 -5 -18 7 -18 7c15 3 15 3 10 20
c0 0 -14 -4 -27 -7l4 -17zM183 113l18 -14l9 21zM146 125c0 0 4 -13 18 -9l10 17s-13 -3 -28 -8zM149 168l4 -10s14 3 31 -10c-17 13 -20 24 -35 20z" />
    <glyph glyph-name="equal" unicode="=" horiz-adv-x="629" 
d="M73 232c7 5 22 9 45 10c145 7 379 9 376 9c24 0 115 -33 115 -43c0 -4 -6 -5 -13 -5l-347 -6c-23 -1 -42 -3 -49 -2c-38 0 -106 28 -127 37zM20 382c18 18 326 17 381 17h24c34 0 130 -30 130 -42c0 -4 -346 -14 -401 -14c-40 0 -126 33 -134 39zM175 367v11h-11v-11
c0 -14 11 -14 11 -14h17s0 14 -17 14zM250 354v28c1 -15 -11 -15 -10 -15c0 15 0 15 -17 15v-28h17h10zM198 354l17 13l-17 14v-27zM257 365c0 0 9 -11 20 -3l3 18zM299 369l9 -6s7 12 29 13c-22 -1 -31 4 -38 -7zM208 352c0 0 3 -4 7 -1l1 7zM318 221v11h-11v-11
c0 -14 11 -14 11 -14h17s0 14 -17 14zM393 208v28c1 -15 -11 -15 -10 -15c0 15 0 15 -17 15v-28h17h10zM341 208l17 13l-17 14v-27zM400 219c0 0 9 -11 20 -3l3 18zM442 223l9 -6s7 12 29 13c-22 -1 -31 4 -38 -7zM351 206c0 0 3 -4 7 -1l1 7z" />
    <glyph glyph-name="greater" unicode="&#x3e;" horiz-adv-x="469" 
d="M271 181c-79 69 -251 202 -251 210c0 3 3 3 8 10c8 8 67 46 109 46c13 0 24 -7 33 -15c38 -33 267 -187 268 -212c3 -14 -263 -170 -330 -209c-13 -8 -25 -14 -31 -14c-16 0 -35 20 -38 35c16 21 208 121 232 149zM247 297l11 3l-3 11l-11 -3c-16 -4 -12 -15 -12 -15
l4 -18s16 4 11 22zM183 359l29 8c-15 -5 -18 7 -18 7c15 3 15 3 10 21c0 0 -15 -5 -28 -8l4 -18zM201 341l19 -13l9 21zM128 364c0 0 4 -14 18 -9l11 17s-14 -3 -29 -8zM131 408l4 -11s14 4 32 -10c-18 14 -21 25 -36 21zM360 262v11h-11v-11c0 -16 11 -16 11 -16h19
s0 16 -19 16zM340 231v29c1 -15 -12 -15 -11 -15c0 15 0 15 -18 15v-29h18h11zM343 211l18 14l-18 15v-29zM320 179c0 0 15 0 15 15l-15 15v-30zM279 194h11s0 15 19 29c-19 -14 -30 -14 -30 -29z" />
    <glyph glyph-name="question" unicode="?" horiz-adv-x="434" 
d="M434 462c0 -131 -148 -142 -218 -268l-13 -23c-6 -11 -13 -14 -22 -14c-41 0 -102 32 -102 47c0 71 116 158 188 223c23 21 35 45 35 71c0 57 -38 104 -50 110c-18 -29 -35 -68 -60 -68c-22 0 -96 19 -96 31c0 58 50 132 122 132c86 0 146 -49 176 -103
c26 -48 38 -96 40 -138zM184 104c0 -9 -22 -111 -39 -111c-15 0 -105 19 -105 35c0 25 23 113 38 113c6 0 100 -14 106 -37zM275 346l12 -4c3 7 10 13 15 18l5 13l-9 8l-12 -6l-1 13c5 5 14 15 14 22l-7 14l-17 -11c0 -9 5 -18 8 -27l-9 -2c6 -13 9 -16 7 -18
c2 -6 -1 -9 -6 -20zM210 296l-7 -8c-1 -7 3 -18 6 -24l7 -3c3 8 3 19 14 25zM324 440l-5 -7l-11 -1c1 -3 11 -17 16 -15c4 0 9 -1 13 1l3 14zM243 337l9 -15c6 5 12 10 15 15l-1 9l-5 3l-6 -8zM310 381l5 -5c4 -2 12 -3 18 -3c-2 4 -6 17 -3 22c-7 -4 -17 -9 -20 -14z
M110 96l-10 -16l18 -3l6 3l-8 6zM358 493l-11 -11l14 2l8 -10l8 5zM322 457l7 -10l9 15c-5 1 -11 -2 -16 -5zM269 320l-11 -6l6 -5l10 4zM376 465h-7l-6 -6l4 -7zM293 341l-3 -6l3 -5l6 5zM109 51l-1 10l-11 -3zM398 494l-4 10l-8 -4zM240 309l-9 3l2 -6zM210 634l10 -4
c-8 15 -8 15 -22 7c5 -10 3 -18 7 -23c1 -3 3 -5 6 -6c-6 16 -6 16 -1 26zM207 651l16 7c-11 3 -8 11 -18 16c-3 -9 -3 -9 2 -23zM190 584l4 13l-9 3s-6 1 -9 1c2 -1 4 -2 5 -4c1 -3 2 -5 4 -8c0 -1 2 -3 5 -5zM159 639l4 8l-10 3zM185 569l5 8l-11 5c-2 -5 -2 -7 -2 -9z
M185 623c0 0 -5 2 -10 -1c-8 -5 8 3 -19 -13l10 -6c3 10 3 13 8 15c3 1 7 3 11 5zM189 633l9 23c-1 -3 -3 -4 -4 -6c-4 -1 -5 3 -7 7c-2 1 -2 2 -2 2c-4 -12 7 -18 4 -26zM168 563l4 7l-9 3s-3 -4 0 -7c0 -1 2 -2 5 -3zM172 578l5 11l-19 7c1 -3 2 -5 4 -8
c5 -9 10 -10 10 -10z" />
    <glyph glyph-name="at" unicode="@" horiz-adv-x="644" 
d="M363 354c5 16 40 12 54 9c13 -3 19 -8 20 -15c-8 -8 -39 -130 -39 -156c8 -16 20 -26 38 -26c60 0 85 97 85 177c0 111 -49 134 -121 134c-177 0 -312 -204 -312 -301c0 -74 58 -150 141 -148c81 2 118 56 136 56c12 0 37 -3 41 -10c0 -2 -1 -4 -2 -5
c-33 -49 -105 -69 -166 -69c-120 0 -218 59 -218 185c0 82 44 155 77 195l22 24c75 74 161 110 241 110c78 0 137 -32 157 -46c24 -17 77 -74 77 -155c0 -99 -59 -191 -170 -191c-60 0 -92 30 -98 71c-46 -28 -68 -46 -100 -46c-27 0 -48 19 -48 53c0 124 118 163 160 163
c16 0 22 -6 25 -9zM231 208c0 -8 2 -21 14 -21c20 0 58 29 91 53c7 24 8 33 19 68c-4 -1 -11 -1 -17 -3c-64 -11 -107 -60 -107 -97zM73 275v-2l-8 -5c3 -1 3 -1 5 -1c-2 -2 -3 -3 -3 -7l5 -1l-2 -5c2 -1 3 -2 5 -2c3 0 5 2 9 2h4l-13 6c0 6 4 8 13 10l-7 3s1 2 1 4
c0 3 -1 6 -4 7zM79 236l-1 -7l-3 -7l4 -4c2 4 3 6 3 9c0 2 -1 4 -3 9zM56 223c2 5 7 6 7 6s-1 0 -3 1l-12 -3zM537 278l-2 -9h2v-2l-1 -2l1 -1l4 -4l-3 -4c0 -1 0 -1 -1 -2l5 -2l-5 -2l5 -11c2 6 4 8 10 13c2 -2 5 -3 8 -3c-2 4 -3 6 -3 8c0 6 5 -2 12 15
c-11 -6 -12 -9 -12 -10v2c-1 0 1 -2 -2 -2c2 1 2 3 5 8h-1c1 0 1 2 3 5l-7 3l10 5l-5 2c2 2 4 2 4 4l-13 5c0 -2 1 -5 3 -6l-10 4l2 4h1v1c0 3 6 4 6 8c0 2 -2 3 -3 3c-2 0 -6 -2 -6 -2c-3 1 -4 2 -5 2c-2 0 -3 -2 -4 -7l4 -2c-2 -1 -2 -3 -3 -5l5 -9l6 -3l-3 -7
c-3 0 -3 3 -7 3zM95 322l-9 -5l-2 -7c11 -3 -2 1 15 -5v2c0 3 -4 7 -4 12v3zM399 279c-4 2 -7 2 -8 2c-2 0 -3 -1 -5 -4l-3 -9l10 -3zM366 258c4 0 10 0 10 5l-6 4c-2 -7 -4 -9 -4 -9zM363 246l-3 -8c2 4 2 6 4 6s5 -1 9 -3l3 8zM380 270v4c0 6 -1 8 -3 8c-1 0 -4 -2 -5 -5
l1 -4l3 -10c5 2 7 3 7 4c0 2 -3 3 -3 3zM383 316l8 -7c-6 -9 -6 -9 -22 -11c2 -2 5 -3 7 -3c7 0 13 5 23 5c0 16 0 16 -16 16zM373 227c13 2 13 2 19 8c-9 7 -13 0 -21 7zM408 327l-9 -8c3 -2 5 -3 7 -3c3 0 5 1 8 1c2 0 4 -1 6 -3c-1 3 -6 7 -6 7zM360 60h10l-6 6zM281 300
c3 -4 5 -5 7 -5c1 0 3 1 6 5l-9 7zM310 355c0 -5 1 -8 1 -11c0 -6 -2 -7 -8 -13l9 -7c0 30 2 13 2 22c0 6 -4 9 -4 9zM373 219l-16 -19c7 7 16 0 25 10h-4c-3 0 -8 0 -8 3c0 1 1 4 3 6zM268 313c2 -2 4 -3 5 -3c4 0 6 3 6 3l-6 6zM278 324l6 -7s-2 2 8 2c2 0 5 0 8 1l-16 13
z" />
    <glyph glyph-name="A" unicode="A" horiz-adv-x="544" 
d="M553 675c28 -11 21 -28 13 -53l-82 -243l-94 -283c-24 -77 -25 -99 -49 -99c-16 2 -116 10 -116 40c0 14 15 59 54 172c-103 -23 -133 -32 -152 -32h-5c-96 -124 -124 -156 -134 -156c-22 0 -58 45 -58 58c0 8 5 16 9 22c29 34 380 496 458 592c12 14 19 23 25 23
c7 0 14 -2 21 -4c6 -2 59 -18 110 -37zM388 527l-210 -276l121 22zM352 153l-8 4l-3 -10c3 -1 6 -2 7 -2c3 0 3 2 4 8zM425 325c-3 -1 -6 -2 -9 -2c-5 0 -10 3 -10 7c0 1 1 1 1 2l-9 4s-2 -5 -8 -5c-1 0 -3 0 -5 1c5 1 6 1 6 2c0 0 -2 0 -6 2c2 2 6 2 11 2l-6 14l-15 -8
c3 -3 5 -6 5 -6c-1 -2 -1 -4 -1 -6c0 -5 4 -9 12 -9c4 0 8 1 14 2c4 -3 9 -5 13 -5s6 2 7 5zM405 304c0 0 2 -1 5 -1s6 1 9 4l-10 5s1 1 1 5c0 2 -1 5 -5 8c-3 -6 -4 -10 -4 -13c0 -8 4 -8 4 -8zM467 493v-2l-9 -6c4 -1 4 -1 6 -1c-2 -3 -4 -5 -4 -9l6 -2l-2 -5
c2 -1 3 -2 5 -2c4 0 7 3 11 3c1 0 3 0 5 -1l-16 7c0 8 5 9 16 11l-8 5s1 3 1 5c0 3 -1 6 -5 8zM364 223c-2 -3 -5 -5 -8 -5s-5 2 -5 2l5 -13zM328 166l15 6l-10 3zM407 346l-9 4c-2 -3 -3 -5 -3 -5c0 -1 0 -1 1 -1c2 0 5 1 11 2zM378 258c-4 -8 -6 -11 -6 -14
c0 -1 1 -1 2 -1s5 1 10 4zM398 289l11 -3c-3 6 -5 9 -6 9c-3 0 -15 -15 -18 -20c6 3 13 5 13 14zM374 288h6h4l-28 12c-2 -6 -4 -9 -4 -11s3 -3 8 -5c-17 -31 -25 -10 -25 -22c0 -2 2 -3 8 -6l1 6h2c5 0 10 6 10 8l2 -2l-3 -7h1c0 -3 -1 -3 -4 -5l10 -4c1 -1 1 9 8 9l2 5
c1 -1 2 -1 4 -1c7 0 14 5 14 5c-17 8 -5 10 -16 18zM310 193c-2 -2 -3 -4 -3 -5c0 -3 3 -3 8 -6c0 0 2 8 15 16c-1 0 -2 1 -2 1c-6 0 -10 -6 -15 -6h-3zM510 600l-1 -9l-4 -9l5 -3c2 4 4 7 4 10c0 2 -2 6 -4 11zM355 348c1 -12 1 -17 7 -29c2 4 2 6 2 8c2 -1 3 -1 4 -1
c2 0 2 2 6 6l-10 3c-2 3 -4 6 -4 11l2 -2l2 2s1 -1 1 -2l-1 -1c3 1 9 3 11 9c1 -1 3 -1 4 -1c4 0 4 4 7 4c2 0 3 0 5 -1v2c2 -2 2 -6 7 -6l3 9l-8 5l3 8c-4 -1 -6 -2 -7 -2c-2 0 -2 1 -2 2c14 10 33 6 39 26c-9 2 -17 5 -17 5s-1 -2 -1 -4c0 -1 0 -2 1 -4l-8 4
c5 12 7 16 11 16c0 0 2 0 5 -2c5 2 6 2 6 3c0 5 -8 6 -20 11c1 1 1 2 1 2c0 2 -2 2 -4 2s-7 -1 -7 -1c-5 -15 -7 -15 -6 -15l-7 1c-21 -6 -14 -4 -14 -8c0 -5 4 -9 4 -13v-4l2 -2l-12 -7l6 -2l-2 -8c20 3 11 -5 18 14c2 0 3 -3 5 -3c-4 -3 -5 -5 -5 -8c0 -1 0 -2 2 -7l-4 -9
h-2v0l-14 -7c-4 2 -6 3 -7 3s-5 -3 -5 -7h3zM483 584c2 6 8 7 8 8c0 0 -1 0 -4 1l-14 -4zM414 457c-1 0 -2 -1 -2 -3c-5 0 -7 0 -11 2c-2 4 4 -10 -11 -10l8 -4c6 0 11 10 19 10c2 0 4 -1 6 -2h3v-2l-1 -2l1 -2c3 -2 3 -2 4 -4l-18 8c4 -10 15 -9 15 -13c0 -1 0 -2 -1 -3
l6 -2l-6 -1l6 -14c3 8 5 9 12 15c2 -1 6 -3 10 -3c-2 4 -4 7 -4 10c0 6 5 -3 14 17c-13 -7 -14 -11 -14 -12v2c-1 1 2 -2 -3 -2c3 1 3 4 7 10h-1c1 0 1 2 2 5l-7 5l12 6l-6 2c1 1 4 1 4 5l-16 6c0 -3 2 -6 4 -8l-11 5l2 6l1 -1v1c0 3 7 5 7 10c0 2 -2 3 -4 3s-6 -2 -6 -2
c-4 1 -5 2 -7 2s-3 -2 -5 -8l6 -3c-3 -1 -3 -2 -4 -5l5 -11l8 -4l-3 -9c-5 0 -5 4 -9 4s-8 -1 -12 -4l3 3zM505 540l-12 -6l-1 -8c12 -4 -3 0 17 -6v2c0 4 -5 8 -5 14c0 1 0 3 1 4zM505 561c-5 2 -9 3 -10 3c-2 0 -3 -2 -6 -7l-4 -9l12 -5zM466 536c3 0 11 0 11 6l-8 4
c-2 -8 -3 -10 -3 -10zM456 567l-3 -9c1 6 2 8 5 8c2 0 5 -1 10 -4l4 10zM481 549v6c0 7 0 10 -3 10c-1 0 -4 -3 -6 -7l1 -5l4 -11c6 1 8 3 8 4c0 3 -4 3 -4 3zM311 108c-4 1 -4 5 -4 8v4l-6 -18c2 5 3 7 6 7c1 0 3 0 4 -1zM325 163c-8 -2 -11 -3 -14 -3c-1 0 -4 0 -8 1
l7 -12s2 6 8 6c1 0 3 0 5 -1zM298 164l-4 -10l7 -3c2 4 2 6 2 8s-1 3 -5 5zM311 130c3 -2 5 -3 6 -3c2 0 3 3 6 9h-3c-6 0 -9 -6 -9 -6zM323 136c-1 -2 -1 -3 -1 -4c0 -6 12 -2 19 -5c-5 8 -11 9 -14 9h-4zM216 440l11 -8c-8 -11 -8 -11 -27 -14c2 -2 6 -3 8 -3
c8 0 16 6 30 6c0 19 0 19 -22 19zM257 443c17 3 17 3 25 11c-11 9 -17 0 -27 9zM197 393l-11 -10c4 -3 6 -4 9 -4c4 0 6 1 10 1c3 0 5 -1 8 -4c-2 4 -8 9 -8 9zM117 223h13l-8 8zM174 368c4 -4 6 -6 9 -6c1 0 3 2 8 6l-12 9zM230 400c1 -7 2 -11 2 -15c0 -7 -3 -9 -11 -17
l11 -7c0 37 3 15 3 27c0 7 -5 12 -5 12zM257 432l-19 -23c8 9 19 0 31 12h-5c-4 0 -10 0 -10 4c0 2 1 5 3 7zM176 346c3 -2 6 -4 8 -4c4 0 7 4 7 4l-8 8zM190 360c0 0 5 -6 18 -6c2 0 6 0 9 1l-19 16z" />
    <glyph glyph-name="B" unicode="B" horiz-adv-x="588" 
d="M106 -12c-23 0 -126 21 -126 48c0 7 3 13 7 23l221 626c6 19 10 27 19 27c140 0 371 -91 371 -209c0 -17 -7 -26 -18 -37c-10 -9 -162 -88 -238 -127l72 -29c58 -25 111 -91 111 -134c0 -19 -7 -31 -21 -38c-8 -4 -262 -113 -347 -139c-18 -6 -38 -11 -51 -11zM408 216
c-13 17 -119 53 -177 80l-63 -176c105 35 237 84 240 96zM483 544c-12 19 -79 46 -145 63l-59 -171c85 40 202 99 204 108zM170 269l3 7l-8 2l-9 -3c0 -2 3 -3 14 -6zM71 210l11 -3l1 7c-2 1 -4 1 -5 1c-6 0 -7 -5 -7 -5zM155 281l10 -3l-7 12zM179 534l-4 -7l7 -1v2
c0 2 0 5 -3 6zM169 290c4 -2 6 -2 8 -2s3 1 4 4l-11 3zM83 243c3 -4 5 -5 6 -5c3 0 4 2 4 2c2 -1 4 -1 5 -1c2 0 2 1 4 7c-5 -4 -8 -5 -10 -5c-3 0 -5 1 -9 2zM129 276l7 -1l2 6l-7 2zM129 302l-12 3h-1s7 5 11 9c0 0 -1 1 -3 1c-1 0 -1 0 -2 -1v5l-12 -12c-8 1 -12 1 -17 1
c-4 0 -7 -1 -7 -2s6 -4 8 -8l4 -1l-6 -13h3c4 0 7 3 7 5l4 -5l4 8c2 0 7 -3 12 -3c0 4 -3 4 -5 8zM134 317c-5 -13 -5 -12 -5 -12c1 0 0 -3 2 -3s4 2 10 3c0 0 -8 1 -8 8c0 1 0 3 1 4zM163 348l-8 2c6 -9 16 -6 15 -10l3 5v1c1 -1 2 -2 3 -2c0 0 0 1 1 1l-2 -5l18 -6
c1 10 3 12 5 14h-1l1 5l-16 5l-1 -1l-4 1v-1h-2v1c4 2 4 2 6 2c1 -1 1 -1 3 -1c14 0 15 9 15 9l-1 1c-1 0 -3 2 -6 2c0 0 -2 0 -2 -1c0 0 -3 2 -4 2l1 9h-4c-2 0 -3 -1 -4 -4c1 3 1 4 1 5c0 3 -1 5 -5 11c0 -4 -1 -5 -2 -7c-8 11 -11 11 -11 23l-6 1s-2 -9 -11 -8
c0 0 2 -1 10 -2l-5 -14l11 -4v-1c-11 0 -13 -5 -13 -5s-1 0 -2 1c2 0 2 3 2 3l-7 2v-5c-2 -1 -2 -1 -4 -1c-1 0 -2 0 -3 1c2 4 4 8 4 11l-5 4c-2 -4 -3 -8 -3 -12s1 -6 4 -8l-1 -4c-2 -3 -2 -3 -2 -4l10 -4l2 5c1 -1 2 -1 2 -1c3 0 7 4 11 4v0c0 -6 -4 -4 -4 -9
c0 0 1 0 2 -1l2 1c3 0 0 -3 5 -3c0 0 1 0 1 1v5c0 -1 1 -1 2 -1c2 0 4 2 5 3zM141 331c5 -10 5 -10 14 -12c0 9 -6 8 -14 12zM185 491c-2 1 -4 2 -6 2c-4 0 -8 -2 -12 -6l8 -3l10 -2c5 -1 7 -1 7 -3s-1 -4 -2 -7c0 0 4 3 4 6c0 2 -1 3 -1 4c0 3 -5 16 -8 16
c-1 0 -1 -1 -1 -2c0 -2 1 -3 1 -5zM92 284l-6 11l-1 -8zM165 328c0 0 4 7 8 7h1c0 1 -3 1 -5 3zM275 549l12 6l-17 5v-3c0 -6 5 -8 5 -8zM153 345c-8 1 -8 1 -13 10c-2 -5 -2 -5 -13 -12c3 2 5 3 6 3c6 0 9 -3 13 -3c2 0 5 0 7 2zM126 334l1 9l-8 3s-2 0 -5 -1l1 1l-1 1
c-1 0 -4 0 -5 1l-4 -7l4 -1l-2 -7c1 3 2 5 4 5c3 0 7 -1 15 -4zM110 321l-3 12l-9 3s6 -12 12 -15zM207 493l-4 -9c1 -1 1 -1 2 -1c6 0 9 8 9 8l1 7v3v1c-2 0 -4 0 -6 -3c2 9 2 9 11 15c-5 2 -5 6 -12 6c-1 0 -3 -1 -6 -9l9 -3c-5 -2 -7 -6 -7 -9s3 -6 3 -6zM174 424
c-5 -4 -7 -6 -7 -8s2 -6 3 -10l3 8c0 1 1 3 1 3c1 0 3 -2 5 -2h-1s5 4 5 7s-5 5 -7 5s-2 -1 -2 -3zM145 267l-11 4s-4 -4 -4 -7c0 -1 1 -1 3 -1l8 -4l7 -2s1 2 1 5c0 1 -1 5 -4 5zM179 405l7 -2l4 7h-4c-4 0 -9 0 -16 -4l-3 -6zM104 200c-11 0 -13 10 -14 10v-1
c0 -7 3 -14 3 -14zM236 505l-2 -2l-3 -7c1 0 7 -1 10 6c2 -1 3 -2 5 -2c3 0 6 1 9 3l-7 2s-3 0 -4 3h-3c-3 2 -5 2 -9 2c2 -2 2 -4 4 -5zM188 412c48 0 37 10 41 16h-41c-5 0 -6 0 -6 -1s6 -5 6 -15zM554 537v9h-9v-9c0 -13 9 -13 9 -13h15s0 13 -15 13zM538 512v24
c1 -13 -10 -13 -10 -13c0 13 0 13 -13 13v-24h13h10zM540 496l15 11l-15 13v-24zM522 470c0 0 12 0 12 12l-12 12v-24zM498 563v-10h14v10h-14zM488 482h10s0 12 14 23c-14 -11 -24 -11 -24 -23zM138 437c0 -19 -21 -19 -21 -42c21 0 21 23 42 23c-21 0 -21 19 -21 19z
M144 450c16 0 16 0 16 -19c19 19 19 19 40 19v19h-21c-19 0 -19 -19 -35 -19zM221 398c0 -5 -1 -9 -1 -11c0 -6 2 -6 16 -6c0 6 -1 10 -1 12c0 11 2 14 2 14c-1 0 -4 -4 -16 -9zM210 450c-16 0 -16 -16 -16 -16s42 0 42 16h16l-42 23v-23z" />
    <glyph glyph-name="C" unicode="C" horiz-adv-x="547" 
d="M587 625c-3 -15 -22 -188 -45 -188c-21 -3 -112 36 -112 66c0 2 2 18 9 56c-148 -59 -260 -251 -260 -389c0 -45 6 -74 30 -105h5c26 0 84 19 117 19c16 0 95 -11 98 -31c-1 -6 -4 -11 -11 -17c-15 -12 -128 -33 -190 -33c-154 0 -188 143 -188 235
c0 224 240 393 341 444c33 16 67 27 92 27c1 0 3 0 7 -2c21 -6 102 -41 107 -82zM273 490c-4 5 -10 10 -16 10c-2 0 -5 0 -7 -2h8v-8c4 -4 5 -7 7 -7s4 3 8 7zM219 534c0 0 -7 0 -7 7v-7c-16 0 -2 -9 -15 -9h6h16l8 9h-8zM243 502h-31c0 -8 7 -8 7 -8c4 5 8 6 12 6
c5 0 1 -9 10 -9c1 0 2 2 2 3h7c-7 0 -7 8 -7 8zM287 541v7h-7v-7h-8l8 -10c0 10 7 10 7 10zM201 494c0 0 7 -9 14 -9c-7 9 -7 9 -7 16zM335 524v8h-8v-8s-6 0 -6 8v-15c6 0 6 7 14 7zM185 510c6 0 6 0 6 -9h10c-10 9 -10 9 -10 17h-6v-8zM327 509v8h-6c0 -8 6 -8 6 -8z
M308 557c-8 0 -8 -7 -8 -7h8c8 0 8 0 8 7c-2 -2 -6 -3 -6 -3c-2 0 -2 3 -2 3zM332 543v7c-9 0 -9 0 -9 -7h9zM250 511c0 18 -19 17 -23 17c7 -8 7 -8 7 -17h-7c7 -6 15 -6 15 -6c0 6 8 0 8 6zM259 551l-8 8c-8 0 -8 0 -16 -8c0 0 8 0 8 -8h8c8 0 15 0 24 8h-16zM316 496v9
s-8 -9 -16 -9c3 -2 4 -3 5 -3c4 0 5 3 11 3zM316 535h-8h-23v-16c12 12 18 3 31 16zM180 494h-6h-7v-15c7 0 13 8 13 15zM140 392v-2c-2 -3 -5 -3 -5 -4v4v0c0 -1 1 -1 1 -1v1v2s0 1 1 3l2 8h-9v2v-2c-2 0 -3 1 -6 2l2 3h2v3c1 2 2 4 4 4c-2 0 -3 -1 -4 -2v4
c-1 -4 -5 -9 -10 -9v-2l-1 -2h5l1 -4c-3 -1 -3 -2 -3 -3c0 -2 0 -4 3 -5h-1c-4 0 -7 0 -7 1s1 2 3 3c-7 0 -7 -4 -7 -4l7 -6l5 6c0 -1 0 -2 1 -2h3c-3 -3 -4 -5 -4 -8c2 0 4 1 6 3c0 -1 0 -2 1 -3l-6 -4c0 1 0 1 -1 1c-9 0 -9 -3 -9 -13h25l-2 -2h2h2s-2 -2 -2 -5
c5 0 11 0 11 5h5c0 -4 1 -5 5 -10c-5 0 -5 0 -5 -4c0 0 4 3 8 4v-3h3v-23c2 12 14 12 14 12l-2 6v2c0 2 3 2 4 3h-4l6 6h-6c-3 -4 -4 -5 -5 -6c0 1 -2 2 -3 2l4 3h-11v-2h-3c6 6 6 12 6 12c-2 2 -3 3 -4 3c-2 0 -3 -3 -6 -3v1c6 1 10 4 10 11c12 0 27 -12 27 -12
c3 0 6 1 21 12c-7 0 -11 1 -14 4c3 1 6 4 10 4v10c-5 -3 -8 -8 -13 -11c-1 2 -2 3 -4 7c-15 0 -25 -13 -37 -14v9l-3 -5c-1 8 -1 10 -10 10v2l-1 -2h-2zM206 457l25 -8v8h9c6 0 6 8 6 15h10l-10 7c0 -3 0 -4 -1 -4c0 0 -2 1 -5 4c-15 0 -10 -14 -24 -14c0 7 0 7 -7 7h-7
l-17 -15h-23s-4 3 -4 6c0 1 1 1 3 2c-7 0 -13 0 -13 7c-9 -7 -9 -7 -9 -15h16v-16h30c0 -7 0 -7 7 -7c0 0 10 0 10 7zM209 448l-8 -22s-7 0 -7 -10h7c8 0 14 0 14 -6v-7h10c6 0 6 -8 6 -8s10 0 10 8h-10s-3 2 -3 6c0 -2 10 17 13 17v14c-1 -8 -10 -8 -10 -8
c0 12 -22 9 -16 16h-6zM188 291v9h-9v7c-6 0 -14 0 -14 -7c0 7 -8 7 -8 7l-16 -16v-7c8 0 20 17 24 16c8 0 8 -9 14 -9v6c1 -6 9 -6 9 -6zM161 280c-15 0 -15 -17 -32 -18h17zM125 363c0 10 -18 23 -27 24c9 -5 20 -24 27 -24zM137 239c-10 0 -10 -9 -10 -9h16s0 9 -6 9z
M154 334v-15l7 7s0 8 -7 8zM141 319c0 0 -7 0 -8 9v-9h-2v-9h7c-2 4 -3 4 -3 5zM258 454c-8 0 -8 0 -8 -7h8v7zM173 223c-6 0 -8 4 -8 6v-6c8 0 8 -8 8 -8l6 8h-6zM158 269c7 -7 7 -7 16 -7l-9 7h-7z" />
    <glyph glyph-name="D" unicode="D" horiz-adv-x="648" 
d="M675 484c-17 -207 -495 -491 -583 -494c-48 -2 -112 13 -112 46c0 3 1 5 5 19c58 186 159 433 220 601c10 28 22 44 39 44c7 0 14 -1 24 -1h13c12 4 51 6 89 6c190 0 308 -62 308 -186c0 -11 -2 -23 -3 -35zM343 610c-2 -10 -7 -24 -11 -35l-153 -426
c46 23 100 63 154 108c82 68 183 154 224 245c11 20 18 37 18 49c0 51 -102 61 -168 61c-21 0 -43 -1 -64 -2zM124 312c-6 -5 -11 -6 -16 -6h-9c-4 0 -8 0 -12 -3l21 -23v-6c0 -5 1 -12 5 -12c3 0 5 1 8 4c-1 6 -1 10 -1 14c0 9 3 13 13 21zM140 280l13 12l-11 13
s-8 -6 -8 -13c0 -4 2 -8 6 -12zM170 440c0 0 -9 3 -15 3h-3c7 -2 10 -4 13 -4c2 0 3 0 5 1zM181 431c0 0 1 3 1 6c0 1 0 2 -1 2c-1 -1 -2 -2 -5 -2c-2 0 -4 0 -8 1c5 -7 10 -2 13 -7zM176 457c10 2 10 2 13 6c-7 0 -7 0 -11 6c3 -4 3 -5 3 -6c0 -2 -1 -3 -5 -6zM181 528
c-3 -22 -3 -22 -13 -32c1 3 4 3 6 3c9 0 18 -9 18 -9c-6 6 -7 12 -7 18v9c0 3 0 8 -4 11zM174 481l4 -5l3 -5s1 10 -5 10h-2zM256 484c-1 -2 -2 -2 -4 -2c-3 0 -3 2 -3 2c1 -2 4 -4 5 -4s2 1 2 4zM200 470c2 3 3 5 5 5c1 0 1 -2 5 -4l8 7l-7 8c-6 -14 -8 -3 -11 -16z
M219 483l1 -10l4 4zM58 194l10 -11c6 7 11 11 14 11c4 0 7 -3 13 -9l-22 22zM178 295l26 23l-10 11c0 -20 -16 -34 -16 -34zM142 444c4 5 10 8 14 11c-1 0 -1 0 -1 1zM259 558l-13 -11l12 -12c4 3 5 7 5 12c0 3 -1 7 -4 11zM138 410c0 0 8 7 8 15c0 2 0 5 -2 7
c-15 -11 -15 -11 -17 -32zM156 455c7 -10 9 -10 33 -12c-8 8 -13 15 -21 15c-4 0 -7 -2 -12 -3zM223 418l-4 -4l5 -4s0 2 3 2c1 0 2 -1 4 -2l-4 3zM181 429c-1 -1 -1 -2 -1 -3c0 -4 4 -9 9 -9c-2 2 -4 5 -4 9c0 1 0 3 2 4l-2 1c-3 0 -4 -2 -4 -2zM237 460l10 9
c-2 2 -4 4 -6 4c1 0 -5 -4 -5 -9c0 -1 1 -2 1 -4zM232 486c0 0 3 -4 11 -4c-1 0 -2 1 -2 2c0 3 4 5 4 5h-10zM239 452c0 0 -5 5 -7 10c-1 -3 -1 -5 -1 -6c0 -2 1 -3 8 -4zM214 402l5 -5c1 2 2 3 2 3c0 3 -2 5 -2 5zM259 480l-3 -4l6 -8l5 3zM216 410c-9 11 0 16 -16 20
l-3 -18c5 4 8 6 9 6c4 0 6 -2 10 -8zM268 519l4 -5l1 8zM266 522l-4 -5l4 -4v9zM214 439c-2 0 -2 -1 -2 -2c0 -3 3 -7 3 -7l3 -4c1 3 2 4 2 5c0 3 -5 1 -6 8zM133 268l6 6l-3 5c1 -2 1 -3 1 -4c0 -4 -4 -7 -4 -7zM108 240l-9 9c-2 -3 -4 -4 -4 -4v1v3s0 15 -16 15
c-5 0 -6 10 -6 -24c2 3 5 3 8 3c6 0 12 -6 18 -12zM176 318c-3 5 -4 7 -7 7c-1 0 -4 -2 -10 -7c3 -2 3 -4 3 -4c0 -1 -6 1 -13 -5l6 -9l10 -10l-10 -10s3 -5 8 -5c4 0 6 2 10 5l3 19v19zM118 324c5 -6 12 -14 20 -14c4 0 6 1 9 4c-8 8 -14 14 -20 14c-3 0 -6 -1 -9 -4z
M171 408l-11 -9l-20 1l18 -19l-9 -7c4 -6 8 -7 12 -7s7 3 7 3v17c0 6 0 10 3 21zM162 323l22 21s-16 17 -59 20c20 -24 37 -41 37 -41zM123 384l-11 -10l9 -10s5 4 5 10c0 4 -1 7 -3 10zM186 476l6 6l-4 4c-3 -4 -5 -4 -5 -6c0 -1 2 -2 3 -4zM563 485l14 2l8 9
c-8 -9 -15 -4 -22 -11zM577 487l8 -6c-6 -9 -6 -9 -22 -12c3 -1 5 -2 8 -2c6 0 13 5 23 5c0 15 0 15 -17 15zM610 490c13 2 13 2 20 8c-9 7 -14 0 -22 7zM561 449l-8 -8c2 -3 5 -3 6 -3h9c2 0 4 0 6 -2l-6 6zM542 430c4 -5 5 -6 8 -6c1 0 3 1 6 6l-9 6zM588 455
c1 -6 1 -9 1 -13c0 -5 -2 -6 -9 -12l10 -7c0 30 2 13 2 22c0 6 -4 10 -4 10zM610 481l-16 -19c7 7 16 0 25 10h-3c-4 0 -9 0 -9 3c0 2 1 4 3 6zM545 411c2 -2 4 -3 5 -3c4 0 6 3 6 3l-6 6zM555 422c0 0 4 -5 15 -5c2 0 5 0 8 1l-16 13zM247 427l1 18c-5 -1 -7 -1 -11 -1
c-5 0 -6 2 -12 8h1c-12 13 -12 13 -34 17l23 -26h1c0 -4 2 -5 3 -5c4 0 9 3 13 3c3 0 5 -1 8 -4z" />
    <glyph glyph-name="E" unicode="E" 
d="M490 332c-29 -5 -191 -37 -261 -51l-26 -5l-52 -185c20 2 132 25 195 42c12 3 22 5 24 5c25 0 78 -40 85 -56c-7 -1 -236 -65 -318 -75l-24 -3c-4 -1 -8 -1 -13 -1c-71 0 -120 23 -120 35c1 14 170 550 183 594c2 4 3 9 4 12c0 15 20 19 34 21c81 11 245 29 287 35
c12 2 20 3 23 3c14 0 64 -57 64 -60c0 -13 -59 -10 -270 -30l-8 -23c-22 -62 -47 -157 -76 -251c83 14 192 48 211 48c8 0 58 -41 58 -55zM200 389c-1 1 -3 1 -5 1c-6 0 -14 -4 -18 -4c-1 0 -2 0 -2 2c0 1 1 2 2 3c-5 1 -8 2 -8 2c-2 -5 -3 -9 -8 -11l-2 -5
c-4 -2 -7 -3 -11 -3s-8 1 -8 1l-9 -26c-5 7 -16 22 -20 23v-3c0 -9 10 -21 18 -27v-4l3 4c30 22 61 21 61 32c0 2 -1 4 -4 8c3 0 5 -3 6 -3c2 0 5 1 6 3zM133 240l5 -2l8 -2l4 14h3c5 0 7 6 7 6c-1 2 -2 4 -2 5c0 3 4 4 6 9h3c1 0 4 0 5 3c-3 1 -4 4 -5 4c0 0 -1 0 -1 -1
c-6 1 -6 2 -6 4v4c-1 -4 -4 -5 -6 -5c-1 0 -2 1 -2 1c-3 -6 -17 -1 -19 -8l-2 -8h-2c-4 0 -6 -3 -10 -3h-4l-2 -6l13 -5s1 5 8 5h3l11 -4c-6 0 -14 -3 -15 -11zM161 392l6 26l-14 -4l9 34c-2 -11 -10 -12 -15 -12h-6s-1 -3 -1 -6v-2c-6 -6 -4 -7 -9 -7l6 -1l-11 -5l8 -2
c3 1 5 3 6 3s1 -1 1 -1l-2 -2l15 -4v1c-6 -7 -7 -15 -7 -15c1 -3 3 -4 5 -4s3 1 6 1h3zM189 333l2 16h-2c3 2 5 6 6 8c-1 0 -2 1 -4 1c-1 0 -2 -1 -3 -1c0 4 -4 4 -5 4c-2 0 -3 -1 -5 -6l-1 -4c0 2 -2 4 -4 4s-6 -18 -6 -17l7 -2c8 -4 8 -4 12 -10l-7 1l-4 -13c2 6 9 9 14 9
h4l-4 8v2zM278 309l18 6l-39 13l-9 -28c11 8 15 12 19 12c3 0 6 -2 11 -3zM89 245c-1 -1 -1 -1 -1 -2c0 -5 3 -6 3 -11v-2l15 -5c-4 6 -4 8 -4 11v5l8 -2c-4 5 -9 10 -11 10c11 -2 20 -6 20 -5v2c0 5 -5 6 -5 6c-3 -2 -7 -2 -9 -2c-3 0 -5 1 -5 4v3s-3 4 -4 4
c-2 0 -3 0 -3 -2l-6 2c3 -1 3 -4 3 -5v-4l7 -2c-1 -2 -1 -3 -2 -3c-2 0 -3 1 -5 1c0 0 -1 0 -1 -3zM193 428l-3 -7v1c0 7 -6 8 -6 8l-2 -8l8 -3l-1 -6c3 -1 6 -2 8 -2c4 0 4 1 6 3c0 -5 5 -7 6 -7l9 3l11 7l1 6s-2 1 -3 1c-4 0 -6 -5 -6 -5h-3c-6 0 -14 -4 -14 -4
c-7 3 -4 10 -11 13zM204 299l5 -8c3 -2 5 -3 6 -3c3 0 4 2 10 4c-1 0 -5 2 -5 7c0 1 0 2 1 3l-7 2c-5 2 -9 3 -13 3s-7 0 -12 -3zM183 428v6c0 13 -12 16 -12 16c-2 -7 -4 -10 -4 -13c0 -5 4 -6 16 -9zM308 647c0 0 -2 -8 -4 -14c9 4 20 10 26 14c0 1 -2 1 -4 1
c-3 0 -8 -2 -14 -2c0 0 -2 1 -4 1zM112 230l7 -3s5 -1 5 -7l1 6l8 -3s2 5 7 5h2l-6 3l-15 4zM105 279c3 -8 7 -16 14 -16l4 2l-7 2l3 6c-3 6 -5 8 -7 8c-1 0 -4 0 -7 -2zM157 233l-2 -6l5 -2h-2c-4 0 -5 -4 -10 -4h-2l-3 -6l8 -3l2 7s4 -2 4 -7l3 13c1 1 1 2 1 3
c0 4 -4 5 -4 5zM162 471l10 -3c6 -2 8 -2 8 -5c0 -2 -1 -4 -2 -8l13 6c-8 2 -10 5 -10 7c0 3 5 5 11 9c-10 -3 -20 0 -30 -6zM197 337h4c5 0 7 3 7 3l-7 12l-8 -6l5 -3c3 0 4 -1 4 -3c0 0 -1 -2 -5 -3zM197 360l7 3c-1 -2 -1 -3 -1 -3h5h3l-5 8c0 1 1 1 1 2l-1 -1v2l-10 -5
l-1 -7zM245 314l-10 3c-6 -5 -11 -11 -16 -12c7 0 15 4 26 9zM204 381l4 14l-9 -4s-1 -1 -1 -3c0 -4 2 -6 6 -7zM206 442l1 8s-4 1 -4 6c0 0 0 2 1 3l-10 -5c7 -2 7 -2 12 -12zM166 252l-2 -8s5 4 11 4c2 0 3 0 6 -1c-3 4 -4 5 -6 5s-4 -1 -5 -1s-3 0 -4 1zM283 634l-6 -2
s3 -1 3 -7v-2l4 9h1l3 6l-6 2c1 -2 1 -3 1 -4v-2zM258 633l-9 2c2 -4 5 -4 6 -4h7z" />
    <glyph glyph-name="F" unicode="F" horiz-adv-x="497" 
d="M490 333c-32 -5 -231 -44 -291 -56c-54 -171 -70 -274 -100 -274c-60 0 -119 13 -119 38c0 3 0 5 4 18c11 40 160 506 188 581c7 19 26 27 46 32c51 12 257 34 283 40c5 1 8 1 10 1c11 0 38 -28 48 -38c9 -10 18 -20 18 -23c0 -7 -2 -8 -14 -9h-3
c-22 -2 -164 -15 -253 -26c-2 -7 -4 -13 -5 -20l-83 -256c130 27 186 43 205 47c4 0 79 -43 66 -55zM158 421c-5 0 -10 2 -13 5h-11l-9 12l-2 -2c-1 -3 -2 -7 -2 -10c0 -6 2 -13 4 -18l7 5c9 0 19 -2 27 -5c0 -6 -2 -15 -6 -18l-9 3l-3 10l-7 -3c-3 -7 0 -17 -3 -23l-8 -3
l5 -21l-23 9l3 -11l16 -8l-3 -10c10 -3 12 -10 12 -18c0 -6 -1 -13 -1 -19l9 1l4 5l6 -4c8 2 15 5 17 13l-9 4v10l6 3l12 -11l5 3c-10 7 -16 11 -16 21c0 3 1 6 2 9l-17 20l8 -23l-6 -9l-11 32l9 15c6 -2 15 -5 19 -10l-10 17c14 1 23 24 35 31l6 15l-6 7v21l-13 -2l-2 -9
l-3 2v-10c10 -8 8 -14 11 -26l-7 2l-7 -12l-11 3zM145 291c-4 -5 -10 -14 -10 -22c0 -6 7 -5 14 -9l2 -9l13 -2l4 11l-9 4v21zM111 296l10 -11h11c-1 9 -1 21 -4 29l-9 -3zM141 325c0 5 7 11 12 11l-2 -11c4 -4 6 -11 6 -16l-12 -5c0 6 0 16 -4 21zM98 211
c-4 -8 -7 -19 -7 -26c5 3 13 11 17 16l-2 13zM182 504l-5 -21h18l-6 17zM151 251l-13 -2v-10l-19 -7c11 0 23 4 32 7v12zM135 203c-5 -2 -12 -3 -17 -3v-10l18 4l2 6zM136 228l-4 -9l10 1c6 7 16 8 23 16zM153 466l-5 -7l5 -15l7 5v15zM158 421c5 2 10 4 16 6l-6 6l-8 3
c-2 -3 -3 -8 -3 -11c0 -2 1 -2 1 -4zM206 486l6 -6l5 13l-4 4h-9zM177 349c0 -5 0 -11 1 -16l7 3l3 7l-4 4zM75 185l2 -11l8 -1l6 6zM74 120l6 -3l7 7c-6 4 -10 4 -17 4zM227 500l8 -4l-5 10l2 11l-5 -6v-11zM204 449l8 -16l7 5zM96 117l6 -4v11h-8zM223 483l-2 -10l8 2l1 8
h-7zM93 230l-2 -6l7 -3v9h-5zM201 525l-1 -10l4 2l4 8h-7zM94 172l6 -4c-1 6 -5 10 -9 13zM115 328v-8l6 3zM116 241l-3 -4l8 -3v5zM174 390l8 -7h7zM129 264v-7l7 5zM121 283v-8h6zM144 433l4 -3l1 6zM183 406v-6h2v6h-2zM210 468v-4h4zM160 298c-1 -1 -2 -2 -2 -3
s1 -2 1 -4z" />
    <glyph glyph-name="G" unicode="G" horiz-adv-x="579" 
d="M589 623c0 -25 -20 -188 -44 -188c-5 0 -7 2 -20 6c-33 10 -93 43 -93 61c0 17 6 36 9 55c-150 -61 -261 -253 -261 -389c0 -41 -7 -89 32 -107c30 -14 98 31 94 32l24 92c-8 -1 -17 -5 -23 -4c-42 15 -59 33 -61 37c0 8 189 54 240 67l20 5c5 0 8 -4 12 -10
c4 -4 31 -36 31 -43s-42 -13 -83 -21c-1 -55 -38 -220 -61 -220c-4 0 -23 9 -54 25c-40 -13 -78 -21 -109 -21c-170 0 -202 142 -202 235c0 248 257 392 346 439c40 21 80 33 90 33c3 0 113 -39 113 -84zM150 409c-5 0 -10 3 -14 5h-12l-9 13l-2 -2c-2 -11 -1 -22 2 -30l8 4
c9 0 19 -1 29 -4c0 -7 -3 -15 -7 -20l-10 5l-3 9l-8 -2c-2 -7 0 -17 -2 -26l-9 -2l5 -22l-24 9l3 -12l16 -8l-1 -12c18 -5 11 -22 11 -38h9l4 5l6 -3c10 2 17 5 20 14l-10 5v9l6 4l13 -13l5 4c-13 9 -21 15 -16 32l-16 21l8 -25l-7 -9l-11 34l8 16c7 0 17 -5 21 -10l-10 18
c14 2 24 25 37 34l7 15l-7 8v22l-14 -1l-3 -11l-2 2v-10c10 -9 9 -15 11 -28l-8 3l-7 -14l-12 3zM136 270c-2 -5 -6 -10 -9 -16c-5 -15 5 -12 14 -17l3 -9l12 -2l6 11l-10 5v22zM100 276l11 -12h12c-1 10 -1 22 -5 31l-9 -3zM132 306c0 6 8 12 13 12l-1 -12
c3 -3 5 -11 5 -17l-13 -4c0 6 0 16 -4 21zM517 627c-3 -7 -7 -19 -7 -27c5 3 14 12 17 16l-1 15zM176 498l-5 -23h19l-7 18zM142 228l-12 -2l-1 -11l-20 -8c12 0 25 5 35 8zM125 176c-4 -2 -12 -4 -17 -4v-10l19 4l5 6zM127 204l-4 -11l11 2c6 7 16 9 24 17zM145 456l-5 -6
l5 -17l7 6l1 17h-8zM150 409c5 1 12 4 17 5l-5 8l-9 3c-3 -3 -4 -9 -4 -12c0 -1 1 -3 1 -4zM202 478l6 -6l5 14l-4 4h-9zM487 656l8 -1v9l-7 9l-5 -7zM171 331c0 -4 0 -11 1 -17l8 4l2 8l-3 4zM493 600l2 -12h9l6 6zM492 531l7 -4l6 8c-6 3 -10 3 -18 3zM471 560l6 -5l4 5
l-2 8l-7 2zM438 601l4 -8c0 5 2 6 3 10c1 3 1 7 1 11h-4zM224 493l8 -5l-5 11l3 13l-6 -7v-12zM200 439l8 -17l7 5zM515 527l7 -4v12h-8zM219 474v-10l6 3l2 8zM512 648l-2 -6l7 -4v10h-5zM197 520l-1 -11l4 3l2 8h-5zM514 586l6 -3c-1 5 -5 10 -10 12zM104 310v-9l8 2z
M105 216l-3 -4l9 -2v5zM169 375l7 -7h7zM119 242v-8l8 5zM111 261v-7h6zM449 660l7 -5v5h-7zM530 488l-4 -11l5 4zM135 422l5 -4l1 7zM177 392v-5h3v5h-3zM206 459v-3h5zM153 278c-3 -2 -1 -6 -1 -8z" />
    <glyph glyph-name="H" unicode="H" horiz-adv-x="645" 
d="M444 -1c-41 0 -125 12 -125 41c0 9 15 56 63 206c-38 -7 -118 -14 -177 -21c-46 -126 -70 -230 -100 -229c-60 2 -125 15 -125 42c0 5 3 11 6 20c28 85 226 620 227 622c7 19 11 26 23 26c41 0 117 -28 117 -56c0 -3 0 -12 -3 -19l-127 -354c60 6 120 11 177 22
c63 188 114 345 136 397c4 1 9 1 15 1c62 0 114 -33 114 -54c0 -4 -1 -9 -3 -15l-196 -605c-3 -12 -8 -23 -22 -24zM533 290c-7 3 -8 8 -8 11v2v0c-8 0 -10 -8 -10 -8l9 -1c1 -2 1 -4 1 -6c-1 2 -7 4 -12 4c-1 -6 -7 -9 -18 -9l2 7l-6 2v3l4 3h-2v1h6c3 0 8 11 8 11
c0 1 0 4 -3 9l3 7l-12 -6l-7 3l-4 -7s2 -1 4 -1c3 0 9 1 16 4l-2 -8l-2 -3c-1 0 -3 3 -5 3l-2 -4c-1 -2 -3 -3 -3 -4c0 0 1 -1 3 -4l-7 -4c-1 -1 -2 -1 -2 -1c-1 0 -1 0 -2 1v1v1s-2 -2 -6 -2h-2l1 -3c-1 -2 -1 -4 -1 -4c-2 0 -4 2 -6 2v4c4 5 6 7 6 9c0 0 -1 0 -2 1v1
c0 2 -3 6 -7 6v-3l-2 -4s-6 2 -6 7l1 1c-2 -4 -15 -4 -15 -13c0 -3 0 -8 7 -9l-12 -4l23 -9l7 -13l3 -3l-3 -3c4 2 9 2 11 2l30 -8l7 18l-12 4c11 3 20 9 30 12h-3c0 2 2 4 2 4zM520 378c-8 8 -17 6 -17 10l-1 -6l-5 2l2 4l-18 6c-2 -9 -4 -10 -4 -14l-2 -5l16 -5l2 1l4 -1
v1h2v-1c-4 -3 -4 -3 -6 -3h-3c-14 0 -16 -8 -16 -7l1 -2c1 -1 3 -2 6 -2c1 0 1 0 3 1c0 0 2 -3 4 -3l-2 -8c2 -1 4 -1 4 -1c2 0 3 1 5 2c-1 -1 -1 -2 -1 -2c0 -4 1 -7 5 -12c0 4 1 5 3 8c5 -8 11 -13 11 -18v-3v-3l5 -1s2 7 11 7h3l-12 3l5 15l-10 4v1h5s5 1 5 3v1h2h2
c-2 0 -2 -3 -2 -3l7 -2v5h5h3c-2 -4 -4 -8 -4 -12l5 -3c2 3 3 7 3 11s-1 7 -4 8l1 6c3 2 3 2 3 3l-12 4l-1 -5c0 1 -2 1 -4 1c-1 0 -4 -1 -7 -3h-4v3l-3 3s1 1 1 5c0 0 -1 -4 -3 -5c-1 0 -2 1 -3 1c-2 0 -3 -2 -4 -4l6 17zM149 324v-23c1 11 10 11 10 11c0 -13 0 -13 15 -13
v25h-25zM149 385c10 0 10 10 10 10s-25 0 -25 -10h-10l25 -14v14zM180 385c11 0 12 9 20 11c-8 0 -8 1 -8 11c-12 -11 -12 -11 -25 -11v-11h13zM114 299v-10h10v10c0 13 -10 13 -10 13h-15s0 -13 15 -13zM466 229l4 10h-3c-5 0 -8 -8 -8 -8l-2 -7v-3c0 -1 0 -2 1 -2s3 1 7 3
c-4 -9 -4 -9 -13 -14c5 -3 4 -7 9 -7c2 0 4 0 7 1l4 8l-11 3c6 3 8 6 8 9c0 4 -3 7 -3 7zM490 231c0 -1 2 -1 5 -1c4 0 8 1 12 5l-8 4l-9 1c-6 1 -8 2 -8 3c0 2 0 4 2 9c0 0 -5 -5 -5 -8c0 -1 0 -1 2 -2v-2c0 -2 0 -5 3 -7c0 -1 -1 -2 -1 -3c0 -3 4 -6 7 -6v2v5zM556 421
l-2 -2l-5 -5l1 -1s1 0 2 1v-4l9 9c6 -1 12 -1 15 -1s4 0 4 1s-3 3 -8 6l-2 2l4 8c-1 1 -2 1 -2 1c-4 0 -5 -3 -5 -5l-4 4l-2 -5c-2 0 -5 1 -9 1c0 -3 2 -3 4 -4l-9 -5zM174 419h-13c-12 0 -12 -9 -12 -9h25h4c0 1 -4 2 -4 9zM148 368c0 0 -12 0 -12 -12l12 -13v25zM531 464
l11 -3s4 3 4 5c0 1 0 2 -1 3l5 -1l2 5l-9 -4l-16 6s-1 -2 -1 -5c0 -2 1 -5 5 -6zM546 403l-2 -9l9 -3s1 0 6 2l-3 -2l2 -1c1 0 3 -1 5 -2l4 8zM212 412c0 12 13 12 13 25c-12 0 -13 -12 -23 -13c10 -1 10 -12 10 -12zM129 342l-15 -12l15 -13v25zM174 283h-16v-12h16v12z
M436 217l2 1l3 8h-1c-2 0 -8 0 -9 -6c-2 1 -4 2 -6 2c-3 0 -6 -1 -9 -4l8 -1s0 -2 3 -2v-2h4c3 -2 5 -2 9 -2c-2 2 -2 4 -4 6zM524 438l-21 6c13 4 18 5 18 7c0 1 -5 3 -14 6l-14 5l-4 -14l14 -4l13 -24zM183 356h-9s0 -11 -13 -22c14 9 22 10 22 22zM415 274l-9 -5
c16 -5 23 -8 23 -8c1 1 1 2 1 3c0 4 -9 1 -15 10zM395 170l-13 -5l18 -5v2c0 7 -5 8 -5 8zM522 384c9 -2 9 -2 14 -12c2 6 2 6 13 13c-3 -1 -5 -2 -7 -2c-5 0 -9 3 -13 3c-2 0 -4 -1 -7 -2zM154 428c0 7 0 9 6 9h-15v-15c0 6 2 6 9 6zM180 432v-12l14 12h-14zM534 397
c-5 12 -5 12 -14 13v-2c0 -5 7 -7 7 -7zM500 509c7 -2 14 -5 15 -9c0 6 -3 14 -3 14zM534 498l-10 4l-2 -7c3 -1 3 -2 5 -2c6 0 7 5 7 5zM496 420c-8 3 -14 5 -16 5c-4 0 -6 -3 -7 -10l20 -4zM595 489c-3 5 -5 6 -7 6c-3 0 -4 -2 -4 -2c-1 0 -3 1 -4 1c-3 0 -4 -3 -4 -8
c5 4 7 5 10 5s5 0 9 -2zM542 416l4 6v4c0 1 0 1 -1 1c-3 0 -5 0 -11 -2c0 0 8 -2 8 -9zM547 455l-7 2l-2 -7l8 -2zM495 186l4 7l-8 2s-1 -2 -1 -3c0 -2 1 -4 5 -6zM441 156l-1 -7l9 -2v2h-1s-2 1 -7 7zM564 461l6 -11l2 9zM499 393l7 -2l2 9c-1 -3 -3 -7 -7 -7h-2z" />
    <glyph glyph-name="I" unicode="I" horiz-adv-x="314" 
d="M-4 22c-11 5 -16 13 -16 22c0 5 1 11 4 19c22 71 205 629 206 633c3 7 11 13 22 13c39 0 122 -32 122 -46c0 -7 -2 -15 -5 -21l-198 -618c-4 -12 -8 -22 -23 -24c-7 0 -99 14 -112 22zM181 406c-7 -21 -8 -21 -32 -26l2 -10c-9 -4 -19 -6 -28 -11l3 -23l16 2
c1 8 6 20 9 29l14 7l1 -16l13 -4l10 16c-1 10 -1 16 4 27zM187 517l-1 -12l20 -11c0 10 8 24 13 31c-2 1 -5 2 -7 4h-6c-8 -2 -13 -7 -19 -12zM134 302l-3 -9l16 -12l12 12c-11 17 -11 22 -33 21zM188 445h-19l5 -16l-5 -12l8 -2l9 6c1 7 2 16 2 24zM174 347
c-1 -8 -1 -20 -1 -29c4 5 15 9 23 10l-10 16zM109 240l-2 -20l24 -10v13h-15zM229 576c-1 -7 -4 -13 -7 -20l13 1l9 -5v9zM151 463l4 -7l6 11l-2 12l-8 -6v-10zM126 281h-12c2 -6 4 -13 6 -20c0 7 6 11 6 20zM151 413l-2 -13l10 -4v19zM198 445l3 -16l9 2l-4 10zM202 400
l-5 -8l9 -3l3 11h-7zM181 548l9 5l-13 8zM118 176l13 4l-13 7v-11zM138 230l5 -7l6 17zM182 473l8 -6l-1 8z" />
    <glyph glyph-name="J" unicode="J" horiz-adv-x="552" 
d="M-50 146c0 14 2 48 23 48c-4 0 125 -17 125 -43c0 -8 -8 -14 -8 -35c0 -36 16 -66 53 -66c70 0 100 110 121 152c4 6 151 434 160 467c7 24 16 26 25 26c30 0 123 -48 123 -71c-7 -30 -144 -424 -177 -484c-52 -96 -148 -146 -247 -146c-95 0 -198 46 -198 152zM418 460
c-5 0 -10 3 -15 4h-11l-9 14l-2 -2c-5 -11 -3 -22 2 -31l7 5c10 0 20 -1 30 -5c0 -7 -3 -16 -7 -20l-11 4l-2 11l-8 -3c-2 -8 0 -19 -2 -26l-9 -2l5 -23l-26 9l3 -12l19 -9l-4 -11c19 -5 12 -23 12 -41l10 2l3 4l7 -2c10 1 18 5 20 14l-10 4v10l6 4l14 -14l4 5
c-13 9 -20 15 -16 32l-17 22l9 -25l-7 -9l-11 34l8 17c7 -2 18 -5 21 -10l-10 18c14 1 25 26 39 35l6 15l-6 8v24l-16 -3l-2 -11l-2 3v-11c10 -9 8 -16 11 -28l-7 3l-9 -14l-11 2zM403 318c-1 -5 -6 -11 -8 -18c-5 -14 5 -12 14 -17l2 -9l14 -2l5 11l-10 5v22zM368 322
l8 -12h14c0 11 0 24 -4 32l-10 -2zM400 354c0 6 8 12 13 12l-2 -12c4 -3 6 -12 6 -17l-14 -4c0 5 0 16 -3 21zM352 230c-3 -9 -7 -20 -7 -29c6 4 14 13 18 17l-2 15zM444 550l-4 -22h20l-7 19zM410 274l-13 -2l-2 -11l-19 -9c13 0 26 5 35 9zM393 221c-4 -3 -12 -4 -18 -4
v-10l20 4l5 6zM395 250l-5 -12l12 2c6 8 16 10 24 17zM413 508l-5 -6l5 -17l7 4l1 18zM418 460c6 1 12 3 17 5l-5 7l-9 4c-3 -4 -4 -8 -4 -13c0 0 1 -2 1 -3zM471 531l7 -8l5 16l-4 2h-10zM58 97l10 -3v12l-7 11l-6 -10zM440 379c0 -4 0 -10 1 -16l7 3l3 8l-4 5h-7zM328 201
l3 -11l8 -1l6 7zM-10 152l8 -5l9 9c-8 5 -12 5 -21 5zM32 137l8 -7l4 7l-2 8l-8 3zM-10 102l4 -11c0 5 4 8 5 13c2 4 2 7 2 10h-7zM493 547l9 -7l-5 13l3 12l-7 -7v-11zM469 489l9 -17l7 6zM19 147l7 -4v13h-10zM490 526l-2 -10l8 3l1 9zM348 250l-3 -6l7 -2v8h-4zM466 572
l-1 -10l4 3l3 7h-6zM370 358v-9l8 3zM386 288v-6l9 4zM437 425l7 -7h9zM376 308v-8h8zM14 101l7 -7v7h-7zM402 472l6 -3l1 7z" />
    <glyph glyph-name="K" unicode="K" horiz-adv-x="530" 
d="M106 -3c-3 -1 -7 -1 -11 -1c-54 0 -115 30 -115 45c0 5 3 12 5 20l223 612c7 18 10 23 20 25c23 0 126 -17 126 -50c0 -15 -12 -44 -45 -132c134 89 151 120 183 120c18 0 81 -48 88 -77c-3 -19 -222 -151 -304 -211c7 -13 14 -25 19 -37c39 -87 131 -239 142 -267
c3 -8 3 -10 3 -14c0 -8 -46 -34 -97 -34c-5 0 -12 4 -21 17c-24 35 -46 74 -118 212c-48 -135 -68 -197 -78 -212c-4 -9 -9 -15 -20 -16zM146 250c6 -1 11 -4 15 -5l12 -2l9 -13l1 3c2 9 3 20 0 30l-9 -5c-8 0 -20 1 -29 6c1 5 4 16 9 19l10 -5l2 -10l7 3c3 9 1 17 3 25
l10 4l-4 21l25 -9l-3 11l-18 9l2 10c-18 8 -12 24 -11 41l-8 -1l-3 -4l-9 4c-8 -2 -16 -6 -18 -14l9 -3v-11l-6 -4l-12 13l-6 -4c14 -9 19 -17 15 -34l15 -18l-6 24l8 8l10 -34l-10 -17c-7 1 -14 4 -20 8l9 -15c-14 -1 -26 -26 -38 -33l-8 -16l8 -8l-2 -24l14 3l4 11l1 -4
v11c-9 9 -8 16 -10 29l7 -4l9 15l12 -3zM166 390c3 4 8 10 9 16c4 13 -8 11 -14 18l-4 9l-12 3l-4 -12l9 -5v-22zM202 383l-11 11l-12 1c0 -10 -2 -21 4 -30l9 1zM167 354c2 -6 -8 -13 -13 -12l3 12c-5 3 -5 12 -5 16l14 5c-2 -7 -2 -17 1 -21zM218 475c6 8 10 18 10 27
c-8 -3 -16 -11 -20 -17l2 -14zM119 159l5 24l-21 1l8 -19zM159 433l15 2v10l19 7c-8 0 -26 -2 -36 -7zM177 483c8 4 14 5 20 5v10l-20 -3l-5 -5zM176 457l5 10l-11 -1c-6 -7 -16 -9 -27 -16zM150 202l6 5l-6 18l-5 -6l-3 -16zM146 250c-4 -2 -12 -4 -16 -8l4 -5l9 -4
c3 5 3 12 3 17zM93 179l-8 8l-5 -12l3 -6h12zM332 511l-10 3l-2 -12l7 -10l7 9zM128 328c-1 5 0 11 -1 19l-8 -4l-3 -8l5 -4zM372 440l-7 5l-11 -9c8 -5 13 -4 21 -4zM244 501l-3 12l-9 2l-4 -6zM355 472l-6 7l-5 -5v-12l9 -1zM405 518l-5 12c0 -9 -5 -12 -5 -24h4zM69 165
l-7 7l6 -13l-4 -12l5 7v11zM95 221l-7 17l-8 -5zM345 445l-8 4l-1 -13h12zM74 185l2 10l-8 -3l-2 -8zM224 516l-8 5c2 -7 4 -11 12 -13zM222 454l2 6l-6 4v-10h4zM96 138l2 10l-7 -1l-2 -7zM197 348l1 10l-9 -3zM198 444l2 3l-7 3l-1 -5zM183 417v8l-8 -4zM130 284l-8 8h-8z
M191 398v8l-5 -1zM372 505l-5 7v-7h5zM310 445l6 12l-7 -3zM162 235l-5 7l-1 -9zM316 401v6l-6 2l4 -6zM89 199v5h-6z" />
    <glyph glyph-name="L" unicode="L" horiz-adv-x="466" 
d="M151 92c63 12 126 24 194 43c11 2 20 4 24 4c25 0 76 -39 87 -56c-106 -34 -246 -68 -370 -83c-29 -3 -106 20 -106 39c0 18 213 639 216 647c5 16 12 22 22 22c24 0 120 -32 120 -54c0 -6 -4 -14 -7 -22c-36 -95 -175 -524 -180 -540zM128 414l2 -1c-2 -5 -6 -8 -8 -12
l26 -8l-6 24l9 3c4 7 0 20 4 27l8 3l2 -11l11 -5c3 5 7 16 7 22c-8 3 -20 4 -31 4l-9 -4v1c-6 -16 -8 -30 -15 -43zM166 322c-2 -5 -7 -11 -9 -18c-6 -15 6 -12 15 -18l3 -10l13 -2l6 12l-11 6v22zM128 326l9 -12h15c-1 12 -1 24 -4 34l-12 -4zM163 361c3 -6 3 -18 3 -25
l13 6c0 6 0 14 -4 19l1 11c-6 0 -13 -5 -13 -11zM112 228c-3 -7 -7 -20 -7 -28c7 4 14 13 18 18l-1 16zM208 565l-3 -23h19l-6 19zM173 276l-14 -2l-1 -12l-22 -8c13 0 28 4 39 8zM155 221c-6 -3 -13 -4 -19 -4v-12l21 5l6 7zM157 249l-5 -9h12c6 8 17 9 26 18zM176 521
l-6 -7l6 -17l7 6l2 17zM181 470c6 1 13 5 19 7l-6 7l-9 4c-4 -4 -6 -10 -6 -13s2 -4 2 -5zM237 546l6 -7l6 15l-5 3h-8zM205 389c0 -6 0 -14 1 -20l7 3l3 9l-3 5zM86 200l5 -11l8 -4l6 7zM147 470c0 5 1 8 2 14l-6 6l-1 -2c0 -5 -1 -10 -1 -12c0 -6 0 -13 2 -19v9s-1 4 4 4z
M259 561l11 -6l-6 13l4 12l-9 -7v-12zM236 503l7 -19l8 6zM256 541v-12l7 4l1 9zM106 252l-1 -6l7 -5v11h-6zM231 590l-1 -12l6 2l1 10h-6zM109 185l6 -3c0 7 -6 9 -10 14zM130 363v-8l11 1zM134 264l-4 -4l7 -4v6zM149 292v-9l8 6zM201 434l7 -7h10zM165 484l5 -6l2 10z
M240 524v-4h6zM121 403l2 -11c0 3 0 7 -1 9zM230 37l-2 8l-8 4l-7 -3l7 -7zM298 74l-8 6l-12 -2l-2 -5c6 3 10 -4 22 1zM205 66l-4 6l-10 1l2 -7l6 -3zM237 74l-4 7l-3 -7h7zM181 42h-10l7 -3z" />
    <glyph glyph-name="M" unicode="M" horiz-adv-x="816" 
d="M625 -10c-48 0 -127 12 -127 43c0 5 4 18 7 28c20 67 72 232 111 353l-296 -400c-9 -12 -15 -21 -27 -21c-49 0 -127 27 -127 48c0 6 5 21 9 32l6 16c30 89 79 222 112 311c-98 -130 -297 -400 -313 -403c-12 0 -50 89 -50 91c0 11 8 20 22 38l438 566c11 19 18 21 27 21
c32 0 118 -24 121 -57c-2 -6 -1 -9 -4 -17l-113 -325c115 153 267 353 275 363c6 9 10 12 18 12c33 0 122 -29 122 -45c0 -10 -3 -22 -8 -36c-27 -82 -176 -578 -182 -594c-3 -11 -7 -22 -21 -24zM390 566l-3 -9l16 -9c0 9 7 13 15 20l-8 3c-6 0 -15 -1 -20 -5zM362 462
l-4 -7l13 -11l9 10c-1 4 -3 6 -4 10c-1 5 -16 6 -19 6zM384 514l-15 2l2 -12l-4 -8l4 -2l9 2c1 6 3 12 4 18zM362 444c-2 -4 -2 -15 -2 -21c3 5 14 6 20 6c-4 5 -9 11 -11 13zM430 605l-8 -15h11l8 -6v9zM301 374l-5 -16l18 -8l1 8l-12 1zM353 449h-10c0 -6 0 -11 3 -15z
M350 494l-2 -11l8 -2l1 14zM357 530l3 -6l4 6v10l-4 -3zM393 511v-9h9l-1 8zM322 363l3 -6l6 12l-7 1zM390 478l-3 -3l8 -4l1 7h-6zM390 589l7 1l-10 6zM302 328l9 1l-9 6v-7zM383 535l7 -5v6zM381 322l9 -3v11l-6 8l-5 -7zM360 355l6 -5l5 5l-3 9l-8 1v-10zM332 267l4 -9
c0 5 3 6 4 11c1 2 1 6 1 9h-5zM384 418l6 -2v12h-9zM344 325l7 -6v6h-7zM399 380l-5 -10l6 2zM407 458v-6h6l-5 6h-1zM336 599l9 -6c-6 -9 -6 -9 -22 -11c2 -3 5 -3 7 -3c6 0 13 5 23 5c0 15 0 15 -17 15zM369 601c13 2 13 2 19 9c-9 7 -13 0 -21 7zM321 562l-8 -9
c2 -2 5 -2 7 -2h7c2 0 5 0 7 -2l-7 7zM258 427h11l-7 7zM303 542c3 -3 5 -5 7 -5c1 0 3 2 6 5l-9 7zM347 567c1 -5 1 -9 1 -11c0 -6 -2 -7 -8 -14l9 -6c0 29 2 13 2 22c0 5 -4 9 -4 9zM369 593l-16 -18c7 7 16 0 25 9h-4c-3 0 -8 0 -8 3c0 2 1 4 3 6zM305 525
c2 -2 4 -4 6 -4c3 0 5 4 5 4l-6 6zM315 535c0 0 5 -4 14 -4c3 0 5 0 8 1l-15 12zM671 486l20 -11l-2 22l10 2c3 6 3 18 7 23l8 1v-10l9 -6c5 4 8 13 10 18c-7 4 -17 8 -26 9l-9 -4l-1 11c-8 -18 -18 -36 -26 -55zM696 409c-2 -4 -7 -8 -12 -13c-5 -11 5 -13 10 -19l2 -9
l12 -5l8 12l-10 6l3 20zM664 420l7 -12l12 -2c1 10 3 20 1 30h-9zM699 445c3 -7 0 -15 -1 -21l14 2c0 5 1 12 -3 17l4 10c-5 1 -12 -3 -14 -8zM635 338c-5 -7 -12 -17 -12 -24c7 2 15 9 20 12v14zM766 597l-9 -20l19 -5l-3 18zM694 368h-11l-3 -8l-19 -4c9 -2 23 -1 33 2v10
zM670 324c-4 -3 -11 -3 -16 -1l-2 -9h18l5 5zM676 349l-5 -9h10c8 5 17 4 26 10zM736 583l-5 -5l2 -16l7 3l5 16zM733 538c7 0 12 2 17 2l-3 8l-9 3c-2 -1 -5 -5 -5 -10c0 -1 3 -2 0 -3zM701 578l4 -5l8 13l-3 2l-8 3zM597 153l8 -4l2 10l-5 9l-5 -5v-10zM740 461
c-2 -3 -2 -9 -2 -16l8 2l3 7l-2 5zM607 316v-10l9 -4l5 7zM593 252l6 -5l9 6c-5 5 -9 6 -16 8zM581 188l6 -6l4 4l1 9l-8 3zM605 219l1 -8c3 5 5 5 7 9c1 2 2 5 2 9l-5 1zM670 574l7 -7l-2 12l3 11l-5 -5zM687 571l4 -16l8 3zM616 244l6 -4l1 11l-9 1zM709 564l-3 -9h8l2 10
zM633 358l-3 -5l7 -4l1 9h-5zM665 545l-3 -9l5 1l4 7zM623 300l5 -4c2 6 -2 10 -7 14zM673 452l-2 -7h9zM675 386v-8l9 5zM745 504l6 -9l8 -2zM562 164l5 -9l2 7zM722 553l4 -5l2 5h-6zM669 486h2l-1 1z" />
    <glyph glyph-name="N" unicode="N" horiz-adv-x="619" 
d="M479 83c-15 -49 -72 -81 -115 -81c-5 0 -30 -2 -40 31c-14 45 -75 315 -115 473l-147 -504c-4 -11 -8 -19 -13 -19c-17 0 -69 60 -69 67c1 8 4 18 9 33c46 142 135 459 175 586c4 13 94 53 124 53c18 0 22 -16 25 -30l112 -455c46 150 102 329 128 425c10 39 19 38 34 38
c25 0 62 -25 62 -40c0 3 -129 -440 -170 -577zM279 528v-26c1 -18 13 -10 27 -10l9 -11l16 5v18h-16l-14 26zM235 512l18 -8l15 8c-8 13 -15 26 -26 34l-7 -8v-26zM253 569c9 -5 13 -17 18 -24l13 14c-4 5 -11 13 -18 16l-4 14c-7 -3 -12 -15 -9 -20zM272 397
c0 -13 1 -28 7 -37c7 6 10 22 12 30l-11 15zM539 572l7 -30l24 12l-18 18h-13zM313 481l-13 -11l2 -13l-16 -20c14 7 24 20 35 29zM323 410c-3 -5 -13 -12 -19 -15l6 -12l21 17l2 10h-10zM309 442l1 -14l11 8c4 14 16 21 18 36zM519 509l-2 -12l16 -17l4 10l-8 20zM573 568
l12 -5l-3 20l-7 3l-10 -5zM386 159l12 3l-7 12l-12 6l-1 -11zM284 622c2 -7 7 -15 12 -18l6 6l-1 12l-7 3zM258 349l10 -12l12 3l2 13zM300 266h9l4 13c-9 2 -13 -2 -24 -5zM339 185l11 -2l2 9l-7 8l-9 -1zM360 65l10 -9c-3 6 0 11 -1 16c0 5 -2 8 -5 11l-4 -2v-16zM590 599
h14l-14 11l-2 15l-6 -12zM548 525l18 -14l7 11zM331 277l8 -1l-6 13l-10 -5zM597 574l4 -12l8 6l-3 13zM253 418l2 -10l10 2l-5 10zM543 613l3 -12l5 5l-2 12zM292 345l9 -1c-5 6 -12 10 -19 10zM218 555l5 -10l8 8zM276 446v-7l10 3l-4 6zM277 484l3 -9l6 11zM255 671
l13 -4l9 5zM255 502l3 -10l8 5zM338 141l12 -3l-4 8zM370 238l3 -16l2 9zM588 547l5 -4l4 3zM346 269l9 -14c0 3 -3 9 -5 11zM389 138v-2s2 -3 5 -2c0 2 -5 2 -5 4zM294 546c-2 -2 2 -7 3 -10zM118 367c-7 -9 -15 -22 -15 -31c8 3 19 13 25 16v18zM163 393
c-6 -3 -15 -3 -21 0l-2 -12l23 -1l6 7zM70 135l11 -6l1 13l-6 11l-6 -6v-12zM82 340v-13l13 -5l6 8zM66 259l7 -6l11 7c-6 7 -11 8 -20 10zM51 179l7 -8l4 5l2 11l-10 4zM81 217v-9c4 6 7 6 9 10c1 3 3 6 3 12l-6 1zM95 248l7 -4l1 13l-12 2zM116 392l-5 -6l9 -6l2 12h-6z
M103 319l7 -5c1 8 -3 13 -9 18zM26 148l6 -11l3 8z" />
    <glyph glyph-name="O" unicode="O" horiz-adv-x="620" 
d="M590 478c-1 -198 -121 -481 -328 -481c-140 0 -222 65 -222 227c0 221 138 490 362 490c148 0 188 -158 188 -236zM240 67c126 33 228 297 228 449c0 70 -17 114 -53 114c-66 0 -134 -97 -160 -143c-64 -112 -89 -225 -89 -304c0 -78 28 -118 61 -118c4 0 9 1 13 2z
M124 380c0 -3 1 -8 1 -11l15 4v-15l15 -6c14 14 16 23 22 41l-11 9c-3 -6 -7 -10 -11 -16c-3 -5 -24 -6 -31 -6zM125 370c-10 -1 -24 -3 -34 -8v-24h19c11 12 11 18 15 32zM185 515l-3 -11l24 -16c0 15 10 22 19 30c-16 12 -25 -3 -40 -3zM98 304l-7 -10l19 -14l14 11l-7 16
c-6 5 -19 7 -27 8zM179 442l-23 2l4 -17l-8 -10l8 -4l12 4c3 8 5 16 7 25zM134 345c-4 -6 -4 -24 -4 -31c6 5 20 8 28 8c-5 7 -11 15 -16 19c0 0 -6 4 -8 4zM273 599l6 -8l16 26l-18 2zM295 582c-5 -4 -10 -5 -16 -7l7 -19c9 3 12 13 15 21zM244 570l-11 -20h14l11 -7v10z
M67 266l-6 -20l25 -11l2 11l-16 2zM248 619l4 -17l8 4l7 -1l4 4l-2 8zM87 285h-16c0 -7 1 -15 4 -21c5 5 10 14 12 21zM132 413l-3 -13l11 -4v19zM140 464l4 -7l8 8v13l-10 -3zM290 597v-7l6 1l8 -3l5 10l-9 3zM190 440v-17h13l-3 14zM90 229l5 -7l9 17h-10zM181 414l-4 -8
l10 -3l1 11h-7zM185 546l11 4l-14 9zM90 256l11 2l-11 9v-11zM177 471l8 -7v9zM305 617l-2 -10l5 4zM503 315c-3 -5 -9 -9 -14 -16c-6 -12 5 -15 12 -21l2 -11l14 -5l9 13l-12 7l4 24zM506 345l8 -15l14 -2c2 12 4 23 1 35h-10zM539 382c3 -7 0 -17 -1 -24l15 2
c0 6 2 15 -3 20l5 12c-6 1 -14 -4 -16 -10zM512 432c-6 -8 -13 -21 -13 -29c7 3 17 12 23 15v16zM553 415c-5 -3 -13 -3 -19 0l-2 -11l21 -1l6 7zM468 217l10 -5l1 11l-5 11l-6 -6v-11zM511 520c-2 -4 -2 -10 -3 -18l10 2l3 8l-2 5zM479 406v-12l12 -4l6 7zM464 332l7 -6
l10 7c-6 6 -10 7 -19 9zM450 258l7 -8l4 5l1 10l-9 4zM457 294l1 -9c4 6 6 6 8 10c1 2 3 6 3 11h-6zM491 322l6 -4l2 12l-11 2zM510 454l-4 -5l8 -5l2 10h-6zM499 388l6 -5c1 7 -3 11 -8 16zM517 382l-3 -9l11 1zM427 229l6 -10l3 8z" />
    <glyph glyph-name="P" unicode="P" horiz-adv-x="569" 
d="M103 0c-60 -1 -123 27 -123 50c0 7 3 14 7 23l224 623c5 14 9 18 19 18c70 0 298 -66 342 -129c17 -21 37 -68 37 -84c0 -19 -8 -28 -21 -39c-15 -13 -279 -150 -311 -168c-16 -9 -23 -11 -26 -11c-7 0 -15 8 -22 18c-74 -214 -93 -300 -126 -301zM477 556
c-20 14 -89 33 -141 50c-8 -25 -31 -93 -58 -171c66 33 205 91 205 109c0 5 -3 9 -6 12zM142 248l6 -10c7 0 12 -2 17 -5h14l9 -16l5 4c2 10 2 23 -5 34l-8 -5c-10 0 -22 2 -33 5c0 7 3 19 8 23l11 -4l4 -13l9 3c2 10 0 21 2 31l12 2l-6 26l28 -10l-4 13l-20 10l4 12
c-22 8 -15 28 -15 47l-10 -2l-5 -5l-7 4c-11 -1 -20 -6 -23 -16l12 -5v-11l-7 -5l-16 15l-6 -5c15 -10 24 -18 19 -38l19 -23l-9 28l8 11l13 -39l-10 -21c-8 2 -20 7 -25 13l12 -22c-16 0 -28 -30 -43 -38l-8 -19l8 -9v-27l16 3l4 13l2 -3v11c-11 11 -10 18 -13 33l9 -2
l9 16zM147 409l18 -7c3 5 8 12 11 19c5 16 -6 14 -17 20l-3 10l-15 3l-6 -13l12 -6v-26zM207 395l-12 14h-15c1 -12 1 -26 7 -36l9 3zM170 360c0 -7 -10 -14 -15 -14l1 14c-5 4 -6 13 -6 19l15 6c0 -8 0 -20 5 -25zM213 498l11 4c4 10 9 23 9 32c-8 -2 -16 -13 -22 -20z
M118 135l6 25h-22l8 -21zM158 451l15 3l1 13l22 8c-13 0 -28 -4 -40 -8zM170 516l8 -4c5 2 15 4 20 4v13l-22 -5zM176 480l4 12l-12 -2c-8 -9 -20 -10 -28 -19zM155 182l5 8l-5 20l-8 -6l-2 -20zM148 238c-6 -1 -13 -3 -19 -7l6 -8l10 -2c3 2 5 9 5 14c0 1 -2 2 -2 3z
M88 157l-8 8l-5 -16l4 -6h11zM313 437l-11 4v-13l8 -13l7 11zM115 330l9 -2c0 7 0 15 -2 20l-8 -2l-3 -10zM253 534l-4 13l-10 2l-6 -8zM400 410l-9 6l-9 -11c8 -5 13 -5 24 -5zM343 393l-9 7l-5 -7l1 -10l11 -4zM303 379l-5 13c0 -8 -4 -9 -5 -15c-2 -5 -2 -8 -2 -13h7z
M63 139l-11 6l5 -13l-1 -14l7 8v13zM90 204l-10 19l-9 -6zM456 410l-8 5v-15h12zM67 162l2 12l-10 -3l-2 -11zM230 478l3 8l-9 3v-11h6zM94 109l1 11l-5 -2l-4 -9h8zM203 355v10l-8 -2zM185 435v9l-9 -7zM127 278l-9 9h-8zM195 412v9h-8zM363 432l-8 9v-9h8zM166 223l-6 6
l-1 -8z" />
    <glyph glyph-name="Q" unicode="Q" horiz-adv-x="632" 
d="M602 474c0 -170 -74 -340 -199 -433c23 -23 71 -55 71 -73c0 -15 -59 -43 -73 -43c-26 0 -64 37 -90 69c-16 -4 -32 -7 -49 -7c-139 0 -222 79 -222 234c0 196 128 479 343 479c24 0 50 -3 76 -11c77 -23 140 -125 143 -215zM260 61c-19 28 -42 66 -45 90
c-1 8 51 43 88 43c12 0 19 -29 34 -55c81 87 140 249 140 369c0 73 -17 116 -58 116c-68 0 -134 -96 -162 -147c-63 -115 -90 -224 -90 -303c0 -77 25 -122 62 -122c11 0 21 3 32 7c-1 1 -1 2 -1 2zM190 447c-9 -11 -10 -15 -14 -17c-5 -2 -9 -2 -24 -2l2 -10
c-10 -2 -21 -2 -31 -8v-22h16c7 5 13 20 15 28l13 4v-14l13 -6l11 13c2 7 4 17 8 25zM208 549l-4 -12l22 -13c0 13 10 19 17 27l-7 4c-9 0 -22 -1 -28 -6zM326 64l7 -10l20 32l-24 4zM354 41c-6 -4 -13 -5 -21 -8l9 -25c11 4 14 17 20 28zM128 357l-5 -8l16 -13l13 12
c-1 4 -4 8 -6 13c-2 4 -20 8 -24 8zM293 90l6 -23l10 6l9 -3l4 6l-1 10zM201 483l-20 1l4 -15l-6 -9l6 -4l10 4c4 6 4 15 6 23zM173 395c-3 -7 -3 -20 -3 -28c6 4 19 8 25 8c-4 6 -10 13 -14 16zM348 61v-9l7 2l10 -5l7 14l-12 3zM260 598l-10 -18h13l10 -7v8zM93 304
l-4 -19l23 -11l1 11l-14 2zM119 341h-14c0 -7 0 -13 4 -19zM159 456l-3 -11l10 -5l1 17zM167 502l3 -6l7 7v11l-8 -2zM213 480v-14h10l-3 11zM122 291l4 -7l8 15l-10 2zM208 577l10 3l-14 8zM97 245l12 2l-12 8v-10zM366 86l-3 -11l8 5zM199 508l9 -6v8zM478 240v-26
c1 13 11 13 11 13c0 -15 0 -15 16 -15v28h-27zM478 308c11 0 11 12 11 12s-28 0 -28 -12h-11l28 -15v15zM513 307c12 0 13 12 22 14c-9 0 -9 0 -9 12c-13 -12 -13 -12 -28 -12v-14h15zM439 212v-11h11v11c0 15 -11 15 -11 15h-17s0 -15 17 -15zM506 346h-15
c-13 0 -13 -11 -13 -11h28h4c0 1 -4 4 -4 11zM477 290c0 0 -14 0 -14 -14l14 -14v28zM549 339c0 13 14 13 14 28c-13 0 -14 -14 -27 -15c13 -2 13 -13 13 -13zM456 260l-18 -14l18 -14v28zM505 194h-17v-13h17v13zM516 276h-11s0 -12 -14 -25c16 11 25 12 25 25zM484 356
c0 7 0 10 5 11h-16v-18c0 7 2 7 11 7zM513 361v-14l14 14h-14z" />
    <glyph glyph-name="R" unicode="R" horiz-adv-x="576" 
d="M108 0c-60 8 -128 19 -128 47c0 7 4 18 8 25c68 166 157 440 221 615c6 18 8 27 27 27c2 0 5 -1 11 -2c14 -2 150 -31 259 -71c49 -18 110 -102 110 -139c0 -10 -4 -20 -12 -28c-15 -18 -238 -139 -303 -172c59 -130 137 -233 137 -265c0 -23 -82 -39 -99 -39
c-19 0 -57 74 -134 231l-74 -207c-4 -10 -9 -22 -23 -22zM492 545c-16 17 -86 39 -155 63c-8 -27 -33 -98 -61 -178c92 44 212 104 216 115zM224 579l-34 17l-5 -24l12 1l8 -6c4 4 10 5 15 5l-9 -14l4 -13l32 26l-23 10v-2zM162 295l30 7l-2 23l-16 -2
c-4 -4 -12 -21 -23 -34l-3 14l-14 5c-17 -21 -7 -16 -15 -38l10 -7c12 23 10 17 36 23zM120 163l2 11l-21 11c-1 -1 -3 -11 -3 -11c-3 -5 -8 -9 -12 -15l8 -6c7 2 19 6 26 10zM230 526c-7 -3 -15 -1 -24 0l-1 -28c13 0 23 11 30 18zM184 353l2 10l-15 10l-13 -12l8 -12
c6 -4 14 -5 23 -5zM120 227h19l-3 15l7 9l-9 4l-7 -5c-3 -8 -7 -13 -7 -23zM141 314c2 8 2 19 2 27c-7 -8 -15 -8 -24 -9l13 -14zM232 547l-2 -7l7 -2l6 -8l13 10l-12 7h-12zM73 111c2 7 5 14 9 19c-1 0 -12 2 -13 0c-3 2 -7 4 -10 4v-7zM211 409l4 17l-23 10v-11l13 -1z
M192 369l12 4c0 7 -3 13 -5 17c-1 -2 -5 -7 -6 -10c-1 -2 -1 -7 -1 -11zM155 200c-2 7 2 12 -2 18l-7 -8l1 -12zM162 256v12l-9 4v-17zM185 419l-6 6l-7 -15l10 -1zM109 229l-2 15l-7 -2l3 -11zM109 268l5 8l-9 1l-2 -7zM204 464l-12 -1l13 -7zM259 567l-8 -13l10 3z
M224 579l8 -3l-12 -4zM125 203l-8 4v-7zM360 440l5 -12c-13 -5 -13 -5 -30 3c1 -4 3 -6 5 -7c6 -5 17 -4 28 -11c10 16 10 16 -8 27zM395 421c15 -6 15 -6 27 -4c-5 14 -15 9 -18 21zM320 412l-14 -3c1 -4 2 -7 5 -8c2 -1 5 -2 9 -4c1 -2 3 -4 4 -7c1 3 -2 11 -2 11z
M287 403c2 -5 2 -8 5 -10c2 0 3 0 9 1l-4 14zM350 400c-3 -6 -4 -10 -6 -13c-4 -6 -7 -6 -18 -8l6 -12c20 30 10 11 16 20c4 6 2 13 2 13zM390 413l-28 -9c11 3 16 -11 31 -7c0 0 -2 1 -3 3c-4 2 -9 5 -7 8c1 2 3 4 7 5zM278 384c1 -4 3 -7 3 -8c5 -2 9 0 9 0l-3 11z
M296 387c0 0 2 -7 12 -13c2 -1 5 -3 9 -4l-8 23z" />
    <glyph glyph-name="S" unicode="S" horiz-adv-x="460" 
d="M410 534c0 35 -12 66 -34 78c-19 -2 -101 -52 -101 -128c0 -19 5 -39 12 -59c29 -82 63 -159 63 -221c0 -96 -93 -204 -237 -204c-98 0 -163 60 -163 127c0 42 7 56 35 56c12 0 113 -12 113 -35c0 -14 -15 -42 -15 -56c0 -17 10 -28 26 -29c70 8 100 105 100 150
c0 95 -80 182 -80 267c0 102 122 225 233 225c59 0 158 -37 158 -114c0 -44 -15 -81 -41 -81c-27 0 -56 12 -69 24zM228 387c1 -15 3 -18 0 -23c0 -4 -5 -6 -15 -18l9 -5c-7 -8 -15 -16 -20 -26l16 -17l12 12c2 8 -3 22 -7 29l6 12l10 -10l12 5v16c-3 7 -9 16 -9 24z
M173 473l5 -10l24 4c-8 10 -5 20 -5 31l-8 -1c-6 -5 -15 -15 -16 -24zM242 278l3 -9l19 2l3 16c-4 4 -9 5 -13 6c-5 3 -21 -7 -23 -10zM213 420l-16 -12l12 -8l2 -12l7 2l5 9c-2 6 -6 14 -10 21zM251 337c2 -7 11 -16 17 -23c-1 7 7 19 11 23c-6 1 -15 3 -20 3zM178 544
l5 -21l10 9l11 3l-5 6zM254 217l7 -16l26 7l-7 9l-12 -8zM247 260l-10 -9c4 -5 9 -9 15 -11zM222 426l10 -11l7 7l-9 7zM283 226l8 -2l-5 17l-8 -6zM247 392l2 -7l9 4l-5 8zM155 493l5 9l-16 -2zM296 176l7 9l-15 -2zM194 438h11l-6 6zM415 617l11 2c4 -13 4 -13 -7 -27
c3 0 6 1 7 3c6 6 7 15 15 24c-13 12 -13 12 -26 -2zM435 637c9 13 9 13 9 23c-13 -2 -11 -11 -24 -13zM434 574v-14c4 0 6 2 8 4s3 4 6 6c1 3 4 4 7 4h-11h-10zM484 610l9 9h-11zM435 542c6 0 9 0 10 2s1 4 1 10l-13 -3zM450 600c5 -3 8 -6 11 -8c5 -4 4 -8 5 -18l12 3
c-25 24 -9 11 -16 19c-5 5 -12 4 -12 4zM446 639l3 -28c0 11 13 13 12 28c0 0 -1 -1 -3 -2c-3 -4 -6 -8 -9 -5c-1 1 -3 4 -3 7zM452 530c3 0 6 1 7 2c3 3 2 8 2 8l-11 -1zM452 547c0 0 6 0 15 9c1 2 4 4 5 7l-23 -3z" />
    <glyph glyph-name="T" unicode="T" horiz-adv-x="522" 
d="M30 671c9 9 449 26 520 32c14 1 25 2 30 2c13 3 105 -25 101 -43c-3 -6 -22 -6 -33 -7l-222 -8c-11 -54 -179 -542 -213 -625c-3 -9 -11 -25 -29 -25h-3c-62 14 -123 18 -123 47c0 6 2 13 5 20l210 574c-89 -4 -93 -4 -97 -4c-71 0 -137 24 -146 37zM217 328l12 -8
c7 20 9 20 32 25l-2 11c9 3 19 5 27 10l-2 23l-16 -2c-1 -8 -6 -20 -9 -29l-14 -7l-1 16l-12 4l-10 -15c0 -11 0 -17 -5 -28zM224 210l1 12l-21 11c0 -9 -7 -24 -12 -31c2 -1 5 -1 7 -3h5c9 2 14 7 20 11zM276 422l3 9l-16 12l-12 -12c11 -17 11 -22 33 -21zM222 281h19
l-4 16l4 12l-8 1l-8 -5c-1 -7 -3 -16 -3 -24zM225 381l11 -3c2 7 2 19 2 29c-5 -5 -16 -10 -23 -11zM301 483l1 20l-23 10v-13h15zM168 167l14 -15c1 7 5 13 7 20l-13 -1l-9 5zM259 264l-3 6l-7 -11l2 -11l8 5v11zM284 442h12c-2 6 -5 14 -6 21c0 -7 -6 -11 -6 -21zM259 313
l2 13l-10 4v-20zM213 281l-3 16l-9 -2l3 -10zM209 326l5 7l-10 4l-2 -11h7zM229 180l-8 -5l12 -8zM291 546l-12 -4l12 -7v11zM272 493l-5 7l-6 -17zM228 253l-7 6l1 -7z" />
    <glyph glyph-name="U" unicode="U" horiz-adv-x="635" 
d="M30 143c1 125 93 388 151 530c9 23 18 38 26 38c35 0 120 -52 120 -70c0 -5 -5 -15 -12 -32c-33 -73 -150 -376 -150 -498c0 -45 17 -69 55 -69c54 0 91 39 117 92c23 47 157 410 205 524c8 20 19 33 29 33c23 0 94 -77 94 -98c0 -6 -1 -14 -3 -21
c-37 -87 -129 -365 -225 -507c-35 -52 -117 -74 -188 -74c-110 0 -219 27 -219 152zM501 390c-5 0 -10 3 -13 6l-10 1l-7 13l-4 -2c-2 -9 -3 -19 0 -28l8 4c9 -1 17 -3 25 -7c-1 -7 -3 -15 -8 -18l-8 4l-2 11l-7 -2c-3 -8 -3 -17 -5 -24l-9 -1l3 -21l-23 10l3 -11l15 -9
l-3 -10c16 -8 8 -23 7 -38h9l3 5l6 -5c8 1 16 3 19 12l-9 4l1 10l7 3l10 -14l5 3c-11 10 -17 17 -11 32l-13 20l3 -22l-6 -8l-8 32l11 14c6 -1 15 -6 18 -11l-9 18c14 -1 27 21 40 27l7 14l-6 8l2 21l-13 -1l-3 -9l-2 3l-1 -10c8 -9 6 -15 7 -27l-6 3l-9 -12l-10 4zM474 262
c-3 -5 -7 -9 -9 -15c-7 -12 3 -12 10 -17l3 -8l11 -4l6 10l-10 6l2 21zM441 270l9 -11l11 -2c1 10 2 20 -2 29l-8 -1zM474 296c1 4 8 9 13 9l-2 -10c3 -5 3 -12 3 -17l-13 -3c1 6 3 15 -1 21zM419 187c-5 -7 -8 -18 -10 -26c7 3 15 10 19 14v14zM533 470l-7 -19l19 -3l-5 17
zM476 222l-12 -2l-3 -9l-18 -5c10 -1 22 1 33 3v13zM456 175c-5 -2 -13 -2 -18 -1v-10l18 2l5 5zM459 201l-5 -10h10c7 6 17 7 25 13zM500 435l-5 -6l3 -16l7 4l2 15zM501 390c4 0 11 2 17 4l-6 6l-7 4c-3 -2 -5 -7 -6 -11c0 -1 2 -3 2 -3zM555 449l5 -7l6 14l-2 3l-9 1v-11
zM146 324l10 -3v11l-6 9l-6 -7zM512 316v-15l7 1l4 7l-4 5zM394 164l2 -12l8 -1l5 4zM134 435l6 -5l9 8c-6 5 -10 5 -18 6zM126 362l6 -6l5 5v8l-9 3zM88 271l2 -11c1 6 4 7 7 11c0 4 1 7 1 11l-5 1zM577 461l8 -5l-4 10l4 12l-6 -6zM551 412l4 -15l9 3zM160 429l6 -5l1 12
l-10 1zM572 444l-2 -9l6 1l3 9zM417 206l-4 -5l7 -4l1 9h-4zM554 488l-1 -9l5 1l2 8h-6zM411 148l6 -4c0 6 -4 10 -8 13zM448 302l-1 -9l7 3zM440 215l-2 -4l7 -3v5zM456 237l-1 -7l8 5zM514 356l7 -7l7 -1zM450 255l-1 -6l5 -1zM107 332l6 -7l1 6zM487 403l5 -4l1 6z
M171 384l-6 -10l6 3v7zM524 371v-5h2v5h-2zM490 268c-2 -3 -2 -6 -2 -7z" />
    <glyph glyph-name="V" unicode="V" horiz-adv-x="516" 
d="M129 713c49 1 71 -16 71 -44c0 -10 -6 -172 -11 -437c102 179 261 455 262 458c3 5 7 9 12 9c28 0 113 -64 113 -82c0 -10 -11 -25 -14 -32l-326 -570c-8 -14 -18 -23 -30 -23c-39 0 -116 42 -116 74c0 8 0 26 1 49c6 120 19 536 19 570c0 21 10 28 19 28zM152 373
c0 -18 -1 -19 -18 -29l3 -8c-6 -5 -13 -10 -18 -16l8 -17l12 5c-2 7 -1 19 -1 26l9 9l5 -12h11l4 16c-3 8 -5 12 -4 22zM126 462l1 -10l20 -4c-3 9 0 22 2 29h-7s-3 0 -5 -1c-6 -3 -8 -10 -11 -14zM142 279l1 -8l16 -7l5 14c-12 11 -13 15 -31 8zM146 406l-15 -6l8 -11v-11
l6 1l6 6c-2 7 -3 14 -5 21zM162 324c1 -6 4 -16 7 -23c1 5 9 12 16 14l-14 10zM140 222l4 -16l22 -1l-4 10l-12 -4zM143 520c1 -6 0 -12 0 -18l9 5l9 -2l-2 6zM112 409l5 -4l2 10l-5 8l-4 -5zM142 260l-9 -3c2 -4 7 -10 10 -15c-2 5 1 11 -1 18zM126 370l1 -10l10 -1l-6 15z
M153 407l8 -10l6 3l-6 7h-8zM169 374l-2 -8h9l-1 9zM121 485l6 7l-13 2zM164 175l10 7l-13 2zM166 222l5 -3v15zM134 425l7 -2l-2 7zM294 303l8 2l10 -5l-3 -15l6 -3l-16 -11h-8l-6 -7l3 1l-5 -9l7 -11l15 16l10 2l4 13c-4 13 -1 26 0 39l-3 8l19 5h-8l-13 7l3 16l29 16v-11
l-21 -11l24 3c7 13 15 14 32 12l-2 6l-17 -1l-1 6l5 7l9 -3c3 8 5 15 -3 22l-6 1v6l-7 7l-18 -21l-14 1l-5 -8l-16 4l-10 -7l23 -8l-18 -11l5 -8c-2 -7 -12 -12 -15 -19l4 -6l8 5l10 -5l-2 -8l-7 -8c-8 4 -24 12 -23 22c-6 -3 -21 -15 -21 -21l14 3c4 -6 15 -10 20 -13z
M372 404l16 -3l12 15l10 -4l5 11l-12 8l-7 -6c-4 1 -8 3 -13 6c-1 -7 -9 -15 -11 -27zM359 427l-15 -3l-3 -16l3 -7c9 3 16 11 23 17zM348 368l-3 7l2 9c7 1 13 7 16 12l6 -12c-3 -3 -8 -8 -14 -7zM392 495l4 -8l11 8c0 7 0 17 -3 23c-4 -6 -8 -15 -12 -23zM267 245l-11 -17
l8 -2l16 8zM396 440l7 -9l9 7c-5 8 -12 22 -18 28l8 -19zM261 282l1 -7l5 -4l11 12l-1 8zM425 476l6 -3l1 8l-11 14l-6 -7c4 -3 8 -8 10 -12zM412 465l-4 -8l16 -26c-1 7 -5 13 -5 20v5c-2 3 -5 6 -7 9zM303 290l-9 13c-3 -3 -5 -7 -8 -11l8 -4zM295 226l-9 -1l-8 -8l6 -5h5
zM356 342l7 -4l6 2l3 7l-4 6c-4 -3 -8 -7 -12 -11zM402 534l-10 -5l17 -7v7zM443 573l-8 2l-6 -2c5 -5 7 -8 14 -9v9zM299 198l-9 3l-8 -8l1 -9l6 10zM309 253l17 -3v9c-6 -2 -11 -3 -17 -6zM306 224l-7 -8l6 -6l4 7zM462 561l-6 1l-8 -3l8 -6zM378 490l-2 -5l4 -5l5 7z
M261 208l-4 -8l4 -3l2 6zM332 405l-6 -7h9zM384 440l-6 -4l7 -5zM385 465v-4l5 -2l2 4zM337 316l-9 -1l15 -5z" />
    <glyph glyph-name="W" unicode="W" horiz-adv-x="866" 
d="M546 -3c-59 0 -122 37 -122 104c0 61 5 204 7 280c-148 -253 -208 -384 -227 -384s-83 35 -96 45c-10 8 -18 13 -18 35c0 7 0 27 1 53c5 119 19 495 19 557v17c0 13 13 18 19 18c48 1 70 -14 70 -45c0 -11 -4 -170 -11 -437c93 162 233 403 256 446c8 15 14 18 24 18
c37 0 108 -63 108 -77c0 -17 -20 -39 -50 -88v-29c0 -57 1 -155 1 -230v-43c108 180 276 458 279 462c4 5 7 9 12 9c27 0 108 -64 108 -82c0 -13 -8 -28 -12 -35c-48 -76 -334 -560 -345 -579c-5 -7 -11 -15 -23 -15zM735 468c-5 2 -8 6 -12 10l-10 1l-6 15l-3 -2
c-3 -8 -5 -18 -3 -27l8 3c8 -3 17 -6 24 -12c-2 -5 -5 -13 -10 -16l-9 6v10h-7c-5 -7 -5 -18 -8 -23h-8l-2 -22l-20 14v-12l14 -12l-5 -9c16 -9 7 -23 1 -39h9l5 3l5 -5c8 -1 16 2 22 9l-9 6l2 9l7 2l8 -15l6 3c-10 10 -16 19 -6 32l-11 23l1 -24l-8 -8l-3 35l13 13
c6 -2 14 -9 16 -15l-6 20c13 -3 29 17 42 21l11 13l-5 9l6 21h-15l-5 -8l-1 3l-2 -9c7 -12 4 -17 3 -29l-5 5l-11 -11l-9 6zM691 345c-4 -3 -9 -7 -13 -13c-7 -11 2 -11 10 -18v-8l11 -7l7 10l-8 8l6 20zM455 548l5 -9l23 22l-8 3h4l-43 11v-19l8 3l8 -4c1 3 6 4 9 4z
M659 359l7 -14l11 -2c1 10 3 20 2 29h-8zM474 526c-5 -3 -11 -3 -19 -3l3 -21c10 2 14 11 21 18zM695 379c1 5 9 9 15 7l-4 -9c3 -5 1 -12 0 -17l-12 -1c1 6 4 16 1 20zM625 279c-5 -6 -12 -16 -14 -23c6 1 16 7 22 10v13h-8zM778 544l-9 -18l18 -6l-1 19zM687 306l-12 1
l-4 -11l-19 -1c10 -3 23 -3 33 -2zM660 262c-6 0 -14 0 -18 1l-3 -10l20 -1l7 5zM668 287l-7 -8l10 -2c7 5 17 5 25 10h-28zM742 513l-7 -4l1 -16l7 2l5 16zM474 542l-3 -6l6 -2l6 -5l9 9l-9 4h-9zM735 468c5 0 12 2 17 3l-4 7l-6 6c-3 -3 -6 -8 -7 -10v-6zM797 520l6 -7
l7 13l-2 3l-8 3zM576 99l8 -5l2 9l-4 10l-6 -5v-9zM736 394c-1 -6 -2 -10 -2 -16l8 1l4 6l-3 6zM579 197l5 -5l9 5c-6 4 -8 5 -15 8zM595 259v-10l9 -5l7 6zM563 134l5 -6l5 4v8l-6 3zM569 167v-10c2 6 5 6 7 9c3 3 3 6 3 10h-4zM822 529l7 -6l-2 13l5 9l-7 -4zM788 484
l3 -16l9 2zM601 186l4 -4l3 10l-8 3zM813 513l-3 -9l8 1l3 7zM625 298l-4 -5l6 -3l3 6zM803 560l-3 -10l5 2l4 6zM611 242l6 -6c0 7 -3 11 -6 15v-9zM669 388v-6h7zM650 303l-4 -2l7 -5l1 5zM669 324l-1 -7l7 3zM743 435l7 -10l6 -1zM492 558l-5 -8l7 1zM666 343l-3 -6l6 -3
zM543 110l5 -7l1 6zM604 148l-6 -8l6 2v6zM724 484l4 -5l2 7zM756 449l-2 -6h2l3 3zM797 503v-4l5 -1zM707 349c-3 -1 -3 -5 -3 -7zM383 425c-3 -4 -9 -8 -13 -15c-6 -11 4 -13 10 -19l3 -10l13 -6l8 13l-11 6l3 23zM348 437l7 -14l13 -1c2 11 3 21 1 32h-9zM386 464
c3 -7 0 -16 -1 -23l14 2c0 6 2 14 -3 19l5 11c-5 1 -13 -4 -15 -9zM316 348c-6 -8 -13 -19 -13 -27c7 2 16 11 22 14v15zM354 333c-5 -3 -13 -3 -18 -1l-2 -10l20 -1l6 6zM274 147l9 -5l2 11l-5 10l-6 -6v-10zM431 482c-3 -4 -3 -10 -3 -17l9 2l3 7l-2 5zM285 324v-11l11 -4
l5 7zM271 254l6 -5l10 7c-6 5 -10 6 -18 8zM258 185l6 -7l3 4l2 10l-8 3zM283 218l1 -8c3 5 6 5 8 9c1 2 2 5 2 10l-5 1zM296 245l6 -4l1 12l-10 1zM314 369l-4 -5l8 -5l1 10h-5zM303 307l6 -5c1 7 -3 11 -8 15zM357 472l-2 -8l10 1zM236 158l6 -9l2 7zM121 313l12 -5
c2 19 3 19 22 29l-4 9c8 4 16 9 22 14l-7 19l-13 -4c1 -8 -2 -19 -2 -27l-10 -9l-4 13l-12 1l-6 -16c3 -8 4 -13 2 -24zM152 211l-1 11l-21 5c2 -8 -2 -22 -5 -29c3 0 6 0 8 -2c0 0 3 1 5 2c6 3 10 8 14 13zM152 407v9l-15 7l-9 -13c13 -13 14 -17 33 -12zM135 273l17 4
l-8 12l2 12h-7l-7 -6c2 -7 2 -15 3 -22zM116 360l11 -1c0 8 -3 18 -5 26c-3 -5 -11 -11 -18 -13zM160 465l-2 18l-23 4l3 -12l13 4zM112 163l16 -11c0 6 1 12 2 18l-11 -3l-9 2zM171 266l-4 5l-4 -12l5 -9l5 6zM154 426l11 3c-3 4 -7 10 -10 17c2 -7 -2 -12 -1 -20zM160 308
v12l-9 1l3 -17zM128 271l-7 13l-7 -3l5 -9zM114 309l3 8h-9l1 -9zM163 186l-6 -6l13 -4zM139 518l-11 -6l13 -3zM133 468l-5 5l-3 -16zM147 250l-9 3l3 -6z" />
    <glyph glyph-name="X" unicode="X" horiz-adv-x="498" 
d="M474 696c22 0 44 -47 44 -67s-27 -45 -45 -68l-143 -189c53 -200 87 -303 87 -319c0 -7 -1 -13 -8 -16c-22 -11 -82 -39 -107 -39c-11 0 -21 8 -25 21c-2 5 -28 86 -62 210l-180 -231c-8 -11 -21 -28 -27 -29c-12 0 -38 64 -38 86c0 32 65 97 215 292
c-36 136 -74 270 -86 317c0 28 94 50 116 50c38 0 42 -66 85 -226c91 118 153 208 174 208zM218 460c-5 -2 -9 -2 -14 -2l-9 -5l-12 5l-3 -2c3 -8 10 -19 16 -23l5 7c8 5 16 8 24 8c4 -4 7 -13 7 -17l-13 -3l-5 8l-6 -6c1 -7 9 -15 9 -22l-5 -6l14 -16l-24 -4l8 -8l18 2
l4 -11c18 3 20 -13 27 -26l7 5v5h9c7 6 12 13 8 22l-9 -3l-5 9l3 6l17 -4l2 5c-15 2 -24 3 -29 19l-23 10l19 -17l-1 -10l-26 21v18c6 3 15 3 21 2l-17 10c10 8 8 32 15 44l-3 16l-9 3l-10 20l-11 -11l3 -9l-3 3l4 -10c13 -3 15 -7 24 -17l-9 -2l1 -14l-12 -3zM273 340
c1 -5 0 -11 1 -17c2 -15 9 -7 19 -7l7 -6l11 4l-1 12l-11 -2l-10 19zM242 327l12 -3l12 5c-6 9 -11 17 -20 22l-4 -6v-18zM252 368c-2 5 1 14 6 15l4 -9c6 -2 10 -7 13 -11l-9 -11c-3 6 -7 14 -14 16zM275 246c-1 -7 1 -20 5 -26c4 6 6 17 7 22l-8 12zM299 309l-10 -8l4 -9
l-10 -15c8 6 17 15 24 23zM310 259c-3 -4 -10 -8 -13 -11l4 -8l15 11l1 8h-7zM298 283l2 -11l7 7c2 8 11 13 12 24zM192 497l-1 -8l11 -11l2 8l-6 14zM218 460c4 4 7 9 10 13l-6 4l-8 -3c-2 -3 -1 -8 2 -11c1 -1 1 -1 2 -3zM227 541l8 -3l-2 16l-5 1l-8 -5zM116 134l9 4
l-4 8l-11 6v-10zM272 408c2 -5 5 -9 9 -14l6 6l-3 8l-5 2zM267 213l8 -9l8 5v7zM299 156h8l1 9c-7 1 -9 -2 -16 -4zM79 153h8v8l-4 4l-10 -1zM133 206l7 -6c-2 5 -1 7 -1 11c-2 4 -2 7 -5 10l-4 -2zM238 564h9l-10 7l-4 11l-1 -9zM244 508l15 -10l4 8zM321 164l7 1l-5 9
l-7 -6zM242 547l5 -9l5 6l-3 8zM260 261l2 -6h7l-5 9zM203 572l3 -8l4 3l-2 9zM291 211h6c-4 5 -8 7 -14 6zM228 358l5 -8l5 6zM250 441l8 -2l7 3zM273 310l3 -7l4 7h-7zM256 321l4 -7l6 4zM80 118l10 -2l-4 5zM200 463l6 -1l-2 6zM248 459l2 -3h2l-2 4zM239 528l3 -4l3 3z
M283 355c0 -4 1 -6 4 -6zM390 521l3 -11l21 -4c-2 9 0 24 2 32h-8s-3 0 -4 -1c-7 -4 -10 -11 -14 -16zM409 585c1 -6 0 -13 0 -20l11 5l10 -1l-3 7zM377 545l5 8l-13 3zM361 488l-9 2l-6 -2c5 -5 7 -9 15 -10v10zM381 475l-7 1l-7 -4l7 -5z" />
    <glyph glyph-name="Y" unicode="Y" horiz-adv-x="498" 
d="M557 626c-3 -12 -11 -24 -23 -40c-39 -52 -175 -235 -189 -266c-2 -5 -5 -9 -8 -14c-24 -61 -53 -249 -65 -291c-4 -15 -8 -22 -20 -22c-23 0 -109 44 -124 59c-5 5 -10 12 -10 18c0 7 33 167 53 251l-9 26c-7 38 -43 206 -82 330c0 16 54 29 74 29c10 0 17 -2 19 -7
c4 -4 18 -55 66 -252l176 242c6 7 18 23 31 23c18 0 117 -63 111 -86zM174 547c0 -19 -1 -20 -20 -30l5 -9c-7 -5 -15 -11 -20 -17l8 -18l13 6c-1 8 0 19 0 27l9 10l5 -12h13l3 16c-3 8 -5 13 -3 24zM164 447v-9l17 -6l6 14c-13 12 -14 16 -33 8zM168 583l-16 -6l8 -12v-11
h7l6 7c-2 7 -3 15 -5 22zM185 496c1 -7 4 -17 7 -25c2 6 10 13 17 16l-14 10zM161 387l4 -17l24 -2l-4 11l-13 -4zM132 587l5 -5l2 11l-5 9l-5 -6zM164 427l-10 -3l10 -16c-2 6 2 11 0 19zM146 544l2 -10l10 -1l-6 16zM176 585l8 -12l6 4l-6 8h-8zM193 549l-3 -9h10l-1 10z
M187 336l10 8l-13 1zM189 387l6 -4v16zM155 604l8 -2l-3 6zM332 458l8 2l11 -5l-3 -16l6 -3l-16 -12h-9l-7 -7l3 1l-5 -10l8 -12l15 17l11 3l5 13c-5 14 -1 28 0 41l-4 9l20 6l-8 -1l-15 8l4 17l31 16v-12l-23 -11l26 3c8 14 16 15 33 13l-2 6l-18 -1l-1 6l6 9l10 -5
c3 9 4 17 -3 24l-7 1v7l-7 7l-20 -23l-14 2l-5 -9l-18 5l-10 -8l25 -8l-20 -12l5 -8c-2 -9 -12 -12 -15 -20l3 -6l9 4l11 -4l-2 -9l-8 -8c-9 4 -25 12 -24 23c-6 -3 -22 -15 -22 -22l15 3c4 -6 15 -11 21 -14zM414 565l17 -4l13 17l11 -5l4 12l-11 7l-8 -5c-4 1 -9 3 -14 5
c-1 -6 -10 -14 -12 -27zM401 588l-16 -2l-4 -17l4 -8c9 4 17 12 24 18zM389 527l-3 7l2 10c7 1 14 7 17 12l6 -12c-3 -4 -9 -9 -14 -8zM190 180l3 -9l12 9c1 8 0 18 -2 25c-5 -7 -10 -17 -13 -25zM302 397l-10 -18l8 -3l17 9zM440 602l7 -10l10 9c-6 8 -13 23 -19 29l8 -20z
M297 436l1 -7l5 -5l11 13l-1 8zM224 160l7 -3l1 8l-12 15l-7 -7c5 -4 10 -8 11 -13zM457 629l-5 -8l17 -28c-1 7 -5 14 -5 22c-1 1 0 2 0 4c-3 3 -6 7 -7 10zM341 443l-9 15c-3 -3 -6 -8 -9 -12l9 -4zM332 376l-9 -1l-9 -8l7 -5h5zM398 499l7 -4l6 2l4 7l-5 6
c-4 -2 -8 -7 -12 -11zM200 222l-10 -6l17 -8v8zM338 347l-10 3l-9 -9l1 -9l7 11zM348 405l18 -3l-1 9c-6 -1 -11 -3 -17 -6zM344 374l-6 -8l5 -6l5 7zM421 656l-3 -6l4 -5l6 7zM296 357l-4 -7l4 -5l3 7zM372 566l-7 -8h10zM427 602l-6 -4l7 -4zM428 629v-4l5 -3l2 5z
M378 472l-10 -2l15 -4z" />
    <glyph glyph-name="Z" unicode="Z" horiz-adv-x="518" 
d="M86 662c0 13 12 16 21 16c43 4 250 34 302 39c7 1 14 1 19 1c10 0 12 -8 19 -15c26 -5 109 -26 112 -41c7 -14 9 -22 9 -28c0 -12 -17 -32 -33 -50c-64 -71 -289 -365 -377 -489c134 20 189 33 221 33c21 0 64 -48 64 -71c0 -5 -2 -9 -6 -11c-310 -45 -331 -48 -364 -48
c-31 0 -113 41 -113 66c0 10 8 30 27 52c76 88 297 386 393 502c-41 -3 -96 -6 -176 -12l-37 -4c-29 0 -81 53 -81 60zM243 398l1 -2c-4 -4 -9 -5 -13 -8l20 -20l6 27l10 -3c7 5 10 20 17 24l9 -1l-3 -11l8 -11c6 3 15 11 18 17c-7 7 -17 14 -28 20h-10c-1 0 -1 0 0 1
c-13 -12 -22 -24 -35 -33zM232 292c-4 -2 -11 -6 -17 -11c-13 -12 0 -15 5 -26l-2 -10l11 -8l12 8l-7 10l11 22zM199 315l3 -16l14 -7c4 11 11 23 12 35l-12 1zM249 331c0 -8 -6 -19 -9 -25l16 -1c3 6 5 13 4 20l8 10c-6 3 -16 1 -19 -4zM136 231c-8 -5 -18 -15 -22 -22
c8 -1 20 5 26 7l7 15h-11zM375 539l-15 -21l18 -9l4 21zM216 246l-13 5l-8 -10l-24 2c12 -6 28 -9 40 -11zM172 203c-7 0 -14 2 -20 6l-6 -12l23 -5l9 3zM188 229l-9 -7l11 -5c10 4 21 0 34 3zM341 474l-8 -3l-4 -19l10 2l10 15zM321 424c6 -2 14 -1 20 -2l-2 9l-6 8
c-6 -2 -10 -7 -11 -9c-2 -3 -1 -5 -1 -6zM391 506l4 -10l12 11l-3 6l-8 4zM303 336c-3 -5 -7 -13 -9 -19l8 -1l7 7v7zM97 218l-1 -13l6 -8l8 4zM288 441c4 5 5 8 8 12l-1 9l-3 -2c-2 -4 -5 -8 -6 -10c-3 -6 -6 -12 -8 -18c2 3 3 5 5 7c-1 1 1 5 5 2zM420 510l7 -12l1 16
l10 9l-12 -2zM370 466l-3 -22l10 2zM407 492l-6 -11h9l5 8zM142 257l-5 -6l6 -8l5 11zM408 551l-7 -12h7l7 8zM110 192l6 -6c2 7 -2 12 -3 19zM219 349l-4 -8l12 -3zM174 254l-6 -2l5 -7l3 5zM201 273l-4 -8l10 1zM321 381l4 -11l8 -5zM313 445l2 -7l6 7h-8zM385 484l-2 -4
l4 -3zM232 391l-5 -11c1 3 4 6 4 8zM279 43l3 8l-6 8l-8 1l2 -11zM362 44l-5 9l-12 5l-4 -5c6 1 7 -8 21 -9zM270 81v9l-9 6l-3 -8l5 -5zM304 73l-1 9l-5 -5zM235 72l-10 5l6 -6zM251 643l9 3l2 18l-15 4c-9 -16 -13 -18 -3 -36zM312 652l17 8l-3 24l-10 -5l7 -13zM271 647
l5 -9c4 4 10 9 15 14c-6 -3 -12 -1 -20 -5zM360 690l-10 8v-14zM307 681l3 7l-16 -3z" />
    <glyph glyph-name="bracketleft" unicode="[" horiz-adv-x="407" 
d="M445 557c1 0 2 -3 2 -4c0 -3 -1 -5 -3 -6l-29 -3c-18 -2 -46 -1 -81 -5c5 -5 4 -9 2 -15c-12 -50 -162 -460 -212 -595c48 -7 100 -23 100 -26s-3 -6 -23 -7c-69 -4 -84 -3 -141 -3c-47 0 -90 14 -90 48c0 4 1 9 3 14c52 152 167 444 221 605c7 20 14 23 33 24
c95 -4 101 -4 218 -27zM210 387c-2 -8 -8 -13 -10 -21c-7 -22 15 -13 17 -22c2 -2 2 -6 3 -9l17 -4l7 16l-14 6v26zM165 392l14 -13l16 1c-3 13 -7 26 -7 39l-13 -4zM148 278c-4 -10 -9 -22 -10 -34c9 7 17 16 24 24l-3 18zM219 333l-14 -2l-4 -13l-22 -9c2 0 11 -2 11 -2
c10 2 23 6 33 11zM199 270c-7 0 -12 -5 -24 -5l-1 -14c13 2 23 4 34 13zM200 304l-4 -12l14 1l7 9c7 0 18 8 21 11zM244 416h-5l-28 -14c2 0 8 -4 8 -4h11c5 4 11 12 14 18zM146 80l11 -4c0 14 -7 18 -7 27l-9 -12zM117 244l3 -14l12 -2l7 9zM97 49l5 -11l6 13v13h-7z
M112 164c3 -3 8 -8 14 -11l7 7l-7 9zM119 122l7 -5l6 7l-4 7l-8 4zM143 161c0 -8 7 -9 12 -13l1 13h-13zM190 351v-11l10 10zM144 226l11 -4l-12 16zM170 320v-7h9l-2 6zM196 395h10l4 7zM181 378l-2 -10l7 -4zM99 85l9 -6v6h-9zM232 398c-2 -2 -3 -6 -3 -10z" />
    <glyph glyph-name="backslash" unicode="\" horiz-adv-x="480" 
d="M386 27c-13 -5 -74 -27 -91 -32h-3h-4c-19 0 -31 17 -40 58l-159 575c-3 10 -9 22 -9 31c0 37 106 59 118 59c22 0 26 -24 34 -53c25 -94 137 -509 161 -588c4 -13 7 -21 7 -28c0 -10 -6 -18 -14 -22zM255 301l-11 -9c6 -10 6 -16 7 -25l10 -14l13 4l-1 14l14 -5
c4 -8 8 -18 11 -27h15v22c-8 3 -17 5 -27 8l2 10c-22 3 -25 3 -33 22zM243 396l-1 12c-5 3 -10 7 -19 9c-2 0 -6 -1 -6 -1c-1 -2 -4 -3 -7 -4c6 -7 15 -19 15 -28zM311 197l-3 9l6 11c-21 0 -21 -5 -30 -22l14 -11zM264 340l-19 -2c1 -7 3 -15 5 -24l9 -3l6 2l-4 12z
M266 246l-10 -5l-9 -15c7 -1 18 -4 22 -8c-1 9 -1 21 -3 28zM339 130l-3 18l-5 -17l-15 -2l1 -12zM197 460l-13 -16v-8l9 6h13c-4 7 -6 11 -9 18zM277 351l3 7l-1 10l-8 3l-2 -10zM328 187l-11 -1c0 -9 6 -12 7 -19c1 7 3 14 4 20zM287 297l-3 13l-8 3l2 -20zM235 321l1 16
l-8 -4l-2 -9zM241 287l-5 8l-7 -2l3 -9zM237 441l8 -4l3 11zM319 89l13 -3l-1 12zM303 129l6 6l-11 10zM243 359l6 6l-6 2v-8zM175 603c-14 6 -19 -6 -19 -6l14 -6s9 -4 14 8l4 10l-10 3zM190 596l-9 -23l9 -4l14 -6c4 11 9 23 9 23c-14 6 -14 6 -19 -7c1 0 -10 4 -4 17z
M162 575l11 -17l9 23zM180 525c5 12 9 24 9 24l-16 -8c-4 -11 7 -16 7 -16zM209 527l8 -3c5 12 -3 15 -14 32c11 -17 6 -29 6 -29z" />
    <glyph glyph-name="bracketright" unicode="]" horiz-adv-x="393" 
d="M-22 -76c21 0 43 10 49 29c17 49 150 457 184 568c-41 7 -87 19 -109 22c31 28 143 16 186 10c52 -7 75 -13 75 -31c0 -8 -2 -19 -6 -31c-47 -135 -142 -445 -181 -560c-15 -43 -26 -55 -61 -55c-74 0 -123 15 -195 30c5 4 7 17 58 18zM187 141c9 0 16 -3 25 -3l10 -15
c8 2 1 27 -2 33c-5 -5 -9 -6 -16 -7l-19 7l1 11l7 8l9 -4l2 -12l8 4c3 11 0 19 3 27l8 3l-5 19l25 -8l-4 12l-16 9v13l-9 5l-2 32h-9l-4 -6l-6 4h-8c-7 -4 -10 -11 -12 -15l12 -2v-10l-8 -7l-12 13l-5 -3l15 -11l3 -10l-3 -12l18 -20l-8 25l5 10l12 -35l-9 -14l-15 3l-6 8
l13 -22l-12 -2c-5 -10 -14 -26 -27 -30l-5 -17l5 -7v-22l15 3l4 11l3 -4c0 4 -5 19 -9 19l-4 19l6 -3l9 13l11 -2zM200 282c3 4 7 9 7 16c5 13 -5 12 -12 16l-4 7l-13 4l-5 -12l13 -6l-1 -20zM234 277l-9 10l-13 -1c3 -10 3 -21 5 -30l10 3zM203 246c0 -7 -8 -12 -13 -12
l3 12l-5 4l-1 10l13 5s-1 -4 -1 -5c0 -4 1 -10 4 -14zM162 52l4 24l-20 -1l8 -18zM193 323l11 4l3 10l18 5c-2 0 -7 1 -10 1s-19 -5 -25 -6zM250 367l7 27c-6 -6 -14 -11 -20 -19l4 -14zM215 378h12l3 10c-10 -3 -19 -3 -28 -10l9 -4zM191 94l6 8l-6 14l-6 -4v-17zM207 346
l5 10h-12l-5 -8l-8 -2l-10 -7zM187 141c-6 -1 -12 -3 -17 -6c3 -6 7 -6 15 -10c2 6 2 12 2 16zM138 60c0 8 -3 12 -7 19l-7 -15c3 -3 10 -4 14 -4zM166 219c0 5 0 10 -3 15l-8 -2l3 -11zM274 394l-3 11l-10 1l-5 -6zM118 76l1 10l-8 -1l-2 -10zM253 346l4 6l-7 3l-1 -9h4z
M112 57l-6 4l5 -11l-4 -11l5 6v12zM169 175l-8 8l-7 -1zM233 239l-2 11l-7 -2zM252 409l-8 3c3 -3 6 -10 9 -13zM215 310v8l-8 -7zM142 32v10l-7 -11zM231 333v6l-6 1l1 -6zM224 288l1 8l-5 4zM132 91v4h-5zM184 273c1 1 2 4 2 6z" />
    <glyph glyph-name="asciicircum" unicode="^" horiz-adv-x="419" 
d="M234 556c-27 -20 -144 -160 -160 -175c-5 2 -23 13 -23 27c-1 8 6 13 18 27c49 57 216 259 224 259c1 0 5 -3 8 -7c36 -52 134 -203 137 -225c4 -25 -45 -98 -69 -98c-1 0 -2 0 -3 1c0 0 -116 164 -132 191zM312 594l-12 -2l5 -12l12 -10l4 15zM278 591l-22 22l-5 -37
l19 -29l15 7zM400 476c-5 4 -12 1 -17 6l-5 -10l11 -5zM356 565l-9 2l-3 -10l6 -7l9 1zM361 473l-8 1l3 -13l13 5zM351 416l-4 6l-4 -6l8 -4v4z" />
    <glyph glyph-name="underscore" unicode="_" horiz-adv-x="329" 
d="M289 -145c0 -25 -2 -27 -33 -30c-46 0 -203 -7 -274 -7c-42 0 -105 8 -112 14c7 10 11 28 51 28c76 0 164 11 273 11c51 0 93 -6 95 -16zM5 -155v11h-11v-11c0 -14 11 -14 11 -14h17s0 14 -17 14zM80 -168v28c1 -15 -11 -15 -10 -15c0 15 0 15 -17 15v-28h17h10zM28 -168
l17 13l-17 14v-27zM87 -157c0 0 9 -11 20 -3l3 18zM129 -153l9 -6s7 12 29 13c-22 -1 -31 4 -38 -7zM38 -170c0 0 3 -4 7 -1l1 7z" />
    <glyph glyph-name="grave" unicode="`" horiz-adv-x="230" 
d="M90 611c0 21 42 78 48 78c3 0 9 -2 13 -4c139 -92 139 -94 139 -98c0 -18 -33 -60 -40 -59c-1 0 -2 1 -145 67c-7 3 -15 10 -15 16zM152 679l-10 -24l8 -24h10l4 23zM210 631l-16 17l-13 -12s-9 -9 -12 -14c4 4 8 5 12 5c6 0 10 -1 15 -1c4 0 8 1 14 5zM229 609l-8 14
l-18 -14c7 -6 10 -10 13 -10c4 0 6 4 13 10zM143 657c0 0 -8 -7 -8 -17c0 -18 4 15 4 -43l17 12c-12 13 -16 15 -16 27c0 5 2 12 3 21zM225 575l-9 12l-13 -12s5 -7 11 -7c3 0 7 2 11 7z" />
    <glyph glyph-name="a" unicode="a" horiz-adv-x="544" 
d="M553 675c28 -11 21 -28 13 -53l-82 -243l-94 -283c-24 -77 -25 -99 -49 -99c-16 2 -116 10 -116 40c0 14 15 59 54 172c-103 -23 -133 -32 -152 -32h-5c-96 -124 -124 -156 -134 -156c-22 0 -58 45 -58 58c0 8 5 16 9 22c29 34 380 496 458 592c12 14 19 23 25 23
c7 0 14 -2 21 -4c6 -2 59 -18 110 -37zM388 527l-210 -276l121 22zM352 153l-8 4l-3 -10c3 -1 6 -2 7 -2c3 0 3 2 4 8zM425 325c-3 -1 -6 -2 -9 -2c-5 0 -10 3 -10 7c0 1 1 1 1 2l-9 4s-2 -5 -8 -5c-1 0 -3 0 -5 1c5 1 6 1 6 2c0 0 -2 0 -6 2c2 2 6 2 11 2l-6 14l-15 -8
c3 -3 5 -6 5 -6c-1 -2 -1 -4 -1 -6c0 -5 4 -9 12 -9c4 0 8 1 14 2c4 -3 9 -5 13 -5s6 2 7 5zM405 304c0 0 2 -1 5 -1s6 1 9 4l-10 5s1 1 1 5c0 2 -1 5 -5 8c-3 -6 -4 -10 -4 -13c0 -8 4 -8 4 -8zM467 493v-2l-9 -6c4 -1 4 -1 6 -1c-2 -3 -4 -5 -4 -9l6 -2l-2 -5
c2 -1 3 -2 5 -2c4 0 7 3 11 3c1 0 3 0 5 -1l-16 7c0 8 5 9 16 11l-8 5s1 3 1 5c0 3 -1 6 -5 8zM364 223c-2 -3 -5 -5 -8 -5s-5 2 -5 2l5 -13zM328 166l15 6l-10 3zM407 346l-9 4c-2 -3 -3 -5 -3 -5c0 -1 0 -1 1 -1c2 0 5 1 11 2zM378 258c-4 -8 -6 -11 -6 -14
c0 -1 1 -1 2 -1s5 1 10 4zM398 289l11 -3c-3 6 -5 9 -6 9c-3 0 -15 -15 -18 -20c6 3 13 5 13 14zM374 288h6h4l-28 12c-2 -6 -4 -9 -4 -11s3 -3 8 -5c-17 -31 -25 -10 -25 -22c0 -2 2 -3 8 -6l1 6h2c5 0 10 6 10 8l2 -2l-3 -7h1c0 -3 -1 -3 -4 -5l10 -4c1 -1 1 9 8 9l2 5
c1 -1 2 -1 4 -1c7 0 14 5 14 5c-17 8 -5 10 -16 18zM310 193c-2 -2 -3 -4 -3 -5c0 -3 3 -3 8 -6c0 0 2 8 15 16c-1 0 -2 1 -2 1c-6 0 -10 -6 -15 -6h-3zM510 600l-1 -9l-4 -9l5 -3c2 4 4 7 4 10c0 2 -2 6 -4 11zM355 348c1 -12 1 -17 7 -29c2 4 2 6 2 8c2 -1 3 -1 4 -1
c2 0 2 2 6 6l-10 3c-2 3 -4 6 -4 11l2 -2l2 2s1 -1 1 -2l-1 -1c3 1 9 3 11 9c1 -1 3 -1 4 -1c4 0 4 4 7 4c2 0 3 0 5 -1v2c2 -2 2 -6 7 -6l3 9l-8 5l3 8c-4 -1 -6 -2 -7 -2c-2 0 -2 1 -2 2c14 10 33 6 39 26c-9 2 -17 5 -17 5s-1 -2 -1 -4c0 -1 0 -2 1 -4l-8 4
c5 12 7 16 11 16c0 0 2 0 5 -2c5 2 6 2 6 3c0 5 -8 6 -20 11c1 1 1 2 1 2c0 2 -2 2 -4 2s-7 -1 -7 -1c-5 -15 -7 -15 -6 -15l-7 1c-21 -6 -14 -4 -14 -8c0 -5 4 -9 4 -13v-4l2 -2l-12 -7l6 -2l-2 -8c20 3 11 -5 18 14c2 0 3 -3 5 -3c-4 -3 -5 -5 -5 -8c0 -1 0 -2 2 -7l-4 -9
h-2v0l-14 -7c-4 2 -6 3 -7 3s-5 -3 -5 -7h3zM483 584c2 6 8 7 8 8c0 0 -1 0 -4 1l-14 -4zM414 457c-1 0 -2 -1 -2 -3c-5 0 -7 0 -11 2c-2 4 4 -10 -11 -10l8 -4c6 0 11 10 19 10c2 0 4 -1 6 -2h3v-2l-1 -2l1 -2c3 -2 3 -2 4 -4l-18 8c4 -10 15 -9 15 -13c0 -1 0 -2 -1 -3
l6 -2l-6 -1l6 -14c3 8 5 9 12 15c2 -1 6 -3 10 -3c-2 4 -4 7 -4 10c0 6 5 -3 14 17c-13 -7 -14 -11 -14 -12v2c-1 1 2 -2 -3 -2c3 1 3 4 7 10h-1c1 0 1 2 2 5l-7 5l12 6l-6 2c1 1 4 1 4 5l-16 6c0 -3 2 -6 4 -8l-11 5l2 6l1 -1v1c0 3 7 5 7 10c0 2 -2 3 -4 3s-6 -2 -6 -2
c-4 1 -5 2 -7 2s-3 -2 -5 -8l6 -3c-3 -1 -3 -2 -4 -5l5 -11l8 -4l-3 -9c-5 0 -5 4 -9 4s-8 -1 -12 -4l3 3zM505 540l-12 -6l-1 -8c12 -4 -3 0 17 -6v2c0 4 -5 8 -5 14c0 1 0 3 1 4zM505 561c-5 2 -9 3 -10 3c-2 0 -3 -2 -6 -7l-4 -9l12 -5zM466 536c3 0 11 0 11 6l-8 4
c-2 -8 -3 -10 -3 -10zM456 567l-3 -9c1 6 2 8 5 8c2 0 5 -1 10 -4l4 10zM481 549v6c0 7 0 10 -3 10c-1 0 -4 -3 -6 -7l1 -5l4 -11c6 1 8 3 8 4c0 3 -4 3 -4 3zM311 108c-4 1 -4 5 -4 8v4l-6 -18c2 5 3 7 6 7c1 0 3 0 4 -1zM325 163c-8 -2 -11 -3 -14 -3c-1 0 -4 0 -8 1
l7 -12s2 6 8 6c1 0 3 0 5 -1zM298 164l-4 -10l7 -3c2 4 2 6 2 8s-1 3 -5 5zM311 130c3 -2 5 -3 6 -3c2 0 3 3 6 9h-3c-6 0 -9 -6 -9 -6zM323 136c-1 -2 -1 -3 -1 -4c0 -6 12 -2 19 -5c-5 8 -11 9 -14 9h-4zM216 440l11 -8c-8 -11 -8 -11 -27 -14c2 -2 6 -3 8 -3
c8 0 16 6 30 6c0 19 0 19 -22 19zM257 443c17 3 17 3 25 11c-11 9 -17 0 -27 9zM197 393l-11 -10c4 -3 6 -4 9 -4c4 0 6 1 10 1c3 0 5 -1 8 -4c-2 4 -8 9 -8 9zM117 223h13l-8 8zM174 368c4 -4 6 -6 9 -6c1 0 3 2 8 6l-12 9zM230 400c1 -7 2 -11 2 -15c0 -7 -3 -9 -11 -17
l11 -7c0 37 3 15 3 27c0 7 -5 12 -5 12zM257 432l-19 -23c8 9 19 0 31 12h-5c-4 0 -10 0 -10 4c0 2 1 5 3 7zM176 346c3 -2 6 -4 8 -4c4 0 7 4 7 4l-8 8zM190 360c0 0 5 -6 18 -6c2 0 6 0 9 1l-19 16z" />
    <glyph glyph-name="b" unicode="b" horiz-adv-x="588" 
d="M106 -12c-23 0 -126 21 -126 48c0 7 3 13 7 23l221 626c6 19 10 27 19 27c140 0 371 -91 371 -209c0 -17 -7 -26 -18 -37c-10 -9 -162 -88 -238 -127l72 -29c58 -25 111 -91 111 -134c0 -19 -7 -31 -21 -38c-8 -4 -262 -113 -347 -139c-18 -6 -38 -11 -51 -11zM408 216
c-13 17 -119 53 -177 80l-63 -176c105 35 237 84 240 96zM483 544c-12 19 -79 46 -145 63l-59 -171c85 40 202 99 204 108zM170 269l3 7l-8 2l-9 -3c0 -2 3 -3 14 -6zM71 210l11 -3l1 7c-2 1 -4 1 -5 1c-6 0 -7 -5 -7 -5zM155 281l10 -3l-7 12zM179 534l-4 -7l7 -1v2
c0 2 0 5 -3 6zM169 290c4 -2 6 -2 8 -2s3 1 4 4l-11 3zM83 243c3 -4 5 -5 6 -5c3 0 4 2 4 2c2 -1 4 -1 5 -1c2 0 2 1 4 7c-5 -4 -8 -5 -10 -5c-3 0 -5 1 -9 2zM129 276l7 -1l2 6l-7 2zM129 302l-12 3h-1s7 5 11 9c0 0 -1 1 -3 1c-1 0 -1 0 -2 -1v5l-12 -12c-8 1 -12 1 -17 1
c-4 0 -7 -1 -7 -2s6 -4 8 -8l4 -1l-6 -13h3c4 0 7 3 7 5l4 -5l4 8c2 0 7 -3 12 -3c0 4 -3 4 -5 8zM134 317c-5 -13 -5 -12 -5 -12c1 0 0 -3 2 -3s4 2 10 3c0 0 -8 1 -8 8c0 1 0 3 1 4zM163 348l-8 2c6 -9 16 -6 15 -10l3 5v1c1 -1 2 -2 3 -2c0 0 0 1 1 1l-2 -5l18 -6
c1 10 3 12 5 14h-1l1 5l-16 5l-1 -1l-4 1v-1h-2v1c4 2 4 2 6 2c1 -1 1 -1 3 -1c14 0 15 9 15 9l-1 1c-1 0 -3 2 -6 2c0 0 -2 0 -2 -1c0 0 -3 2 -4 2l1 9h-4c-2 0 -3 -1 -4 -4c1 3 1 4 1 5c0 3 -1 5 -5 11c0 -4 -1 -5 -2 -7c-8 11 -11 11 -11 23l-6 1s-2 -9 -11 -8
c0 0 2 -1 10 -2l-5 -14l11 -4v-1c-11 0 -13 -5 -13 -5s-1 0 -2 1c2 0 2 3 2 3l-7 2v-5c-2 -1 -2 -1 -4 -1c-1 0 -2 0 -3 1c2 4 4 8 4 11l-5 4c-2 -4 -3 -8 -3 -12s1 -6 4 -8l-1 -4c-2 -3 -2 -3 -2 -4l10 -4l2 5c1 -1 2 -1 2 -1c3 0 7 4 11 4v0c0 -6 -4 -4 -4 -9
c0 0 1 0 2 -1l2 1c3 0 0 -3 5 -3c0 0 1 0 1 1v5c0 -1 1 -1 2 -1c2 0 4 2 5 3zM141 331c5 -10 5 -10 14 -12c0 9 -6 8 -14 12zM185 491c-2 1 -4 2 -6 2c-4 0 -8 -2 -12 -6l8 -3l10 -2c5 -1 7 -1 7 -3s-1 -4 -2 -7c0 0 4 3 4 6c0 2 -1 3 -1 4c0 3 -5 16 -8 16
c-1 0 -1 -1 -1 -2c0 -2 1 -3 1 -5zM92 284l-6 11l-1 -8zM165 328c0 0 4 7 8 7h1c0 1 -3 1 -5 3zM275 549l12 6l-17 5v-3c0 -6 5 -8 5 -8zM153 345c-8 1 -8 1 -13 10c-2 -5 -2 -5 -13 -12c3 2 5 3 6 3c6 0 9 -3 13 -3c2 0 5 0 7 2zM126 334l1 9l-8 3s-2 0 -5 -1l1 1l-1 1
c-1 0 -4 0 -5 1l-4 -7l4 -1l-2 -7c1 3 2 5 4 5c3 0 7 -1 15 -4zM110 321l-3 12l-9 3s6 -12 12 -15zM207 493l-4 -9c1 -1 1 -1 2 -1c6 0 9 8 9 8l1 7v3v1c-2 0 -4 0 -6 -3c2 9 2 9 11 15c-5 2 -5 6 -12 6c-1 0 -3 -1 -6 -9l9 -3c-5 -2 -7 -6 -7 -9s3 -6 3 -6zM174 424
c-5 -4 -7 -6 -7 -8s2 -6 3 -10l3 8c0 1 1 3 1 3c1 0 3 -2 5 -2h-1s5 4 5 7s-5 5 -7 5s-2 -1 -2 -3zM145 267l-11 4s-4 -4 -4 -7c0 -1 1 -1 3 -1l8 -4l7 -2s1 2 1 5c0 1 -1 5 -4 5zM179 405l7 -2l4 7h-4c-4 0 -9 0 -16 -4l-3 -6zM104 200c-11 0 -13 10 -14 10v-1
c0 -7 3 -14 3 -14zM236 505l-2 -2l-3 -7c1 0 7 -1 10 6c2 -1 3 -2 5 -2c3 0 6 1 9 3l-7 2s-3 0 -4 3h-3c-3 2 -5 2 -9 2c2 -2 2 -4 4 -5zM188 412c48 0 37 10 41 16h-41c-5 0 -6 0 -6 -1s6 -5 6 -15zM554 537v9h-9v-9c0 -13 9 -13 9 -13h15s0 13 -15 13zM538 512v24
c1 -13 -10 -13 -10 -13c0 13 0 13 -13 13v-24h13h10zM540 496l15 11l-15 13v-24zM522 470c0 0 12 0 12 12l-12 12v-24zM498 563v-10h14v10h-14zM488 482h10s0 12 14 23c-14 -11 -24 -11 -24 -23zM138 437c0 -19 -21 -19 -21 -42c21 0 21 23 42 23c-21 0 -21 19 -21 19z
M144 450c16 0 16 0 16 -19c19 19 19 19 40 19v19h-21c-19 0 -19 -19 -35 -19zM221 398c0 -5 -1 -9 -1 -11c0 -6 2 -6 16 -6c0 6 -1 10 -1 12c0 11 2 14 2 14c-1 0 -4 -4 -16 -9zM210 450c-16 0 -16 -16 -16 -16s42 0 42 16h16l-42 23v-23z" />
    <glyph glyph-name="c" unicode="c" horiz-adv-x="547" 
d="M587 625c-3 -15 -22 -188 -45 -188c-21 -3 -112 36 -112 66c0 2 2 18 9 56c-148 -59 -260 -251 -260 -389c0 -45 6 -74 30 -105h5c26 0 84 19 117 19c16 0 95 -11 98 -31c-1 -6 -4 -11 -11 -17c-15 -12 -128 -33 -190 -33c-154 0 -188 143 -188 235
c0 224 240 393 341 444c33 16 67 27 92 27c1 0 3 0 7 -2c21 -6 102 -41 107 -82zM273 490c-4 5 -10 10 -16 10c-2 0 -5 0 -7 -2h8v-8c4 -4 5 -7 7 -7s4 3 8 7zM219 534c0 0 -7 0 -7 7v-7c-16 0 -2 -9 -15 -9h6h16l8 9h-8zM243 502h-31c0 -8 7 -8 7 -8c4 5 8 6 12 6
c5 0 1 -9 10 -9c1 0 2 2 2 3h7c-7 0 -7 8 -7 8zM287 541v7h-7v-7h-8l8 -10c0 10 7 10 7 10zM201 494c0 0 7 -9 14 -9c-7 9 -7 9 -7 16zM335 524v8h-8v-8s-6 0 -6 8v-15c6 0 6 7 14 7zM185 510c6 0 6 0 6 -9h10c-10 9 -10 9 -10 17h-6v-8zM327 509v8h-6c0 -8 6 -8 6 -8z
M308 557c-8 0 -8 -7 -8 -7h8c8 0 8 0 8 7c-2 -2 -6 -3 -6 -3c-2 0 -2 3 -2 3zM332 543v7c-9 0 -9 0 -9 -7h9zM250 511c0 18 -19 17 -23 17c7 -8 7 -8 7 -17h-7c7 -6 15 -6 15 -6c0 6 8 0 8 6zM259 551l-8 8c-8 0 -8 0 -16 -8c0 0 8 0 8 -8h8c8 0 15 0 24 8h-16zM316 496v9
s-8 -9 -16 -9c3 -2 4 -3 5 -3c4 0 5 3 11 3zM316 535h-8h-23v-16c12 12 18 3 31 16zM180 494h-6h-7v-15c7 0 13 8 13 15zM140 392v-2c-2 -3 -5 -3 -5 -4v4v0c0 -1 1 -1 1 -1v1v2s0 1 1 3l2 8h-9v2v-2c-2 0 -3 1 -6 2l2 3h2v3c1 2 2 4 4 4c-2 0 -3 -1 -4 -2v4
c-1 -4 -5 -9 -10 -9v-2l-1 -2h5l1 -4c-3 -1 -3 -2 -3 -3c0 -2 0 -4 3 -5h-1c-4 0 -7 0 -7 1s1 2 3 3c-7 0 -7 -4 -7 -4l7 -6l5 6c0 -1 0 -2 1 -2h3c-3 -3 -4 -5 -4 -8c2 0 4 1 6 3c0 -1 0 -2 1 -3l-6 -4c0 1 0 1 -1 1c-9 0 -9 -3 -9 -13h25l-2 -2h2h2s-2 -2 -2 -5
c5 0 11 0 11 5h5c0 -4 1 -5 5 -10c-5 0 -5 0 -5 -4c0 0 4 3 8 4v-3h3v-23c2 12 14 12 14 12l-2 6v2c0 2 3 2 4 3h-4l6 6h-6c-3 -4 -4 -5 -5 -6c0 1 -2 2 -3 2l4 3h-11v-2h-3c6 6 6 12 6 12c-2 2 -3 3 -4 3c-2 0 -3 -3 -6 -3v1c6 1 10 4 10 11c12 0 27 -12 27 -12
c3 0 6 1 21 12c-7 0 -11 1 -14 4c3 1 6 4 10 4v10c-5 -3 -8 -8 -13 -11c-1 2 -2 3 -4 7c-15 0 -25 -13 -37 -14v9l-3 -5c-1 8 -1 10 -10 10v2l-1 -2h-2zM206 457l25 -8v8h9c6 0 6 8 6 15h10l-10 7c0 -3 0 -4 -1 -4c0 0 -2 1 -5 4c-15 0 -10 -14 -24 -14c0 7 0 7 -7 7h-7
l-17 -15h-23s-4 3 -4 6c0 1 1 1 3 2c-7 0 -13 0 -13 7c-9 -7 -9 -7 -9 -15h16v-16h30c0 -7 0 -7 7 -7c0 0 10 0 10 7zM209 448l-8 -22s-7 0 -7 -10h7c8 0 14 0 14 -6v-7h10c6 0 6 -8 6 -8s10 0 10 8h-10s-3 2 -3 6c0 -2 10 17 13 17v14c-1 -8 -10 -8 -10 -8
c0 12 -22 9 -16 16h-6zM188 291v9h-9v7c-6 0 -14 0 -14 -7c0 7 -8 7 -8 7l-16 -16v-7c8 0 20 17 24 16c8 0 8 -9 14 -9v6c1 -6 9 -6 9 -6zM161 280c-15 0 -15 -17 -32 -18h17zM125 363c0 10 -18 23 -27 24c9 -5 20 -24 27 -24zM137 239c-10 0 -10 -9 -10 -9h16s0 9 -6 9z
M154 334v-15l7 7s0 8 -7 8zM141 319c0 0 -7 0 -8 9v-9h-2v-9h7c-2 4 -3 4 -3 5zM258 454c-8 0 -8 0 -8 -7h8v7zM173 223c-6 0 -8 4 -8 6v-6c8 0 8 -8 8 -8l6 8h-6zM158 269c7 -7 7 -7 16 -7l-9 7h-7z" />
    <glyph glyph-name="d" unicode="d" horiz-adv-x="648" 
d="M675 484c-17 -207 -495 -491 -583 -494c-48 -2 -112 13 -112 46c0 3 1 5 5 19c58 186 159 433 220 601c10 28 22 44 39 44c7 0 14 -1 24 -1h13c12 4 51 6 89 6c190 0 308 -62 308 -186c0 -11 -2 -23 -3 -35zM343 610c-2 -10 -7 -24 -11 -35l-153 -426
c46 23 100 63 154 108c82 68 183 154 224 245c11 20 18 37 18 49c0 51 -102 61 -168 61c-21 0 -43 -1 -64 -2zM124 312c-6 -5 -11 -6 -16 -6h-9c-4 0 -8 0 -12 -3l21 -23v-6c0 -5 1 -12 5 -12c3 0 5 1 8 4c-1 6 -1 10 -1 14c0 9 3 13 13 21zM140 280l13 12l-11 13
s-8 -6 -8 -13c0 -4 2 -8 6 -12zM170 440c0 0 -9 3 -15 3h-3c7 -2 10 -4 13 -4c2 0 3 0 5 1zM181 431c0 0 1 3 1 6c0 1 0 2 -1 2c-1 -1 -2 -2 -5 -2c-2 0 -4 0 -8 1c5 -7 10 -2 13 -7zM176 457c10 2 10 2 13 6c-7 0 -7 0 -11 6c3 -4 3 -5 3 -6c0 -2 -1 -3 -5 -6zM181 528
c-3 -22 -3 -22 -13 -32c1 3 4 3 6 3c9 0 18 -9 18 -9c-6 6 -7 12 -7 18v9c0 3 0 8 -4 11zM174 481l4 -5l3 -5s1 10 -5 10h-2zM256 484c-1 -2 -2 -2 -4 -2c-3 0 -3 2 -3 2c1 -2 4 -4 5 -4s2 1 2 4zM200 470c2 3 3 5 5 5c1 0 1 -2 5 -4l8 7l-7 8c-6 -14 -8 -3 -11 -16z
M219 483l1 -10l4 4zM58 194l10 -11c6 7 11 11 14 11c4 0 7 -3 13 -9l-22 22zM178 295l26 23l-10 11c0 -20 -16 -34 -16 -34zM142 444c4 5 10 8 14 11c-1 0 -1 0 -1 1zM259 558l-13 -11l12 -12c4 3 5 7 5 12c0 3 -1 7 -4 11zM138 410c0 0 8 7 8 15c0 2 0 5 -2 7
c-15 -11 -15 -11 -17 -32zM156 455c7 -10 9 -10 33 -12c-8 8 -13 15 -21 15c-4 0 -7 -2 -12 -3zM223 418l-4 -4l5 -4s0 2 3 2c1 0 2 -1 4 -2l-4 3zM181 429c-1 -1 -1 -2 -1 -3c0 -4 4 -9 9 -9c-2 2 -4 5 -4 9c0 1 0 3 2 4l-2 1c-3 0 -4 -2 -4 -2zM237 460l10 9
c-2 2 -4 4 -6 4c1 0 -5 -4 -5 -9c0 -1 1 -2 1 -4zM232 486c0 0 3 -4 11 -4c-1 0 -2 1 -2 2c0 3 4 5 4 5h-10zM239 452c0 0 -5 5 -7 10c-1 -3 -1 -5 -1 -6c0 -2 1 -3 8 -4zM214 402l5 -5c1 2 2 3 2 3c0 3 -2 5 -2 5zM259 480l-3 -4l6 -8l5 3zM216 410c-9 11 0 16 -16 20
l-3 -18c5 4 8 6 9 6c4 0 6 -2 10 -8zM268 519l4 -5l1 8zM266 522l-4 -5l4 -4v9zM214 439c-2 0 -2 -1 -2 -2c0 -3 3 -7 3 -7l3 -4c1 3 2 4 2 5c0 3 -5 1 -6 8zM133 268l6 6l-3 5c1 -2 1 -3 1 -4c0 -4 -4 -7 -4 -7zM108 240l-9 9c-2 -3 -4 -4 -4 -4v1v3s0 15 -16 15
c-5 0 -6 10 -6 -24c2 3 5 3 8 3c6 0 12 -6 18 -12zM176 318c-3 5 -4 7 -7 7c-1 0 -4 -2 -10 -7c3 -2 3 -4 3 -4c0 -1 -6 1 -13 -5l6 -9l10 -10l-10 -10s3 -5 8 -5c4 0 6 2 10 5l3 19v19zM118 324c5 -6 12 -14 20 -14c4 0 6 1 9 4c-8 8 -14 14 -20 14c-3 0 -6 -1 -9 -4z
M171 408l-11 -9l-20 1l18 -19l-9 -7c4 -6 8 -7 12 -7s7 3 7 3v17c0 6 0 10 3 21zM162 323l22 21s-16 17 -59 20c20 -24 37 -41 37 -41zM123 384l-11 -10l9 -10s5 4 5 10c0 4 -1 7 -3 10zM186 476l6 6l-4 4c-3 -4 -5 -4 -5 -6c0 -1 2 -2 3 -4zM563 485l14 2l8 9
c-8 -9 -15 -4 -22 -11zM577 487l8 -6c-6 -9 -6 -9 -22 -12c3 -1 5 -2 8 -2c6 0 13 5 23 5c0 15 0 15 -17 15zM610 490c13 2 13 2 20 8c-9 7 -14 0 -22 7zM561 449l-8 -8c2 -3 5 -3 6 -3h9c2 0 4 0 6 -2l-6 6zM542 430c4 -5 5 -6 8 -6c1 0 3 1 6 6l-9 6zM588 455
c1 -6 1 -9 1 -13c0 -5 -2 -6 -9 -12l10 -7c0 30 2 13 2 22c0 6 -4 10 -4 10zM610 481l-16 -19c7 7 16 0 25 10h-3c-4 0 -9 0 -9 3c0 2 1 4 3 6zM545 411c2 -2 4 -3 5 -3c4 0 6 3 6 3l-6 6zM555 422c0 0 4 -5 15 -5c2 0 5 0 8 1l-16 13zM247 427l1 18c-5 -1 -7 -1 -11 -1
c-5 0 -6 2 -12 8h1c-12 13 -12 13 -34 17l23 -26h1c0 -4 2 -5 3 -5c4 0 9 3 13 3c3 0 5 -1 8 -4z" />
    <glyph glyph-name="e" unicode="e" 
d="M490 332c-29 -5 -191 -37 -261 -51l-26 -5l-52 -185c20 2 132 25 195 42c12 3 22 5 24 5c25 0 78 -40 85 -56c-7 -1 -236 -65 -318 -75l-24 -3c-4 -1 -8 -1 -13 -1c-71 0 -120 23 -120 35c1 14 170 550 183 594c2 4 3 9 4 12c0 15 20 19 34 21c81 11 245 29 287 35
c12 2 20 3 23 3c14 0 64 -57 64 -60c0 -13 -59 -10 -270 -30l-8 -23c-22 -62 -47 -157 -76 -251c83 14 192 48 211 48c8 0 58 -41 58 -55zM200 389c-1 1 -3 1 -5 1c-6 0 -14 -4 -18 -4c-1 0 -2 0 -2 2c0 1 1 2 2 3c-5 1 -8 2 -8 2c-2 -5 -3 -9 -8 -11l-2 -5
c-4 -2 -7 -3 -11 -3s-8 1 -8 1l-9 -26c-5 7 -16 22 -20 23v-3c0 -9 10 -21 18 -27v-4l3 4c30 22 61 21 61 32c0 2 -1 4 -4 8c3 0 5 -3 6 -3c2 0 5 1 6 3zM133 240l5 -2l8 -2l4 14h3c5 0 7 6 7 6c-1 2 -2 4 -2 5c0 3 4 4 6 9h3c1 0 4 0 5 3c-3 1 -4 4 -5 4c0 0 -1 0 -1 -1
c-6 1 -6 2 -6 4v4c-1 -4 -4 -5 -6 -5c-1 0 -2 1 -2 1c-3 -6 -17 -1 -19 -8l-2 -8h-2c-4 0 -6 -3 -10 -3h-4l-2 -6l13 -5s1 5 8 5h3l11 -4c-6 0 -14 -3 -15 -11zM161 392l6 26l-14 -4l9 34c-2 -11 -10 -12 -15 -12h-6s-1 -3 -1 -6v-2c-6 -6 -4 -7 -9 -7l6 -1l-11 -5l8 -2
c3 1 5 3 6 3s1 -1 1 -1l-2 -2l15 -4v1c-6 -7 -7 -15 -7 -15c1 -3 3 -4 5 -4s3 1 6 1h3zM189 333l2 16h-2c3 2 5 6 6 8c-1 0 -2 1 -4 1c-1 0 -2 -1 -3 -1c0 4 -4 4 -5 4c-2 0 -3 -1 -5 -6l-1 -4c0 2 -2 4 -4 4s-6 -18 -6 -17l7 -2c8 -4 8 -4 12 -10l-7 1l-4 -13c2 6 9 9 14 9
h4l-4 8v2zM278 309l18 6l-39 13l-9 -28c11 8 15 12 19 12c3 0 6 -2 11 -3zM89 245c-1 -1 -1 -1 -1 -2c0 -5 3 -6 3 -11v-2l15 -5c-4 6 -4 8 -4 11v5l8 -2c-4 5 -9 10 -11 10c11 -2 20 -6 20 -5v2c0 5 -5 6 -5 6c-3 -2 -7 -2 -9 -2c-3 0 -5 1 -5 4v3s-3 4 -4 4
c-2 0 -3 0 -3 -2l-6 2c3 -1 3 -4 3 -5v-4l7 -2c-1 -2 -1 -3 -2 -3c-2 0 -3 1 -5 1c0 0 -1 0 -1 -3zM193 428l-3 -7v1c0 7 -6 8 -6 8l-2 -8l8 -3l-1 -6c3 -1 6 -2 8 -2c4 0 4 1 6 3c0 -5 5 -7 6 -7l9 3l11 7l1 6s-2 1 -3 1c-4 0 -6 -5 -6 -5h-3c-6 0 -14 -4 -14 -4
c-7 3 -4 10 -11 13zM204 299l5 -8c3 -2 5 -3 6 -3c3 0 4 2 10 4c-1 0 -5 2 -5 7c0 1 0 2 1 3l-7 2c-5 2 -9 3 -13 3s-7 0 -12 -3zM183 428v6c0 13 -12 16 -12 16c-2 -7 -4 -10 -4 -13c0 -5 4 -6 16 -9zM308 647c0 0 -2 -8 -4 -14c9 4 20 10 26 14c0 1 -2 1 -4 1
c-3 0 -8 -2 -14 -2c0 0 -2 1 -4 1zM112 230l7 -3s5 -1 5 -7l1 6l8 -3s2 5 7 5h2l-6 3l-15 4zM105 279c3 -8 7 -16 14 -16l4 2l-7 2l3 6c-3 6 -5 8 -7 8c-1 0 -4 0 -7 -2zM157 233l-2 -6l5 -2h-2c-4 0 -5 -4 -10 -4h-2l-3 -6l8 -3l2 7s4 -2 4 -7l3 13c1 1 1 2 1 3
c0 4 -4 5 -4 5zM162 471l10 -3c6 -2 8 -2 8 -5c0 -2 -1 -4 -2 -8l13 6c-8 2 -10 5 -10 7c0 3 5 5 11 9c-10 -3 -20 0 -30 -6zM197 337h4c5 0 7 3 7 3l-7 12l-8 -6l5 -3c3 0 4 -1 4 -3c0 0 -1 -2 -5 -3zM197 360l7 3c-1 -2 -1 -3 -1 -3h5h3l-5 8c0 1 1 1 1 2l-1 -1v2l-10 -5
l-1 -7zM245 314l-10 3c-6 -5 -11 -11 -16 -12c7 0 15 4 26 9zM204 381l4 14l-9 -4s-1 -1 -1 -3c0 -4 2 -6 6 -7zM206 442l1 8s-4 1 -4 6c0 0 0 2 1 3l-10 -5c7 -2 7 -2 12 -12zM166 252l-2 -8s5 4 11 4c2 0 3 0 6 -1c-3 4 -4 5 -6 5s-4 -1 -5 -1s-3 0 -4 1zM283 634l-6 -2
s3 -1 3 -7v-2l4 9h1l3 6l-6 2c1 -2 1 -3 1 -4v-2zM258 633l-9 2c2 -4 5 -4 6 -4h7z" />
    <glyph glyph-name="f" unicode="f" horiz-adv-x="497" 
d="M490 333c-32 -5 -231 -44 -291 -56c-54 -171 -70 -274 -100 -274c-60 0 -119 13 -119 38c0 3 0 5 4 18c11 40 160 506 188 581c7 19 26 27 46 32c51 12 257 34 283 40c5 1 8 1 10 1c11 0 38 -28 48 -38c9 -10 18 -20 18 -23c0 -7 -2 -8 -14 -9h-3
c-22 -2 -164 -15 -253 -26c-2 -7 -4 -13 -5 -20l-83 -256c130 27 186 43 205 47c4 0 79 -43 66 -55zM158 421c-5 0 -10 2 -13 5h-11l-9 12l-2 -2c-1 -3 -2 -7 -2 -10c0 -6 2 -13 4 -18l7 5c9 0 19 -2 27 -5c0 -6 -2 -15 -6 -18l-9 3l-3 10l-7 -3c-3 -7 0 -17 -3 -23l-8 -3
l5 -21l-23 9l3 -11l16 -8l-3 -10c10 -3 12 -10 12 -18c0 -6 -1 -13 -1 -19l9 1l4 5l6 -4c8 2 15 5 17 13l-9 4v10l6 3l12 -11l5 3c-10 7 -16 11 -16 21c0 3 1 6 2 9l-17 20l8 -23l-6 -9l-11 32l9 15c6 -2 15 -5 19 -10l-10 17c14 1 23 24 35 31l6 15l-6 7v21l-13 -2l-2 -9
l-3 2v-10c10 -8 8 -14 11 -26l-7 2l-7 -12l-11 3zM145 291c-4 -5 -10 -14 -10 -22c0 -6 7 -5 14 -9l2 -9l13 -2l4 11l-9 4v21zM111 296l10 -11h11c-1 9 -1 21 -4 29l-9 -3zM141 325c0 5 7 11 12 11l-2 -11c4 -4 6 -11 6 -16l-12 -5c0 6 0 16 -4 21zM98 211
c-4 -8 -7 -19 -7 -26c5 3 13 11 17 16l-2 13zM182 504l-5 -21h18l-6 17zM151 251l-13 -2v-10l-19 -7c11 0 23 4 32 7v12zM135 203c-5 -2 -12 -3 -17 -3v-10l18 4l2 6zM136 228l-4 -9l10 1c6 7 16 8 23 16zM153 466l-5 -7l5 -15l7 5v15zM158 421c5 2 10 4 16 6l-6 6l-8 3
c-2 -3 -3 -8 -3 -11c0 -2 1 -2 1 -4zM206 486l6 -6l5 13l-4 4h-9zM177 349c0 -5 0 -11 1 -16l7 3l3 7l-4 4zM75 185l2 -11l8 -1l6 6zM74 120l6 -3l7 7c-6 4 -10 4 -17 4zM227 500l8 -4l-5 10l2 11l-5 -6v-11zM204 449l8 -16l7 5zM96 117l6 -4v11h-8zM223 483l-2 -10l8 2l1 8
h-7zM93 230l-2 -6l7 -3v9h-5zM201 525l-1 -10l4 2l4 8h-7zM94 172l6 -4c-1 6 -5 10 -9 13zM115 328v-8l6 3zM116 241l-3 -4l8 -3v5zM174 390l8 -7h7zM129 264v-7l7 5zM121 283v-8h6zM144 433l4 -3l1 6zM183 406v-6h2v6h-2zM210 468v-4h4zM160 298c-1 -1 -2 -2 -2 -3
s1 -2 1 -4z" />
    <glyph glyph-name="g" unicode="g" horiz-adv-x="579" 
d="M589 623c0 -25 -20 -188 -44 -188c-5 0 -7 2 -20 6c-33 10 -93 43 -93 61c0 17 6 36 9 55c-150 -61 -261 -253 -261 -389c0 -41 -7 -89 32 -107c30 -14 98 31 94 32l24 92c-8 -1 -17 -5 -23 -4c-42 15 -59 33 -61 37c0 8 189 54 240 67l20 5c5 0 8 -4 12 -10
c4 -4 31 -36 31 -43s-42 -13 -83 -21c-1 -55 -38 -220 -61 -220c-4 0 -23 9 -54 25c-40 -13 -78 -21 -109 -21c-170 0 -202 142 -202 235c0 248 257 392 346 439c40 21 80 33 90 33c3 0 113 -39 113 -84zM150 409c-5 0 -10 3 -14 5h-12l-9 13l-2 -2c-2 -11 -1 -22 2 -30l8 4
c9 0 19 -1 29 -4c0 -7 -3 -15 -7 -20l-10 5l-3 9l-8 -2c-2 -7 0 -17 -2 -26l-9 -2l5 -22l-24 9l3 -12l16 -8l-1 -12c18 -5 11 -22 11 -38h9l4 5l6 -3c10 2 17 5 20 14l-10 5v9l6 4l13 -13l5 4c-13 9 -21 15 -16 32l-16 21l8 -25l-7 -9l-11 34l8 16c7 0 17 -5 21 -10l-10 18
c14 2 24 25 37 34l7 15l-7 8v22l-14 -1l-3 -11l-2 2v-10c10 -9 9 -15 11 -28l-8 3l-7 -14l-12 3zM136 270c-2 -5 -6 -10 -9 -16c-5 -15 5 -12 14 -17l3 -9l12 -2l6 11l-10 5v22zM100 276l11 -12h12c-1 10 -1 22 -5 31l-9 -3zM132 306c0 6 8 12 13 12l-1 -12
c3 -3 5 -11 5 -17l-13 -4c0 6 0 16 -4 21zM517 627c-3 -7 -7 -19 -7 -27c5 3 14 12 17 16l-1 15zM176 498l-5 -23h19l-7 18zM142 228l-12 -2l-1 -11l-20 -8c12 0 25 5 35 8zM125 176c-4 -2 -12 -4 -17 -4v-10l19 4l5 6zM127 204l-4 -11l11 2c6 7 16 9 24 17zM145 456l-5 -6
l5 -17l7 6l1 17h-8zM150 409c5 1 12 4 17 5l-5 8l-9 3c-3 -3 -4 -9 -4 -12c0 -1 1 -3 1 -4zM202 478l6 -6l5 14l-4 4h-9zM487 656l8 -1v9l-7 9l-5 -7zM171 331c0 -4 0 -11 1 -17l8 4l2 8l-3 4zM493 600l2 -12h9l6 6zM492 531l7 -4l6 8c-6 3 -10 3 -18 3zM471 560l6 -5l4 5
l-2 8l-7 2zM438 601l4 -8c0 5 2 6 3 10c1 3 1 7 1 11h-4zM224 493l8 -5l-5 11l3 13l-6 -7v-12zM200 439l8 -17l7 5zM515 527l7 -4v12h-8zM219 474v-10l6 3l2 8zM512 648l-2 -6l7 -4v10h-5zM197 520l-1 -11l4 3l2 8h-5zM514 586l6 -3c-1 5 -5 10 -10 12zM104 310v-9l8 2z
M105 216l-3 -4l9 -2v5zM169 375l7 -7h7zM119 242v-8l8 5zM111 261v-7h6zM449 660l7 -5v5h-7zM530 488l-4 -11l5 4zM135 422l5 -4l1 7zM177 392v-5h3v5h-3zM206 459v-3h5zM153 278c-3 -2 -1 -6 -1 -8z" />
    <glyph glyph-name="h" unicode="h" horiz-adv-x="645" 
d="M444 -1c-41 0 -125 12 -125 41c0 9 15 56 63 206c-38 -7 -118 -14 -177 -21c-46 -126 -70 -230 -100 -229c-60 2 -125 15 -125 42c0 5 3 11 6 20c28 85 226 620 227 622c7 19 11 26 23 26c41 0 117 -28 117 -56c0 -3 0 -12 -3 -19l-127 -354c60 6 120 11 177 22
c63 188 114 345 136 397c4 1 9 1 15 1c62 0 114 -33 114 -54c0 -4 -1 -9 -3 -15l-196 -605c-3 -12 -8 -23 -22 -24zM533 290c-7 3 -8 8 -8 11v2v0c-8 0 -10 -8 -10 -8l9 -1c1 -2 1 -4 1 -6c-1 2 -7 4 -12 4c-1 -6 -7 -9 -18 -9l2 7l-6 2v3l4 3h-2v1h6c3 0 8 11 8 11
c0 1 0 4 -3 9l3 7l-12 -6l-7 3l-4 -7s2 -1 4 -1c3 0 9 1 16 4l-2 -8l-2 -3c-1 0 -3 3 -5 3l-2 -4c-1 -2 -3 -3 -3 -4c0 0 1 -1 3 -4l-7 -4c-1 -1 -2 -1 -2 -1c-1 0 -1 0 -2 1v1v1s-2 -2 -6 -2h-2l1 -3c-1 -2 -1 -4 -1 -4c-2 0 -4 2 -6 2v4c4 5 6 7 6 9c0 0 -1 0 -2 1v1
c0 2 -3 6 -7 6v-3l-2 -4s-6 2 -6 7l1 1c-2 -4 -15 -4 -15 -13c0 -3 0 -8 7 -9l-12 -4l23 -9l7 -13l3 -3l-3 -3c4 2 9 2 11 2l30 -8l7 18l-12 4c11 3 20 9 30 12h-3c0 2 2 4 2 4zM520 378c-8 8 -17 6 -17 10l-1 -6l-5 2l2 4l-18 6c-2 -9 -4 -10 -4 -14l-2 -5l16 -5l2 1l4 -1
v1h2v-1c-4 -3 -4 -3 -6 -3h-3c-14 0 -16 -8 -16 -7l1 -2c1 -1 3 -2 6 -2c1 0 1 0 3 1c0 0 2 -3 4 -3l-2 -8c2 -1 4 -1 4 -1c2 0 3 1 5 2c-1 -1 -1 -2 -1 -2c0 -4 1 -7 5 -12c0 4 1 5 3 8c5 -8 11 -13 11 -18v-3v-3l5 -1s2 7 11 7h3l-12 3l5 15l-10 4v1h5s5 1 5 3v1h2h2
c-2 0 -2 -3 -2 -3l7 -2v5h5h3c-2 -4 -4 -8 -4 -12l5 -3c2 3 3 7 3 11s-1 7 -4 8l1 6c3 2 3 2 3 3l-12 4l-1 -5c0 1 -2 1 -4 1c-1 0 -4 -1 -7 -3h-4v3l-3 3s1 1 1 5c0 0 -1 -4 -3 -5c-1 0 -2 1 -3 1c-2 0 -3 -2 -4 -4l6 17zM149 324v-23c1 11 10 11 10 11c0 -13 0 -13 15 -13
v25h-25zM149 385c10 0 10 10 10 10s-25 0 -25 -10h-10l25 -14v14zM180 385c11 0 12 9 20 11c-8 0 -8 1 -8 11c-12 -11 -12 -11 -25 -11v-11h13zM114 299v-10h10v10c0 13 -10 13 -10 13h-15s0 -13 15 -13zM466 229l4 10h-3c-5 0 -8 -8 -8 -8l-2 -7v-3c0 -1 0 -2 1 -2s3 1 7 3
c-4 -9 -4 -9 -13 -14c5 -3 4 -7 9 -7c2 0 4 0 7 1l4 8l-11 3c6 3 8 6 8 9c0 4 -3 7 -3 7zM490 231c0 -1 2 -1 5 -1c4 0 8 1 12 5l-8 4l-9 1c-6 1 -8 2 -8 3c0 2 0 4 2 9c0 0 -5 -5 -5 -8c0 -1 0 -1 2 -2v-2c0 -2 0 -5 3 -7c0 -1 -1 -2 -1 -3c0 -3 4 -6 7 -6v2v5zM556 421
l-2 -2l-5 -5l1 -1s1 0 2 1v-4l9 9c6 -1 12 -1 15 -1s4 0 4 1s-3 3 -8 6l-2 2l4 8c-1 1 -2 1 -2 1c-4 0 -5 -3 -5 -5l-4 4l-2 -5c-2 0 -5 1 -9 1c0 -3 2 -3 4 -4l-9 -5zM174 419h-13c-12 0 -12 -9 -12 -9h25h4c0 1 -4 2 -4 9zM148 368c0 0 -12 0 -12 -12l12 -13v25zM531 464
l11 -3s4 3 4 5c0 1 0 2 -1 3l5 -1l2 5l-9 -4l-16 6s-1 -2 -1 -5c0 -2 1 -5 5 -6zM546 403l-2 -9l9 -3s1 0 6 2l-3 -2l2 -1c1 0 3 -1 5 -2l4 8zM212 412c0 12 13 12 13 25c-12 0 -13 -12 -23 -13c10 -1 10 -12 10 -12zM129 342l-15 -12l15 -13v25zM174 283h-16v-12h16v12z
M436 217l2 1l3 8h-1c-2 0 -8 0 -9 -6c-2 1 -4 2 -6 2c-3 0 -6 -1 -9 -4l8 -1s0 -2 3 -2v-2h4c3 -2 5 -2 9 -2c-2 2 -2 4 -4 6zM524 438l-21 6c13 4 18 5 18 7c0 1 -5 3 -14 6l-14 5l-4 -14l14 -4l13 -24zM183 356h-9s0 -11 -13 -22c14 9 22 10 22 22zM415 274l-9 -5
c16 -5 23 -8 23 -8c1 1 1 2 1 3c0 4 -9 1 -15 10zM395 170l-13 -5l18 -5v2c0 7 -5 8 -5 8zM522 384c9 -2 9 -2 14 -12c2 6 2 6 13 13c-3 -1 -5 -2 -7 -2c-5 0 -9 3 -13 3c-2 0 -4 -1 -7 -2zM154 428c0 7 0 9 6 9h-15v-15c0 6 2 6 9 6zM180 432v-12l14 12h-14zM534 397
c-5 12 -5 12 -14 13v-2c0 -5 7 -7 7 -7zM500 509c7 -2 14 -5 15 -9c0 6 -3 14 -3 14zM534 498l-10 4l-2 -7c3 -1 3 -2 5 -2c6 0 7 5 7 5zM496 420c-8 3 -14 5 -16 5c-4 0 -6 -3 -7 -10l20 -4zM595 489c-3 5 -5 6 -7 6c-3 0 -4 -2 -4 -2c-1 0 -3 1 -4 1c-3 0 -4 -3 -4 -8
c5 4 7 5 10 5s5 0 9 -2zM542 416l4 6v4c0 1 0 1 -1 1c-3 0 -5 0 -11 -2c0 0 8 -2 8 -9zM547 455l-7 2l-2 -7l8 -2zM495 186l4 7l-8 2s-1 -2 -1 -3c0 -2 1 -4 5 -6zM441 156l-1 -7l9 -2v2h-1s-2 1 -7 7zM564 461l6 -11l2 9zM499 393l7 -2l2 9c-1 -3 -3 -7 -7 -7h-2z" />
    <glyph glyph-name="i" unicode="i" horiz-adv-x="314" 
d="M-4 22c-11 5 -16 13 -16 22c0 5 1 11 4 19c22 71 205 629 206 633c3 7 11 13 22 13c39 0 122 -32 122 -46c0 -7 -2 -15 -5 -21l-198 -618c-4 -12 -8 -22 -23 -24c-7 0 -99 14 -112 22zM181 406c-7 -21 -8 -21 -32 -26l2 -10c-9 -4 -19 -6 -28 -11l3 -23l16 2
c1 8 6 20 9 29l14 7l1 -16l13 -4l10 16c-1 10 -1 16 4 27zM187 517l-1 -12l20 -11c0 10 8 24 13 31c-2 1 -5 2 -7 4h-6c-8 -2 -13 -7 -19 -12zM134 302l-3 -9l16 -12l12 12c-11 17 -11 22 -33 21zM188 445h-19l5 -16l-5 -12l8 -2l9 6c1 7 2 16 2 24zM174 347
c-1 -8 -1 -20 -1 -29c4 5 15 9 23 10l-10 16zM109 240l-2 -20l24 -10v13h-15zM229 576c-1 -7 -4 -13 -7 -20l13 1l9 -5v9zM151 463l4 -7l6 11l-2 12l-8 -6v-10zM126 281h-12c2 -6 4 -13 6 -20c0 7 6 11 6 20zM151 413l-2 -13l10 -4v19zM198 445l3 -16l9 2l-4 10zM202 400
l-5 -8l9 -3l3 11h-7zM181 548l9 5l-13 8zM118 176l13 4l-13 7v-11zM138 230l5 -7l6 17zM182 473l8 -6l-1 8z" />
    <glyph glyph-name="j" unicode="j" horiz-adv-x="552" 
d="M-50 146c0 14 2 48 23 48c-4 0 125 -17 125 -43c0 -8 -8 -14 -8 -35c0 -36 16 -66 53 -66c70 0 100 110 121 152c4 6 151 434 160 467c7 24 16 26 25 26c30 0 123 -48 123 -71c-7 -30 -144 -424 -177 -484c-52 -96 -148 -146 -247 -146c-95 0 -198 46 -198 152zM418 460
c-5 0 -10 3 -15 4h-11l-9 14l-2 -2c-5 -11 -3 -22 2 -31l7 5c10 0 20 -1 30 -5c0 -7 -3 -16 -7 -20l-11 4l-2 11l-8 -3c-2 -8 0 -19 -2 -26l-9 -2l5 -23l-26 9l3 -12l19 -9l-4 -11c19 -5 12 -23 12 -41l10 2l3 4l7 -2c10 1 18 5 20 14l-10 4v10l6 4l14 -14l4 5
c-13 9 -20 15 -16 32l-17 22l9 -25l-7 -9l-11 34l8 17c7 -2 18 -5 21 -10l-10 18c14 1 25 26 39 35l6 15l-6 8v24l-16 -3l-2 -11l-2 3v-11c10 -9 8 -16 11 -28l-7 3l-9 -14l-11 2zM403 318c-1 -5 -6 -11 -8 -18c-5 -14 5 -12 14 -17l2 -9l14 -2l5 11l-10 5v22zM368 322
l8 -12h14c0 11 0 24 -4 32l-10 -2zM400 354c0 6 8 12 13 12l-2 -12c4 -3 6 -12 6 -17l-14 -4c0 5 0 16 -3 21zM352 230c-3 -9 -7 -20 -7 -29c6 4 14 13 18 17l-2 15zM444 550l-4 -22h20l-7 19zM410 274l-13 -2l-2 -11l-19 -9c13 0 26 5 35 9zM393 221c-4 -3 -12 -4 -18 -4
v-10l20 4l5 6zM395 250l-5 -12l12 2c6 8 16 10 24 17zM413 508l-5 -6l5 -17l7 4l1 18zM418 460c6 1 12 3 17 5l-5 7l-9 4c-3 -4 -4 -8 -4 -13c0 0 1 -2 1 -3zM471 531l7 -8l5 16l-4 2h-10zM58 97l10 -3v12l-7 11l-6 -10zM440 379c0 -4 0 -10 1 -16l7 3l3 8l-4 5h-7zM328 201
l3 -11l8 -1l6 7zM-10 152l8 -5l9 9c-8 5 -12 5 -21 5zM32 137l8 -7l4 7l-2 8l-8 3zM-10 102l4 -11c0 5 4 8 5 13c2 4 2 7 2 10h-7zM493 547l9 -7l-5 13l3 12l-7 -7v-11zM469 489l9 -17l7 6zM19 147l7 -4v13h-10zM490 526l-2 -10l8 3l1 9zM348 250l-3 -6l7 -2v8h-4zM466 572
l-1 -10l4 3l3 7h-6zM370 358v-9l8 3zM386 288v-6l9 4zM437 425l7 -7h9zM376 308v-8h8zM14 101l7 -7v7h-7zM402 472l6 -3l1 7z" />
    <glyph glyph-name="k" unicode="k" horiz-adv-x="530" 
d="M106 -3c-3 -1 -7 -1 -11 -1c-54 0 -115 30 -115 45c0 5 3 12 5 20l223 612c7 18 10 23 20 25c23 0 126 -17 126 -50c0 -15 -12 -44 -45 -132c134 89 151 120 183 120c18 0 81 -48 88 -77c-3 -19 -222 -151 -304 -211c7 -13 14 -25 19 -37c39 -87 131 -239 142 -267
c3 -8 3 -10 3 -14c0 -8 -46 -34 -97 -34c-5 0 -12 4 -21 17c-24 35 -46 74 -118 212c-48 -135 -68 -197 -78 -212c-4 -9 -9 -15 -20 -16zM146 250c6 -1 11 -4 15 -5l12 -2l9 -13l1 3c2 9 3 20 0 30l-9 -5c-8 0 -20 1 -29 6c1 5 4 16 9 19l10 -5l2 -10l7 3c3 9 1 17 3 25
l10 4l-4 21l25 -9l-3 11l-18 9l2 10c-18 8 -12 24 -11 41l-8 -1l-3 -4l-9 4c-8 -2 -16 -6 -18 -14l9 -3v-11l-6 -4l-12 13l-6 -4c14 -9 19 -17 15 -34l15 -18l-6 24l8 8l10 -34l-10 -17c-7 1 -14 4 -20 8l9 -15c-14 -1 -26 -26 -38 -33l-8 -16l8 -8l-2 -24l14 3l4 11l1 -4
v11c-9 9 -8 16 -10 29l7 -4l9 15l12 -3zM166 390c3 4 8 10 9 16c4 13 -8 11 -14 18l-4 9l-12 3l-4 -12l9 -5v-22zM202 383l-11 11l-12 1c0 -10 -2 -21 4 -30l9 1zM167 354c2 -6 -8 -13 -13 -12l3 12c-5 3 -5 12 -5 16l14 5c-2 -7 -2 -17 1 -21zM218 475c6 8 10 18 10 27
c-8 -3 -16 -11 -20 -17l2 -14zM119 159l5 24l-21 1l8 -19zM159 433l15 2v10l19 7c-8 0 -26 -2 -36 -7zM177 483c8 4 14 5 20 5v10l-20 -3l-5 -5zM176 457l5 10l-11 -1c-6 -7 -16 -9 -27 -16zM150 202l6 5l-6 18l-5 -6l-3 -16zM146 250c-4 -2 -12 -4 -16 -8l4 -5l9 -4
c3 5 3 12 3 17zM93 179l-8 8l-5 -12l3 -6h12zM332 511l-10 3l-2 -12l7 -10l7 9zM128 328c-1 5 0 11 -1 19l-8 -4l-3 -8l5 -4zM372 440l-7 5l-11 -9c8 -5 13 -4 21 -4zM244 501l-3 12l-9 2l-4 -6zM355 472l-6 7l-5 -5v-12l9 -1zM405 518l-5 12c0 -9 -5 -12 -5 -24h4zM69 165
l-7 7l6 -13l-4 -12l5 7v11zM95 221l-7 17l-8 -5zM345 445l-8 4l-1 -13h12zM74 185l2 10l-8 -3l-2 -8zM224 516l-8 5c2 -7 4 -11 12 -13zM222 454l2 6l-6 4v-10h4zM96 138l2 10l-7 -1l-2 -7zM197 348l1 10l-9 -3zM198 444l2 3l-7 3l-1 -5zM183 417v8l-8 -4zM130 284l-8 8h-8z
M191 398v8l-5 -1zM372 505l-5 7v-7h5zM310 445l6 12l-7 -3zM162 235l-5 7l-1 -9zM316 401v6l-6 2l4 -6zM89 199v5h-6z" />
    <glyph glyph-name="l" unicode="l" horiz-adv-x="466" 
d="M151 92c63 12 126 24 194 43c11 2 20 4 24 4c25 0 76 -39 87 -56c-106 -34 -246 -68 -370 -83c-29 -3 -106 20 -106 39c0 18 213 639 216 647c5 16 12 22 22 22c24 0 120 -32 120 -54c0 -6 -4 -14 -7 -22c-36 -95 -175 -524 -180 -540zM128 414l2 -1c-2 -5 -6 -8 -8 -12
l26 -8l-6 24l9 3c4 7 0 20 4 27l8 3l2 -11l11 -5c3 5 7 16 7 22c-8 3 -20 4 -31 4l-9 -4v1c-6 -16 -8 -30 -15 -43zM166 322c-2 -5 -7 -11 -9 -18c-6 -15 6 -12 15 -18l3 -10l13 -2l6 12l-11 6v22zM128 326l9 -12h15c-1 12 -1 24 -4 34l-12 -4zM163 361c3 -6 3 -18 3 -25
l13 6c0 6 0 14 -4 19l1 11c-6 0 -13 -5 -13 -11zM112 228c-3 -7 -7 -20 -7 -28c7 4 14 13 18 18l-1 16zM208 565l-3 -23h19l-6 19zM173 276l-14 -2l-1 -12l-22 -8c13 0 28 4 39 8zM155 221c-6 -3 -13 -4 -19 -4v-12l21 5l6 7zM157 249l-5 -9h12c6 8 17 9 26 18zM176 521
l-6 -7l6 -17l7 6l2 17zM181 470c6 1 13 5 19 7l-6 7l-9 4c-4 -4 -6 -10 -6 -13s2 -4 2 -5zM237 546l6 -7l6 15l-5 3h-8zM205 389c0 -6 0 -14 1 -20l7 3l3 9l-3 5zM86 200l5 -11l8 -4l6 7zM147 470c0 5 1 8 2 14l-6 6l-1 -2c0 -5 -1 -10 -1 -12c0 -6 0 -13 2 -19v9s-1 4 4 4z
M259 561l11 -6l-6 13l4 12l-9 -7v-12zM236 503l7 -19l8 6zM256 541v-12l7 4l1 9zM106 252l-1 -6l7 -5v11h-6zM231 590l-1 -12l6 2l1 10h-6zM109 185l6 -3c0 7 -6 9 -10 14zM130 363v-8l11 1zM134 264l-4 -4l7 -4v6zM149 292v-9l8 6zM201 434l7 -7h10zM165 484l5 -6l2 10z
M240 524v-4h6zM121 403l2 -11c0 3 0 7 -1 9zM230 37l-2 8l-8 4l-7 -3l7 -7zM298 74l-8 6l-12 -2l-2 -5c6 3 10 -4 22 1zM205 66l-4 6l-10 1l2 -7l6 -3zM237 74l-4 7l-3 -7h7zM181 42h-10l7 -3z" />
    <glyph glyph-name="m" unicode="m" horiz-adv-x="816" 
d="M625 -10c-48 0 -127 12 -127 43c0 5 4 18 7 28c20 67 72 232 111 353l-296 -400c-9 -12 -15 -21 -27 -21c-49 0 -127 27 -127 48c0 6 5 21 9 32l6 16c30 89 79 222 112 311c-98 -130 -297 -400 -313 -403c-12 0 -50 89 -50 91c0 11 8 20 22 38l438 566c11 19 18 21 27 21
c32 0 118 -24 121 -57c-2 -6 -1 -9 -4 -17l-113 -325c115 153 267 353 275 363c6 9 10 12 18 12c33 0 122 -29 122 -45c0 -10 -3 -22 -8 -36c-27 -82 -176 -578 -182 -594c-3 -11 -7 -22 -21 -24zM390 566l-3 -9l16 -9c0 9 7 13 15 20l-8 3c-6 0 -15 -1 -20 -5zM362 462
l-4 -7l13 -11l9 10c-1 4 -3 6 -4 10c-1 5 -16 6 -19 6zM384 514l-15 2l2 -12l-4 -8l4 -2l9 2c1 6 3 12 4 18zM362 444c-2 -4 -2 -15 -2 -21c3 5 14 6 20 6c-4 5 -9 11 -11 13zM430 605l-8 -15h11l8 -6v9zM301 374l-5 -16l18 -8l1 8l-12 1zM353 449h-10c0 -6 0 -11 3 -15z
M350 494l-2 -11l8 -2l1 14zM357 530l3 -6l4 6v10l-4 -3zM393 511v-9h9l-1 8zM322 363l3 -6l6 12l-7 1zM390 478l-3 -3l8 -4l1 7h-6zM390 589l7 1l-10 6zM302 328l9 1l-9 6v-7zM383 535l7 -5v6zM381 322l9 -3v11l-6 8l-5 -7zM360 355l6 -5l5 5l-3 9l-8 1v-10zM332 267l4 -9
c0 5 3 6 4 11c1 2 1 6 1 9h-5zM384 418l6 -2v12h-9zM344 325l7 -6v6h-7zM399 380l-5 -10l6 2zM407 458v-6h6l-5 6h-1zM336 599l9 -6c-6 -9 -6 -9 -22 -11c2 -3 5 -3 7 -3c6 0 13 5 23 5c0 15 0 15 -17 15zM369 601c13 2 13 2 19 9c-9 7 -13 0 -21 7zM321 562l-8 -9
c2 -2 5 -2 7 -2h7c2 0 5 0 7 -2l-7 7zM258 427h11l-7 7zM303 542c3 -3 5 -5 7 -5c1 0 3 2 6 5l-9 7zM347 567c1 -5 1 -9 1 -11c0 -6 -2 -7 -8 -14l9 -6c0 29 2 13 2 22c0 5 -4 9 -4 9zM369 593l-16 -18c7 7 16 0 25 9h-4c-3 0 -8 0 -8 3c0 2 1 4 3 6zM305 525
c2 -2 4 -4 6 -4c3 0 5 4 5 4l-6 6zM315 535c0 0 5 -4 14 -4c3 0 5 0 8 1l-15 12zM671 486l20 -11l-2 22l10 2c3 6 3 18 7 23l8 1v-10l9 -6c5 4 8 13 10 18c-7 4 -17 8 -26 9l-9 -4l-1 11c-8 -18 -18 -36 -26 -55zM696 409c-2 -4 -7 -8 -12 -13c-5 -11 5 -13 10 -19l2 -9
l12 -5l8 12l-10 6l3 20zM664 420l7 -12l12 -2c1 10 3 20 1 30h-9zM699 445c3 -7 0 -15 -1 -21l14 2c0 5 1 12 -3 17l4 10c-5 1 -12 -3 -14 -8zM635 338c-5 -7 -12 -17 -12 -24c7 2 15 9 20 12v14zM766 597l-9 -20l19 -5l-3 18zM694 368h-11l-3 -8l-19 -4c9 -2 23 -1 33 2v10
zM670 324c-4 -3 -11 -3 -16 -1l-2 -9h18l5 5zM676 349l-5 -9h10c8 5 17 4 26 10zM736 583l-5 -5l2 -16l7 3l5 16zM733 538c7 0 12 2 17 2l-3 8l-9 3c-2 -1 -5 -5 -5 -10c0 -1 3 -2 0 -3zM701 578l4 -5l8 13l-3 2l-8 3zM597 153l8 -4l2 10l-5 9l-5 -5v-10zM740 461
c-2 -3 -2 -9 -2 -16l8 2l3 7l-2 5zM607 316v-10l9 -4l5 7zM593 252l6 -5l9 6c-5 5 -9 6 -16 8zM581 188l6 -6l4 4l1 9l-8 3zM605 219l1 -8c3 5 5 5 7 9c1 2 2 5 2 9l-5 1zM670 574l7 -7l-2 12l3 11l-5 -5zM687 571l4 -16l8 3zM616 244l6 -4l1 11l-9 1zM709 564l-3 -9h8l2 10
zM633 358l-3 -5l7 -4l1 9h-5zM665 545l-3 -9l5 1l4 7zM623 300l5 -4c2 6 -2 10 -7 14zM673 452l-2 -7h9zM675 386v-8l9 5zM745 504l6 -9l8 -2zM562 164l5 -9l2 7zM722 553l4 -5l2 5h-6zM669 486h2l-1 1z" />
    <glyph glyph-name="n" unicode="n" horiz-adv-x="619" 
d="M479 83c-15 -49 -72 -81 -115 -81c-5 0 -30 -2 -40 31c-14 45 -75 315 -115 473l-147 -504c-4 -11 -8 -19 -13 -19c-17 0 -69 60 -69 67c1 8 4 18 9 33c46 142 135 459 175 586c4 13 94 53 124 53c18 0 22 -16 25 -30l112 -455c46 150 102 329 128 425c10 39 19 38 34 38
c25 0 62 -25 62 -40c0 3 -129 -440 -170 -577zM279 528v-26c1 -18 13 -10 27 -10l9 -11l16 5v18h-16l-14 26zM235 512l18 -8l15 8c-8 13 -15 26 -26 34l-7 -8v-26zM253 569c9 -5 13 -17 18 -24l13 14c-4 5 -11 13 -18 16l-4 14c-7 -3 -12 -15 -9 -20zM272 397
c0 -13 1 -28 7 -37c7 6 10 22 12 30l-11 15zM539 572l7 -30l24 12l-18 18h-13zM313 481l-13 -11l2 -13l-16 -20c14 7 24 20 35 29zM323 410c-3 -5 -13 -12 -19 -15l6 -12l21 17l2 10h-10zM309 442l1 -14l11 8c4 14 16 21 18 36zM519 509l-2 -12l16 -17l4 10l-8 20zM573 568
l12 -5l-3 20l-7 3l-10 -5zM386 159l12 3l-7 12l-12 6l-1 -11zM284 622c2 -7 7 -15 12 -18l6 6l-1 12l-7 3zM258 349l10 -12l12 3l2 13zM300 266h9l4 13c-9 2 -13 -2 -24 -5zM339 185l11 -2l2 9l-7 8l-9 -1zM360 65l10 -9c-3 6 0 11 -1 16c0 5 -2 8 -5 11l-4 -2v-16zM590 599
h14l-14 11l-2 15l-6 -12zM548 525l18 -14l7 11zM331 277l8 -1l-6 13l-10 -5zM597 574l4 -12l8 6l-3 13zM253 418l2 -10l10 2l-5 10zM543 613l3 -12l5 5l-2 12zM292 345l9 -1c-5 6 -12 10 -19 10zM218 555l5 -10l8 8zM276 446v-7l10 3l-4 6zM277 484l3 -9l6 11zM255 671
l13 -4l9 5zM255 502l3 -10l8 5zM338 141l12 -3l-4 8zM370 238l3 -16l2 9zM588 547l5 -4l4 3zM346 269l9 -14c0 3 -3 9 -5 11zM389 138v-2s2 -3 5 -2c0 2 -5 2 -5 4zM294 546c-2 -2 2 -7 3 -10zM118 367c-7 -9 -15 -22 -15 -31c8 3 19 13 25 16v18zM163 393
c-6 -3 -15 -3 -21 0l-2 -12l23 -1l6 7zM70 135l11 -6l1 13l-6 11l-6 -6v-12zM82 340v-13l13 -5l6 8zM66 259l7 -6l11 7c-6 7 -11 8 -20 10zM51 179l7 -8l4 5l2 11l-10 4zM81 217v-9c4 6 7 6 9 10c1 3 3 6 3 12l-6 1zM95 248l7 -4l1 13l-12 2zM116 392l-5 -6l9 -6l2 12h-6z
M103 319l7 -5c1 8 -3 13 -9 18zM26 148l6 -11l3 8z" />
    <glyph glyph-name="o" unicode="o" horiz-adv-x="620" 
d="M590 478c-1 -198 -121 -481 -328 -481c-140 0 -222 65 -222 227c0 221 138 490 362 490c148 0 188 -158 188 -236zM240 67c126 33 228 297 228 449c0 70 -17 114 -53 114c-66 0 -134 -97 -160 -143c-64 -112 -89 -225 -89 -304c0 -78 28 -118 61 -118c4 0 9 1 13 2z
M124 380c0 -3 1 -8 1 -11l15 4v-15l15 -6c14 14 16 23 22 41l-11 9c-3 -6 -7 -10 -11 -16c-3 -5 -24 -6 -31 -6zM125 370c-10 -1 -24 -3 -34 -8v-24h19c11 12 11 18 15 32zM185 515l-3 -11l24 -16c0 15 10 22 19 30c-16 12 -25 -3 -40 -3zM98 304l-7 -10l19 -14l14 11l-7 16
c-6 5 -19 7 -27 8zM179 442l-23 2l4 -17l-8 -10l8 -4l12 4c3 8 5 16 7 25zM134 345c-4 -6 -4 -24 -4 -31c6 5 20 8 28 8c-5 7 -11 15 -16 19c0 0 -6 4 -8 4zM273 599l6 -8l16 26l-18 2zM295 582c-5 -4 -10 -5 -16 -7l7 -19c9 3 12 13 15 21zM244 570l-11 -20h14l11 -7v10z
M67 266l-6 -20l25 -11l2 11l-16 2zM248 619l4 -17l8 4l7 -1l4 4l-2 8zM87 285h-16c0 -7 1 -15 4 -21c5 5 10 14 12 21zM132 413l-3 -13l11 -4v19zM140 464l4 -7l8 8v13l-10 -3zM290 597v-7l6 1l8 -3l5 10l-9 3zM190 440v-17h13l-3 14zM90 229l5 -7l9 17h-10zM181 414l-4 -8
l10 -3l1 11h-7zM185 546l11 4l-14 9zM90 256l11 2l-11 9v-11zM177 471l8 -7v9zM305 617l-2 -10l5 4zM503 315c-3 -5 -9 -9 -14 -16c-6 -12 5 -15 12 -21l2 -11l14 -5l9 13l-12 7l4 24zM506 345l8 -15l14 -2c2 12 4 23 1 35h-10zM539 382c3 -7 0 -17 -1 -24l15 2
c0 6 2 15 -3 20l5 12c-6 1 -14 -4 -16 -10zM512 432c-6 -8 -13 -21 -13 -29c7 3 17 12 23 15v16zM553 415c-5 -3 -13 -3 -19 0l-2 -11l21 -1l6 7zM468 217l10 -5l1 11l-5 11l-6 -6v-11zM511 520c-2 -4 -2 -10 -3 -18l10 2l3 8l-2 5zM479 406v-12l12 -4l6 7zM464 332l7 -6
l10 7c-6 6 -10 7 -19 9zM450 258l7 -8l4 5l1 10l-9 4zM457 294l1 -9c4 6 6 6 8 10c1 2 3 6 3 11h-6zM491 322l6 -4l2 12l-11 2zM510 454l-4 -5l8 -5l2 10h-6zM499 388l6 -5c1 7 -3 11 -8 16zM517 382l-3 -9l11 1zM427 229l6 -10l3 8z" />
    <glyph glyph-name="p" unicode="p" horiz-adv-x="569" 
d="M103 0c-60 -1 -123 27 -123 50c0 7 3 14 7 23l224 623c5 14 9 18 19 18c70 0 298 -66 342 -129c17 -21 37 -68 37 -84c0 -19 -8 -28 -21 -39c-15 -13 -279 -150 -311 -168c-16 -9 -23 -11 -26 -11c-7 0 -15 8 -22 18c-74 -214 -93 -300 -126 -301zM477 556
c-20 14 -89 33 -141 50c-8 -25 -31 -93 -58 -171c66 33 205 91 205 109c0 5 -3 9 -6 12zM142 248l6 -10c7 0 12 -2 17 -5h14l9 -16l5 4c2 10 2 23 -5 34l-8 -5c-10 0 -22 2 -33 5c0 7 3 19 8 23l11 -4l4 -13l9 3c2 10 0 21 2 31l12 2l-6 26l28 -10l-4 13l-20 10l4 12
c-22 8 -15 28 -15 47l-10 -2l-5 -5l-7 4c-11 -1 -20 -6 -23 -16l12 -5v-11l-7 -5l-16 15l-6 -5c15 -10 24 -18 19 -38l19 -23l-9 28l8 11l13 -39l-10 -21c-8 2 -20 7 -25 13l12 -22c-16 0 -28 -30 -43 -38l-8 -19l8 -9v-27l16 3l4 13l2 -3v11c-11 11 -10 18 -13 33l9 -2
l9 16zM147 409l18 -7c3 5 8 12 11 19c5 16 -6 14 -17 20l-3 10l-15 3l-6 -13l12 -6v-26zM207 395l-12 14h-15c1 -12 1 -26 7 -36l9 3zM170 360c0 -7 -10 -14 -15 -14l1 14c-5 4 -6 13 -6 19l15 6c0 -8 0 -20 5 -25zM213 498l11 4c4 10 9 23 9 32c-8 -2 -16 -13 -22 -20z
M118 135l6 25h-22l8 -21zM158 451l15 3l1 13l22 8c-13 0 -28 -4 -40 -8zM170 516l8 -4c5 2 15 4 20 4v13l-22 -5zM176 480l4 12l-12 -2c-8 -9 -20 -10 -28 -19zM155 182l5 8l-5 20l-8 -6l-2 -20zM148 238c-6 -1 -13 -3 -19 -7l6 -8l10 -2c3 2 5 9 5 14c0 1 -2 2 -2 3z
M88 157l-8 8l-5 -16l4 -6h11zM313 437l-11 4v-13l8 -13l7 11zM115 330l9 -2c0 7 0 15 -2 20l-8 -2l-3 -10zM253 534l-4 13l-10 2l-6 -8zM400 410l-9 6l-9 -11c8 -5 13 -5 24 -5zM343 393l-9 7l-5 -7l1 -10l11 -4zM303 379l-5 13c0 -8 -4 -9 -5 -15c-2 -5 -2 -8 -2 -13h7z
M63 139l-11 6l5 -13l-1 -14l7 8v13zM90 204l-10 19l-9 -6zM456 410l-8 5v-15h12zM67 162l2 12l-10 -3l-2 -11zM230 478l3 8l-9 3v-11h6zM94 109l1 11l-5 -2l-4 -9h8zM203 355v10l-8 -2zM185 435v9l-9 -7zM127 278l-9 9h-8zM195 412v9h-8zM363 432l-8 9v-9h8zM166 223l-6 6
l-1 -8z" />
    <glyph glyph-name="q" unicode="q" horiz-adv-x="632" 
d="M602 474c0 -170 -74 -340 -199 -433c23 -23 71 -55 71 -73c0 -15 -59 -43 -73 -43c-26 0 -64 37 -90 69c-16 -4 -32 -7 -49 -7c-139 0 -222 79 -222 234c0 196 128 479 343 479c24 0 50 -3 76 -11c77 -23 140 -125 143 -215zM260 61c-19 28 -42 66 -45 90
c-1 8 51 43 88 43c12 0 19 -29 34 -55c81 87 140 249 140 369c0 73 -17 116 -58 116c-68 0 -134 -96 -162 -147c-63 -115 -90 -224 -90 -303c0 -77 25 -122 62 -122c11 0 21 3 32 7c-1 1 -1 2 -1 2zM190 447c-9 -11 -10 -15 -14 -17c-5 -2 -9 -2 -24 -2l2 -10
c-10 -2 -21 -2 -31 -8v-22h16c7 5 13 20 15 28l13 4v-14l13 -6l11 13c2 7 4 17 8 25zM208 549l-4 -12l22 -13c0 13 10 19 17 27l-7 4c-9 0 -22 -1 -28 -6zM326 64l7 -10l20 32l-24 4zM354 41c-6 -4 -13 -5 -21 -8l9 -25c11 4 14 17 20 28zM128 357l-5 -8l16 -13l13 12
c-1 4 -4 8 -6 13c-2 4 -20 8 -24 8zM293 90l6 -23l10 6l9 -3l4 6l-1 10zM201 483l-20 1l4 -15l-6 -9l6 -4l10 4c4 6 4 15 6 23zM173 395c-3 -7 -3 -20 -3 -28c6 4 19 8 25 8c-4 6 -10 13 -14 16zM348 61v-9l7 2l10 -5l7 14l-12 3zM260 598l-10 -18h13l10 -7v8zM93 304
l-4 -19l23 -11l1 11l-14 2zM119 341h-14c0 -7 0 -13 4 -19zM159 456l-3 -11l10 -5l1 17zM167 502l3 -6l7 7v11l-8 -2zM213 480v-14h10l-3 11zM122 291l4 -7l8 15l-10 2zM208 577l10 3l-14 8zM97 245l12 2l-12 8v-10zM366 86l-3 -11l8 5zM199 508l9 -6v8zM478 240v-26
c1 13 11 13 11 13c0 -15 0 -15 16 -15v28h-27zM478 308c11 0 11 12 11 12s-28 0 -28 -12h-11l28 -15v15zM513 307c12 0 13 12 22 14c-9 0 -9 0 -9 12c-13 -12 -13 -12 -28 -12v-14h15zM439 212v-11h11v11c0 15 -11 15 -11 15h-17s0 -15 17 -15zM506 346h-15
c-13 0 -13 -11 -13 -11h28h4c0 1 -4 4 -4 11zM477 290c0 0 -14 0 -14 -14l14 -14v28zM549 339c0 13 14 13 14 28c-13 0 -14 -14 -27 -15c13 -2 13 -13 13 -13zM456 260l-18 -14l18 -14v28zM505 194h-17v-13h17v13zM516 276h-11s0 -12 -14 -25c16 11 25 12 25 25zM484 356
c0 7 0 10 5 11h-16v-18c0 7 2 7 11 7zM513 361v-14l14 14h-14z" />
    <glyph glyph-name="r" unicode="r" horiz-adv-x="576" 
d="M108 0c-60 8 -128 19 -128 47c0 7 4 18 8 25c68 166 157 440 221 615c6 18 8 27 27 27c2 0 5 -1 11 -2c14 -2 150 -31 259 -71c49 -18 110 -102 110 -139c0 -10 -4 -20 -12 -28c-15 -18 -238 -139 -303 -172c59 -130 137 -233 137 -265c0 -23 -82 -39 -99 -39
c-19 0 -57 74 -134 231l-74 -207c-4 -10 -9 -22 -23 -22zM492 545c-16 17 -86 39 -155 63c-8 -27 -33 -98 -61 -178c92 44 212 104 216 115zM224 579l-34 17l-5 -24l12 1l8 -6c4 4 10 5 15 5l-9 -14l4 -13l32 26l-23 10v-2zM162 295l30 7l-2 23l-16 -2
c-4 -4 -12 -21 -23 -34l-3 14l-14 5c-17 -21 -7 -16 -15 -38l10 -7c12 23 10 17 36 23zM120 163l2 11l-21 11c-1 -1 -3 -11 -3 -11c-3 -5 -8 -9 -12 -15l8 -6c7 2 19 6 26 10zM230 526c-7 -3 -15 -1 -24 0l-1 -28c13 0 23 11 30 18zM184 353l2 10l-15 10l-13 -12l8 -12
c6 -4 14 -5 23 -5zM120 227h19l-3 15l7 9l-9 4l-7 -5c-3 -8 -7 -13 -7 -23zM141 314c2 8 2 19 2 27c-7 -8 -15 -8 -24 -9l13 -14zM232 547l-2 -7l7 -2l6 -8l13 10l-12 7h-12zM73 111c2 7 5 14 9 19c-1 0 -12 2 -13 0c-3 2 -7 4 -10 4v-7zM211 409l4 17l-23 10v-11l13 -1z
M192 369l12 4c0 7 -3 13 -5 17c-1 -2 -5 -7 -6 -10c-1 -2 -1 -7 -1 -11zM155 200c-2 7 2 12 -2 18l-7 -8l1 -12zM162 256v12l-9 4v-17zM185 419l-6 6l-7 -15l10 -1zM109 229l-2 15l-7 -2l3 -11zM109 268l5 8l-9 1l-2 -7zM204 464l-12 -1l13 -7zM259 567l-8 -13l10 3z
M224 579l8 -3l-12 -4zM125 203l-8 4v-7zM360 440l5 -12c-13 -5 -13 -5 -30 3c1 -4 3 -6 5 -7c6 -5 17 -4 28 -11c10 16 10 16 -8 27zM395 421c15 -6 15 -6 27 -4c-5 14 -15 9 -18 21zM320 412l-14 -3c1 -4 2 -7 5 -8c2 -1 5 -2 9 -4c1 -2 3 -4 4 -7c1 3 -2 11 -2 11z
M287 403c2 -5 2 -8 5 -10c2 0 3 0 9 1l-4 14zM350 400c-3 -6 -4 -10 -6 -13c-4 -6 -7 -6 -18 -8l6 -12c20 30 10 11 16 20c4 6 2 13 2 13zM390 413l-28 -9c11 3 16 -11 31 -7c0 0 -2 1 -3 3c-4 2 -9 5 -7 8c1 2 3 4 7 5zM278 384c1 -4 3 -7 3 -8c5 -2 9 0 9 0l-3 11z
M296 387c0 0 2 -7 12 -13c2 -1 5 -3 9 -4l-8 23z" />
    <glyph glyph-name="s" unicode="s" horiz-adv-x="460" 
d="M410 534c0 35 -12 66 -34 78c-19 -2 -101 -52 -101 -128c0 -19 5 -39 12 -59c29 -82 63 -159 63 -221c0 -96 -93 -204 -237 -204c-98 0 -163 60 -163 127c0 42 7 56 35 56c12 0 113 -12 113 -35c0 -14 -15 -42 -15 -56c0 -17 10 -28 26 -29c70 8 100 105 100 150
c0 95 -80 182 -80 267c0 102 122 225 233 225c59 0 158 -37 158 -114c0 -44 -15 -81 -41 -81c-27 0 -56 12 -69 24zM228 387c1 -15 3 -18 0 -23c0 -4 -5 -6 -15 -18l9 -5c-7 -8 -15 -16 -20 -26l16 -17l12 12c2 8 -3 22 -7 29l6 12l10 -10l12 5v16c-3 7 -9 16 -9 24z
M173 473l5 -10l24 4c-8 10 -5 20 -5 31l-8 -1c-6 -5 -15 -15 -16 -24zM242 278l3 -9l19 2l3 16c-4 4 -9 5 -13 6c-5 3 -21 -7 -23 -10zM213 420l-16 -12l12 -8l2 -12l7 2l5 9c-2 6 -6 14 -10 21zM251 337c2 -7 11 -16 17 -23c-1 7 7 19 11 23c-6 1 -15 3 -20 3zM178 544
l5 -21l10 9l11 3l-5 6zM254 217l7 -16l26 7l-7 9l-12 -8zM247 260l-10 -9c4 -5 9 -9 15 -11zM222 426l10 -11l7 7l-9 7zM283 226l8 -2l-5 17l-8 -6zM247 392l2 -7l9 4l-5 8zM155 493l5 9l-16 -2zM296 176l7 9l-15 -2zM194 438h11l-6 6zM415 617l11 2c4 -13 4 -13 -7 -27
c3 0 6 1 7 3c6 6 7 15 15 24c-13 12 -13 12 -26 -2zM435 637c9 13 9 13 9 23c-13 -2 -11 -11 -24 -13zM434 574v-14c4 0 6 2 8 4s3 4 6 6c1 3 4 4 7 4h-11h-10zM484 610l9 9h-11zM435 542c6 0 9 0 10 2s1 4 1 10l-13 -3zM450 600c5 -3 8 -6 11 -8c5 -4 4 -8 5 -18l12 3
c-25 24 -9 11 -16 19c-5 5 -12 4 -12 4zM446 639l3 -28c0 11 13 13 12 28c0 0 -1 -1 -3 -2c-3 -4 -6 -8 -9 -5c-1 1 -3 4 -3 7zM452 530c3 0 6 1 7 2c3 3 2 8 2 8l-11 -1zM452 547c0 0 6 0 15 9c1 2 4 4 5 7l-23 -3z" />
    <glyph glyph-name="t" unicode="t" horiz-adv-x="522" 
d="M30 671c9 9 449 26 520 32c14 1 25 2 30 2c13 3 105 -25 101 -43c-3 -6 -22 -6 -33 -7l-222 -8c-11 -54 -179 -542 -213 -625c-3 -9 -11 -25 -29 -25h-3c-62 14 -123 18 -123 47c0 6 2 13 5 20l210 574c-89 -4 -93 -4 -97 -4c-71 0 -137 24 -146 37zM217 328l12 -8
c7 20 9 20 32 25l-2 11c9 3 19 5 27 10l-2 23l-16 -2c-1 -8 -6 -20 -9 -29l-14 -7l-1 16l-12 4l-10 -15c0 -11 0 -17 -5 -28zM224 210l1 12l-21 11c0 -9 -7 -24 -12 -31c2 -1 5 -1 7 -3h5c9 2 14 7 20 11zM276 422l3 9l-16 12l-12 -12c11 -17 11 -22 33 -21zM222 281h19
l-4 16l4 12l-8 1l-8 -5c-1 -7 -3 -16 -3 -24zM225 381l11 -3c2 7 2 19 2 29c-5 -5 -16 -10 -23 -11zM301 483l1 20l-23 10v-13h15zM168 167l14 -15c1 7 5 13 7 20l-13 -1l-9 5zM259 264l-3 6l-7 -11l2 -11l8 5v11zM284 442h12c-2 6 -5 14 -6 21c0 -7 -6 -11 -6 -21zM259 313
l2 13l-10 4v-20zM213 281l-3 16l-9 -2l3 -10zM209 326l5 7l-10 4l-2 -11h7zM229 180l-8 -5l12 -8zM291 546l-12 -4l12 -7v11zM272 493l-5 7l-6 -17zM228 253l-7 6l1 -7z" />
    <glyph glyph-name="u" unicode="u" horiz-adv-x="635" 
d="M30 143c1 125 93 388 151 530c9 23 18 38 26 38c35 0 120 -52 120 -70c0 -5 -5 -15 -12 -32c-33 -73 -150 -376 -150 -498c0 -45 17 -69 55 -69c54 0 91 39 117 92c23 47 157 410 205 524c8 20 19 33 29 33c23 0 94 -77 94 -98c0 -6 -1 -14 -3 -21
c-37 -87 -129 -365 -225 -507c-35 -52 -117 -74 -188 -74c-110 0 -219 27 -219 152zM501 390c-5 0 -10 3 -13 6l-10 1l-7 13l-4 -2c-2 -9 -3 -19 0 -28l8 4c9 -1 17 -3 25 -7c-1 -7 -3 -15 -8 -18l-8 4l-2 11l-7 -2c-3 -8 -3 -17 -5 -24l-9 -1l3 -21l-23 10l3 -11l15 -9
l-3 -10c16 -8 8 -23 7 -38h9l3 5l6 -5c8 1 16 3 19 12l-9 4l1 10l7 3l10 -14l5 3c-11 10 -17 17 -11 32l-13 20l3 -22l-6 -8l-8 32l11 14c6 -1 15 -6 18 -11l-9 18c14 -1 27 21 40 27l7 14l-6 8l2 21l-13 -1l-3 -9l-2 3l-1 -10c8 -9 6 -15 7 -27l-6 3l-9 -12l-10 4zM474 262
c-3 -5 -7 -9 -9 -15c-7 -12 3 -12 10 -17l3 -8l11 -4l6 10l-10 6l2 21zM441 270l9 -11l11 -2c1 10 2 20 -2 29l-8 -1zM474 296c1 4 8 9 13 9l-2 -10c3 -5 3 -12 3 -17l-13 -3c1 6 3 15 -1 21zM419 187c-5 -7 -8 -18 -10 -26c7 3 15 10 19 14v14zM533 470l-7 -19l19 -3l-5 17
zM476 222l-12 -2l-3 -9l-18 -5c10 -1 22 1 33 3v13zM456 175c-5 -2 -13 -2 -18 -1v-10l18 2l5 5zM459 201l-5 -10h10c7 6 17 7 25 13zM500 435l-5 -6l3 -16l7 4l2 15zM501 390c4 0 11 2 17 4l-6 6l-7 4c-3 -2 -5 -7 -6 -11c0 -1 2 -3 2 -3zM555 449l5 -7l6 14l-2 3l-9 1v-11
zM146 324l10 -3v11l-6 9l-6 -7zM512 316v-15l7 1l4 7l-4 5zM394 164l2 -12l8 -1l5 4zM134 435l6 -5l9 8c-6 5 -10 5 -18 6zM126 362l6 -6l5 5v8l-9 3zM88 271l2 -11c1 6 4 7 7 11c0 4 1 7 1 11l-5 1zM577 461l8 -5l-4 10l4 12l-6 -6zM551 412l4 -15l9 3zM160 429l6 -5l1 12
l-10 1zM572 444l-2 -9l6 1l3 9zM417 206l-4 -5l7 -4l1 9h-4zM554 488l-1 -9l5 1l2 8h-6zM411 148l6 -4c0 6 -4 10 -8 13zM448 302l-1 -9l7 3zM440 215l-2 -4l7 -3v5zM456 237l-1 -7l8 5zM514 356l7 -7l7 -1zM450 255l-1 -6l5 -1zM107 332l6 -7l1 6zM487 403l5 -4l1 6z
M171 384l-6 -10l6 3v7zM524 371v-5h2v5h-2zM490 268c-2 -3 -2 -6 -2 -7z" />
    <glyph glyph-name="v" unicode="v" horiz-adv-x="516" 
d="M129 713c49 1 71 -16 71 -44c0 -10 -6 -172 -11 -437c102 179 261 455 262 458c3 5 7 9 12 9c28 0 113 -64 113 -82c0 -10 -11 -25 -14 -32l-326 -570c-8 -14 -18 -23 -30 -23c-39 0 -116 42 -116 74c0 8 0 26 1 49c6 120 19 536 19 570c0 21 10 28 19 28zM152 373
c0 -18 -1 -19 -18 -29l3 -8c-6 -5 -13 -10 -18 -16l8 -17l12 5c-2 7 -1 19 -1 26l9 9l5 -12h11l4 16c-3 8 -5 12 -4 22zM126 462l1 -10l20 -4c-3 9 0 22 2 29h-7s-3 0 -5 -1c-6 -3 -8 -10 -11 -14zM142 279l1 -8l16 -7l5 14c-12 11 -13 15 -31 8zM146 406l-15 -6l8 -11v-11
l6 1l6 6c-2 7 -3 14 -5 21zM162 324c1 -6 4 -16 7 -23c1 5 9 12 16 14l-14 10zM140 222l4 -16l22 -1l-4 10l-12 -4zM143 520c1 -6 0 -12 0 -18l9 5l9 -2l-2 6zM112 409l5 -4l2 10l-5 8l-4 -5zM142 260l-9 -3c2 -4 7 -10 10 -15c-2 5 1 11 -1 18zM126 370l1 -10l10 -1l-6 15z
M153 407l8 -10l6 3l-6 7h-8zM169 374l-2 -8h9l-1 9zM121 485l6 7l-13 2zM164 175l10 7l-13 2zM166 222l5 -3v15zM134 425l7 -2l-2 7zM294 303l8 2l10 -5l-3 -15l6 -3l-16 -11h-8l-6 -7l3 1l-5 -9l7 -11l15 16l10 2l4 13c-4 13 -1 26 0 39l-3 8l19 5h-8l-13 7l3 16l29 16v-11
l-21 -11l24 3c7 13 15 14 32 12l-2 6l-17 -1l-1 6l5 7l9 -3c3 8 5 15 -3 22l-6 1v6l-7 7l-18 -21l-14 1l-5 -8l-16 4l-10 -7l23 -8l-18 -11l5 -8c-2 -7 -12 -12 -15 -19l4 -6l8 5l10 -5l-2 -8l-7 -8c-8 4 -24 12 -23 22c-6 -3 -21 -15 -21 -21l14 3c4 -6 15 -10 20 -13z
M372 404l16 -3l12 15l10 -4l5 11l-12 8l-7 -6c-4 1 -8 3 -13 6c-1 -7 -9 -15 -11 -27zM359 427l-15 -3l-3 -16l3 -7c9 3 16 11 23 17zM348 368l-3 7l2 9c7 1 13 7 16 12l6 -12c-3 -3 -8 -8 -14 -7zM392 495l4 -8l11 8c0 7 0 17 -3 23c-4 -6 -8 -15 -12 -23zM267 245l-11 -17
l8 -2l16 8zM396 440l7 -9l9 7c-5 8 -12 22 -18 28l8 -19zM261 282l1 -7l5 -4l11 12l-1 8zM425 476l6 -3l1 8l-11 14l-6 -7c4 -3 8 -8 10 -12zM412 465l-4 -8l16 -26c-1 7 -5 13 -5 20v5c-2 3 -5 6 -7 9zM303 290l-9 13c-3 -3 -5 -7 -8 -11l8 -4zM295 226l-9 -1l-8 -8l6 -5h5
zM356 342l7 -4l6 2l3 7l-4 6c-4 -3 -8 -7 -12 -11zM402 534l-10 -5l17 -7v7zM443 573l-8 2l-6 -2c5 -5 7 -8 14 -9v9zM299 198l-9 3l-8 -8l1 -9l6 10zM309 253l17 -3v9c-6 -2 -11 -3 -17 -6zM306 224l-7 -8l6 -6l4 7zM462 561l-6 1l-8 -3l8 -6zM378 490l-2 -5l4 -5l5 7z
M261 208l-4 -8l4 -3l2 6zM332 405l-6 -7h9zM384 440l-6 -4l7 -5zM385 465v-4l5 -2l2 4zM337 316l-9 -1l15 -5z" />
    <glyph glyph-name="w" unicode="w" horiz-adv-x="866" 
d="M546 -3c-59 0 -122 37 -122 104c0 61 5 204 7 280c-148 -253 -208 -384 -227 -384s-83 35 -96 45c-10 8 -18 13 -18 35c0 7 0 27 1 53c5 119 19 495 19 557v17c0 13 13 18 19 18c48 1 70 -14 70 -45c0 -11 -4 -170 -11 -437c93 162 233 403 256 446c8 15 14 18 24 18
c37 0 108 -63 108 -77c0 -17 -20 -39 -50 -88v-29c0 -57 1 -155 1 -230v-43c108 180 276 458 279 462c4 5 7 9 12 9c27 0 108 -64 108 -82c0 -13 -8 -28 -12 -35c-48 -76 -334 -560 -345 -579c-5 -7 -11 -15 -23 -15zM735 468c-5 2 -8 6 -12 10l-10 1l-6 15l-3 -2
c-3 -8 -5 -18 -3 -27l8 3c8 -3 17 -6 24 -12c-2 -5 -5 -13 -10 -16l-9 6v10h-7c-5 -7 -5 -18 -8 -23h-8l-2 -22l-20 14v-12l14 -12l-5 -9c16 -9 7 -23 1 -39h9l5 3l5 -5c8 -1 16 2 22 9l-9 6l2 9l7 2l8 -15l6 3c-10 10 -16 19 -6 32l-11 23l1 -24l-8 -8l-3 35l13 13
c6 -2 14 -9 16 -15l-6 20c13 -3 29 17 42 21l11 13l-5 9l6 21h-15l-5 -8l-1 3l-2 -9c7 -12 4 -17 3 -29l-5 5l-11 -11l-9 6zM691 345c-4 -3 -9 -7 -13 -13c-7 -11 2 -11 10 -18v-8l11 -7l7 10l-8 8l6 20zM455 548l5 -9l23 22l-8 3h4l-43 11v-19l8 3l8 -4c1 3 6 4 9 4z
M659 359l7 -14l11 -2c1 10 3 20 2 29h-8zM474 526c-5 -3 -11 -3 -19 -3l3 -21c10 2 14 11 21 18zM695 379c1 5 9 9 15 7l-4 -9c3 -5 1 -12 0 -17l-12 -1c1 6 4 16 1 20zM625 279c-5 -6 -12 -16 -14 -23c6 1 16 7 22 10v13h-8zM778 544l-9 -18l18 -6l-1 19zM687 306l-12 1
l-4 -11l-19 -1c10 -3 23 -3 33 -2zM660 262c-6 0 -14 0 -18 1l-3 -10l20 -1l7 5zM668 287l-7 -8l10 -2c7 5 17 5 25 10h-28zM742 513l-7 -4l1 -16l7 2l5 16zM474 542l-3 -6l6 -2l6 -5l9 9l-9 4h-9zM735 468c5 0 12 2 17 3l-4 7l-6 6c-3 -3 -6 -8 -7 -10v-6zM797 520l6 -7
l7 13l-2 3l-8 3zM576 99l8 -5l2 9l-4 10l-6 -5v-9zM736 394c-1 -6 -2 -10 -2 -16l8 1l4 6l-3 6zM579 197l5 -5l9 5c-6 4 -8 5 -15 8zM595 259v-10l9 -5l7 6zM563 134l5 -6l5 4v8l-6 3zM569 167v-10c2 6 5 6 7 9c3 3 3 6 3 10h-4zM822 529l7 -6l-2 13l5 9l-7 -4zM788 484
l3 -16l9 2zM601 186l4 -4l3 10l-8 3zM813 513l-3 -9l8 1l3 7zM625 298l-4 -5l6 -3l3 6zM803 560l-3 -10l5 2l4 6zM611 242l6 -6c0 7 -3 11 -6 15v-9zM669 388v-6h7zM650 303l-4 -2l7 -5l1 5zM669 324l-1 -7l7 3zM743 435l7 -10l6 -1zM492 558l-5 -8l7 1zM666 343l-3 -6l6 -3
zM543 110l5 -7l1 6zM604 148l-6 -8l6 2v6zM724 484l4 -5l2 7zM756 449l-2 -6h2l3 3zM797 503v-4l5 -1zM707 349c-3 -1 -3 -5 -3 -7zM383 425c-3 -4 -9 -8 -13 -15c-6 -11 4 -13 10 -19l3 -10l13 -6l8 13l-11 6l3 23zM348 437l7 -14l13 -1c2 11 3 21 1 32h-9zM386 464
c3 -7 0 -16 -1 -23l14 2c0 6 2 14 -3 19l5 11c-5 1 -13 -4 -15 -9zM316 348c-6 -8 -13 -19 -13 -27c7 2 16 11 22 14v15zM354 333c-5 -3 -13 -3 -18 -1l-2 -10l20 -1l6 6zM274 147l9 -5l2 11l-5 10l-6 -6v-10zM431 482c-3 -4 -3 -10 -3 -17l9 2l3 7l-2 5zM285 324v-11l11 -4
l5 7zM271 254l6 -5l10 7c-6 5 -10 6 -18 8zM258 185l6 -7l3 4l2 10l-8 3zM283 218l1 -8c3 5 6 5 8 9c1 2 2 5 2 10l-5 1zM296 245l6 -4l1 12l-10 1zM314 369l-4 -5l8 -5l1 10h-5zM303 307l6 -5c1 7 -3 11 -8 15zM357 472l-2 -8l10 1zM236 158l6 -9l2 7zM121 313l12 -5
c2 19 3 19 22 29l-4 9c8 4 16 9 22 14l-7 19l-13 -4c1 -8 -2 -19 -2 -27l-10 -9l-4 13l-12 1l-6 -16c3 -8 4 -13 2 -24zM152 211l-1 11l-21 5c2 -8 -2 -22 -5 -29c3 0 6 0 8 -2c0 0 3 1 5 2c6 3 10 8 14 13zM152 407v9l-15 7l-9 -13c13 -13 14 -17 33 -12zM135 273l17 4
l-8 12l2 12h-7l-7 -6c2 -7 2 -15 3 -22zM116 360l11 -1c0 8 -3 18 -5 26c-3 -5 -11 -11 -18 -13zM160 465l-2 18l-23 4l3 -12l13 4zM112 163l16 -11c0 6 1 12 2 18l-11 -3l-9 2zM171 266l-4 5l-4 -12l5 -9l5 6zM154 426l11 3c-3 4 -7 10 -10 17c2 -7 -2 -12 -1 -20zM160 308
v12l-9 1l3 -17zM128 271l-7 13l-7 -3l5 -9zM114 309l3 8h-9l1 -9zM163 186l-6 -6l13 -4zM139 518l-11 -6l13 -3zM133 468l-5 5l-3 -16zM147 250l-9 3l3 -6z" />
    <glyph glyph-name="x" unicode="x" horiz-adv-x="498" 
d="M474 696c22 0 44 -47 44 -67s-27 -45 -45 -68l-143 -189c53 -200 87 -303 87 -319c0 -7 -1 -13 -8 -16c-22 -11 -82 -39 -107 -39c-11 0 -21 8 -25 21c-2 5 -28 86 -62 210l-180 -231c-8 -11 -21 -28 -27 -29c-12 0 -38 64 -38 86c0 32 65 97 215 292
c-36 136 -74 270 -86 317c0 28 94 50 116 50c38 0 42 -66 85 -226c91 118 153 208 174 208zM218 460c-5 -2 -9 -2 -14 -2l-9 -5l-12 5l-3 -2c3 -8 10 -19 16 -23l5 7c8 5 16 8 24 8c4 -4 7 -13 7 -17l-13 -3l-5 8l-6 -6c1 -7 9 -15 9 -22l-5 -6l14 -16l-24 -4l8 -8l18 2
l4 -11c18 3 20 -13 27 -26l7 5v5h9c7 6 12 13 8 22l-9 -3l-5 9l3 6l17 -4l2 5c-15 2 -24 3 -29 19l-23 10l19 -17l-1 -10l-26 21v18c6 3 15 3 21 2l-17 10c10 8 8 32 15 44l-3 16l-9 3l-10 20l-11 -11l3 -9l-3 3l4 -10c13 -3 15 -7 24 -17l-9 -2l1 -14l-12 -3zM273 340
c1 -5 0 -11 1 -17c2 -15 9 -7 19 -7l7 -6l11 4l-1 12l-11 -2l-10 19zM242 327l12 -3l12 5c-6 9 -11 17 -20 22l-4 -6v-18zM252 368c-2 5 1 14 6 15l4 -9c6 -2 10 -7 13 -11l-9 -11c-3 6 -7 14 -14 16zM275 246c-1 -7 1 -20 5 -26c4 6 6 17 7 22l-8 12zM299 309l-10 -8l4 -9
l-10 -15c8 6 17 15 24 23zM310 259c-3 -4 -10 -8 -13 -11l4 -8l15 11l1 8h-7zM298 283l2 -11l7 7c2 8 11 13 12 24zM192 497l-1 -8l11 -11l2 8l-6 14zM218 460c4 4 7 9 10 13l-6 4l-8 -3c-2 -3 -1 -8 2 -11c1 -1 1 -1 2 -3zM227 541l8 -3l-2 16l-5 1l-8 -5zM116 134l9 4
l-4 8l-11 6v-10zM272 408c2 -5 5 -9 9 -14l6 6l-3 8l-5 2zM267 213l8 -9l8 5v7zM299 156h8l1 9c-7 1 -9 -2 -16 -4zM79 153h8v8l-4 4l-10 -1zM133 206l7 -6c-2 5 -1 7 -1 11c-2 4 -2 7 -5 10l-4 -2zM238 564h9l-10 7l-4 11l-1 -9zM244 508l15 -10l4 8zM321 164l7 1l-5 9
l-7 -6zM242 547l5 -9l5 6l-3 8zM260 261l2 -6h7l-5 9zM203 572l3 -8l4 3l-2 9zM291 211h6c-4 5 -8 7 -14 6zM228 358l5 -8l5 6zM250 441l8 -2l7 3zM273 310l3 -7l4 7h-7zM256 321l4 -7l6 4zM80 118l10 -2l-4 5zM200 463l6 -1l-2 6zM248 459l2 -3h2l-2 4zM239 528l3 -4l3 3z
M283 355c0 -4 1 -6 4 -6zM390 521l3 -11l21 -4c-2 9 0 24 2 32h-8s-3 0 -4 -1c-7 -4 -10 -11 -14 -16zM409 585c1 -6 0 -13 0 -20l11 5l10 -1l-3 7zM377 545l5 8l-13 3zM361 488l-9 2l-6 -2c5 -5 7 -9 15 -10v10zM381 475l-7 1l-7 -4l7 -5z" />
    <glyph glyph-name="y" unicode="y" horiz-adv-x="498" 
d="M557 626c-3 -12 -11 -24 -23 -40c-39 -52 -175 -235 -189 -266c-2 -5 -5 -9 -8 -14c-24 -61 -53 -249 -65 -291c-4 -15 -8 -22 -20 -22c-23 0 -109 44 -124 59c-5 5 -10 12 -10 18c0 7 33 167 53 251l-9 26c-7 38 -43 206 -82 330c0 16 54 29 74 29c10 0 17 -2 19 -7
c4 -4 18 -55 66 -252l176 242c6 7 18 23 31 23c18 0 117 -63 111 -86zM174 547c0 -19 -1 -20 -20 -30l5 -9c-7 -5 -15 -11 -20 -17l8 -18l13 6c-1 8 0 19 0 27l9 10l5 -12h13l3 16c-3 8 -5 13 -3 24zM164 447v-9l17 -6l6 14c-13 12 -14 16 -33 8zM168 583l-16 -6l8 -12v-11
h7l6 7c-2 7 -3 15 -5 22zM185 496c1 -7 4 -17 7 -25c2 6 10 13 17 16l-14 10zM161 387l4 -17l24 -2l-4 11l-13 -4zM132 587l5 -5l2 11l-5 9l-5 -6zM164 427l-10 -3l10 -16c-2 6 2 11 0 19zM146 544l2 -10l10 -1l-6 16zM176 585l8 -12l6 4l-6 8h-8zM193 549l-3 -9h10l-1 10z
M187 336l10 8l-13 1zM189 387l6 -4v16zM155 604l8 -2l-3 6zM332 458l8 2l11 -5l-3 -16l6 -3l-16 -12h-9l-7 -7l3 1l-5 -10l8 -12l15 17l11 3l5 13c-5 14 -1 28 0 41l-4 9l20 6l-8 -1l-15 8l4 17l31 16v-12l-23 -11l26 3c8 14 16 15 33 13l-2 6l-18 -1l-1 6l6 9l10 -5
c3 9 4 17 -3 24l-7 1v7l-7 7l-20 -23l-14 2l-5 -9l-18 5l-10 -8l25 -8l-20 -12l5 -8c-2 -9 -12 -12 -15 -20l3 -6l9 4l11 -4l-2 -9l-8 -8c-9 4 -25 12 -24 23c-6 -3 -22 -15 -22 -22l15 3c4 -6 15 -11 21 -14zM414 565l17 -4l13 17l11 -5l4 12l-11 7l-8 -5c-4 1 -9 3 -14 5
c-1 -6 -10 -14 -12 -27zM401 588l-16 -2l-4 -17l4 -8c9 4 17 12 24 18zM389 527l-3 7l2 10c7 1 14 7 17 12l6 -12c-3 -4 -9 -9 -14 -8zM190 180l3 -9l12 9c1 8 0 18 -2 25c-5 -7 -10 -17 -13 -25zM302 397l-10 -18l8 -3l17 9zM440 602l7 -10l10 9c-6 8 -13 23 -19 29l8 -20z
M297 436l1 -7l5 -5l11 13l-1 8zM224 160l7 -3l1 8l-12 15l-7 -7c5 -4 10 -8 11 -13zM457 629l-5 -8l17 -28c-1 7 -5 14 -5 22c-1 1 0 2 0 4c-3 3 -6 7 -7 10zM341 443l-9 15c-3 -3 -6 -8 -9 -12l9 -4zM332 376l-9 -1l-9 -8l7 -5h5zM398 499l7 -4l6 2l4 7l-5 6
c-4 -2 -8 -7 -12 -11zM200 222l-10 -6l17 -8v8zM338 347l-10 3l-9 -9l1 -9l7 11zM348 405l18 -3l-1 9c-6 -1 -11 -3 -17 -6zM344 374l-6 -8l5 -6l5 7zM421 656l-3 -6l4 -5l6 7zM296 357l-4 -7l4 -5l3 7zM372 566l-7 -8h10zM427 602l-6 -4l7 -4zM428 629v-4l5 -3l2 5z
M378 472l-10 -2l15 -4z" />
    <glyph glyph-name="z" unicode="z" horiz-adv-x="518" 
d="M86 662c0 13 12 16 21 16c43 4 250 34 302 39c7 1 14 1 19 1c10 0 12 -8 19 -15c26 -5 109 -26 112 -41c7 -14 9 -22 9 -28c0 -12 -17 -32 -33 -50c-64 -71 -289 -365 -377 -489c134 20 189 33 221 33c21 0 64 -48 64 -71c0 -5 -2 -9 -6 -11c-310 -45 -331 -48 -364 -48
c-31 0 -113 41 -113 66c0 10 8 30 27 52c76 88 297 386 393 502c-41 -3 -96 -6 -176 -12l-37 -4c-29 0 -81 53 -81 60zM243 398l1 -2c-4 -4 -9 -5 -13 -8l20 -20l6 27l10 -3c7 5 10 20 17 24l9 -1l-3 -11l8 -11c6 3 15 11 18 17c-7 7 -17 14 -28 20h-10c-1 0 -1 0 0 1
c-13 -12 -22 -24 -35 -33zM232 292c-4 -2 -11 -6 -17 -11c-13 -12 0 -15 5 -26l-2 -10l11 -8l12 8l-7 10l11 22zM199 315l3 -16l14 -7c4 11 11 23 12 35l-12 1zM249 331c0 -8 -6 -19 -9 -25l16 -1c3 6 5 13 4 20l8 10c-6 3 -16 1 -19 -4zM136 231c-8 -5 -18 -15 -22 -22
c8 -1 20 5 26 7l7 15h-11zM375 539l-15 -21l18 -9l4 21zM216 246l-13 5l-8 -10l-24 2c12 -6 28 -9 40 -11zM172 203c-7 0 -14 2 -20 6l-6 -12l23 -5l9 3zM188 229l-9 -7l11 -5c10 4 21 0 34 3zM341 474l-8 -3l-4 -19l10 2l10 15zM321 424c6 -2 14 -1 20 -2l-2 9l-6 8
c-6 -2 -10 -7 -11 -9c-2 -3 -1 -5 -1 -6zM391 506l4 -10l12 11l-3 6l-8 4zM303 336c-3 -5 -7 -13 -9 -19l8 -1l7 7v7zM97 218l-1 -13l6 -8l8 4zM288 441c4 5 5 8 8 12l-1 9l-3 -2c-2 -4 -5 -8 -6 -10c-3 -6 -6 -12 -8 -18c2 3 3 5 5 7c-1 1 1 5 5 2zM420 510l7 -12l1 16
l10 9l-12 -2zM370 466l-3 -22l10 2zM407 492l-6 -11h9l5 8zM142 257l-5 -6l6 -8l5 11zM408 551l-7 -12h7l7 8zM110 192l6 -6c2 7 -2 12 -3 19zM219 349l-4 -8l12 -3zM174 254l-6 -2l5 -7l3 5zM201 273l-4 -8l10 1zM321 381l4 -11l8 -5zM313 445l2 -7l6 7h-8zM385 484l-2 -4
l4 -3zM232 391l-5 -11c1 3 4 6 4 8zM279 43l3 8l-6 8l-8 1l2 -11zM362 44l-5 9l-12 5l-4 -5c6 1 7 -8 21 -9zM270 81v9l-9 6l-3 -8l5 -5zM304 73l-1 9l-5 -5zM235 72l-10 5l6 -6zM251 643l9 3l2 18l-15 4c-9 -16 -13 -18 -3 -36zM312 652l17 8l-3 24l-10 -5l7 -13zM271 647
l5 -9c4 4 10 9 15 14c-6 -3 -12 -1 -20 -5zM360 690l-10 8v-14zM307 681l3 7l-16 -3z" />
    <glyph glyph-name="braceleft" unicode="{" horiz-adv-x="339" 
d="M208 -127c1 -1 2 -9 -3 -9c-18 0 -111 45 -129 65c-13 15 -19 48 -19 87c0 83 25 197 27 238c0 12 -44 51 -44 66c0 11 42 18 68 29c51 98 127 346 280 228c5 -12 -19 -10 -27 -18c-71 -73 -81 -123 -121 -229c-25 -60 -70 -60 -70 -60s30 -24 20 -133
c-1 -29 -14 -122 -6 -187c4 -33 4 -47 24 -77zM149 282l-6 -15c-7 -5 -16 -8 -24 -9l4 -8l11 4l1 -12l13 -2c6 10 9 22 11 35zM122 250c-7 -3 -22 -5 -26 -9l3 -20l14 2c5 5 7 19 9 27zM173 388l-2 -10l20 -8c0 12 6 15 12 26c-18 10 -23 -8 -30 -8zM127 213l-1 -9l15 -9
l9 11c-3 3 -4 8 -7 10c-2 4 -19 4 -22 4zM175 331l-16 -2l3 -12l-3 -9l7 -3l7 5c1 7 2 14 2 21zM153 240v-23c7 8 13 5 23 8c-8 6 -14 14 -23 15zM211 438l-6 -16l12 2l9 -5v7zM104 161v-17l22 -7l-2 9h-13zM121 195h-12c2 -5 4 -12 7 -17c2 5 5 10 5 17zM143 353
c0 -6 0 -10 4 -15l4 7l-1 10zM185 331l2 -14l10 1l-5 10zM143 303l-2 -11l9 -4l-2 17zM131 153l5 -5l5 14h-9zM169 412l9 5l-12 6zM187 292l-2 -5l10 -2l-3 9zM116 109l10 4l-12 6zM171 353l7 -5l-1 7z" />
    <glyph glyph-name="bar" unicode="|" horiz-adv-x="336" 
d="M150 0c-7 0 -92 15 -105 22c-11 6 -15 13 -15 23c0 5 1 13 3 18c23 69 136 588 145 627c2 12 7 18 16 18c8 0 122 -23 122 -46c0 -7 -3 -23 -8 -43c-28 -119 -128 -570 -136 -595c-3 -12 -7 -24 -22 -24zM216 453l-5 2l-9 -12l-10 2l-5 8c-9 0 -16 4 -23 4l-10 13
c-7 -2 0 -25 2 -30c3 3 10 5 14 5l19 -5l-1 -11l-7 -7l-8 2l-3 11c-14 -7 -4 -17 -10 -28l-6 -2l2 -19l-21 8l2 -12l17 -8v-12l7 -5l3 -29h7l4 6l6 -3h8c5 2 9 8 10 12l-10 3v9l6 5l12 -11l5 3l-14 10l-4 10l4 10l-17 19l8 -23l-6 -9l-10 32l8 15l13 -4l6 -7l-11 19l10 2
c6 10 14 25 25 29l6 16l-6 6v21l-13 -3l-4 -9l-2 3c0 -3 3 -18 8 -18zM173 322c-2 -5 -5 -9 -7 -15c-5 -14 5 -11 13 -16l4 -7l11 -2l5 10l-11 5l1 19zM141 326l10 -10l13 1c-4 9 -5 19 -6 29l-9 -4zM173 336v5c0 7 -2 10 -2 14c0 5 7 12 12 12l-2 -12l5 -4l1 -10zM210 536
l-4 -22l18 1l-6 17zM181 283l-11 -3l-2 -9l-17 -6c3 0 5 -2 8 -2c5 0 19 6 24 8zM127 242l-6 -25c6 4 14 10 18 16l-2 13zM159 232h-10l-2 -11c9 4 19 4 26 10l-7 5zM183 497l-6 -6l6 -15l6 5v15zM166 261l-2 -10l9 1l6 8l8 1l8 7zM233 529c0 -7 2 -13 7 -17l6 13
c-3 2 -10 4 -13 4zM187 453c5 1 11 4 15 6c-3 5 -8 5 -13 9c-1 -6 -2 -9 -2 -15zM206 382c0 -6 0 -12 2 -17l8 3l-2 10zM106 217l2 -12l8 -1l6 7zM102 158c1 -6 6 -6 10 -8l6 4l-6 6zM234 481l7 -17l8 7zM251 514l-2 -9l9 1l1 9zM127 148l6 -2l2 10h-10zM125 261l-4 -6l6 -1
l3 7h-5zM204 422l7 -9l7 3zM144 360v-9l8 2zM125 203l8 -3c-2 3 -6 8 -8 12v-9zM159 296v-9l7 8zM144 273v-5l7 -1l-1 5zM229 555v-9l6 10zM150 183l1 -4l5 2l-5 4zM152 315l-1 -8l5 -2zM173 464l4 -4l1 6zM239 500v-4h4zM212 436l1 -5l1 6zM190 331c-1 -1 -2 -5 -2 -8z" />
    <glyph glyph-name="braceright" unicode="}" horiz-adv-x="367" 
d="M-50 -112c3 8 18 15 28 19c59 22 113 221 126 251c15 34 42 38 42 38c0 1 -21 18 -17 61c2 22 32 138 32 218c0 24 -2 44 -9 58c-7 13 -43 45 -43 60c0 5 2 8 8 8c7 0 107 -27 144 -71c8 -10 10 -34 10 -62c0 -73 -21 -192 -21 -238c0 -4 1 -7 1 -9c7 -16 46 -52 46 -64
c0 -14 -51 -20 -69 -32c-21 -28 -87 -227 -132 -248c-13 -6 -32 -11 -54 -11c-28 0 -92 9 -92 22zM200 210l-6 -17c-9 -5 -18 -8 -29 -10l5 -9l12 4l1 -13l15 -3c9 12 12 26 13 42zM168 174c-8 -2 -24 -6 -29 -10l3 -24l16 2c6 7 8 23 10 32zM204 314l-2 -12l23 -9
c0 14 7 17 13 29c-22 11 -27 -8 -34 -8zM151 111l-3 -11l18 -9l10 13c-2 4 -4 8 -8 11c-2 4 -20 5 -24 5zM207 248l-21 -2l6 -14l-6 -10l9 -4l9 5c0 9 3 17 3 25zM192 156v-29c6 11 15 7 24 11c-8 6 -14 16 -24 18zM211 387l-7 -20l14 4l10 -7v8zM124 51v-19l24 -7v9h-15z
M144 91h-14c3 -7 3 -13 7 -19c3 6 7 10 7 19zM218 248l2 -16h12l-6 12zM168 272c0 -6 0 -11 6 -16l4 8l-2 11zM168 214l-2 -10l10 -6v20zM156 44l4 -8l6 17h-9zM220 204l-4 -8l12 -1l-2 9h-6zM198 342l12 4l-15 8zM137 -8l11 5l-12 7zM202 272l8 -4l-2 7z" />
    <glyph glyph-name="asciitilde" unicode="~" horiz-adv-x="396" 
d="M283 307c-34 -1 -103 -68 -181 -68c-59 0 -82 32 -82 69c0 46 35 71 66 71c6 0 10 -3 10 -10c0 -10 -8 -29 -8 -41c0 -14 15 -19 34 -19c46 0 91 68 170 68c54 0 84 -24 84 -68c0 -12 0 -56 -34 -67c-7 -2 -37 -3 -37 2c0 8 6 28 6 41c0 16 -8 22 -28 22zM233 341l-10 -8
l15 -26l10 12l23 4c-3 3 -4 7 -8 11c-3 4 -24 8 -30 7zM161 313l1 -9l12 5l7 13h-12zM67 345h13l-1 10zM200 301l6 -12l5 9z" />
    <glyph glyph-name="nbspace" unicode="&#xa0;" horiz-adv-x="0" 
 />
    <glyph glyph-name="currency" unicode="&#xa4;" horiz-adv-x="621" 
d="M9 341c9 7 54 13 130 13c120 331 125 360 151 360c0 0 175 -26 265 -69c30 -14 55 -35 70 -60c13 -22 36 -69 36 -84c0 -18 -8 -29 -20 -39c-16 -14 -316 -169 -325 -175c-5 -2 -8 -4 -12 -4c-7 0 -15 10 -22 18l-24 -67c43 0 56 2 77 2c32 0 141 -28 141 -42
c0 -2 -2 -4 -8 -5c-5 0 -68 -2 -227 -4l-51 -144c-9 -17 -11 -36 -28 -41c-7 0 -15 1 -24 3l-35 6c-41 7 -71 22 -71 41c0 4 22 71 46 134c-95 12 -140 35 -137 34c14 12 82 11 154 13c10 26 19 54 29 81c-59 9 -109 21 -115 29zM537 548c0 29 -110 52 -148 58
c-8 -25 -31 -93 -59 -171c61 30 207 97 207 113zM198 255l6 -9c6 0 11 -3 16 -5h12l10 -15l4 3c3 10 1 22 -4 33l-8 -5c-10 0 -21 1 -32 5c0 7 3 17 8 21l11 -4l3 -11l8 2c3 9 0 20 3 29l11 3l-6 24l26 -10l-2 13l-20 10l3 11c-20 7 -13 26 -13 44l-10 -2l-4 -5l-7 4
c-11 -1 -19 -5 -22 -15l11 -5v-11l-6 -4l-15 14l-5 -5c14 -9 22 -17 17 -35l18 -23l-9 27l8 11l13 -38l-10 -18c-8 1 -19 6 -23 12l11 -21c-15 -1 -27 -29 -41 -37l-8 -17l8 -8v-26l16 3l3 12l2 -3v11c-11 10 -10 17 -12 31l8 -3l9 15zM202 407l18 -7c3 6 7 11 10 18
c5 16 -6 13 -16 19l-3 10l-15 3l-5 -13l11 -6v-24zM259 394l-10 13h-15c1 -12 1 -24 6 -34l9 3zM224 360c0 -6 -9 -12 -14 -12l1 12c-4 5 -6 13 -6 19l15 5c0 -7 0 -19 4 -24zM265 491l10 4c4 9 9 22 9 30c-8 -2 -16 -13 -20 -19zM176 148l5 24h-21l7 -20zM213 447l14 3
l1 12l21 8c-12 0 -26 -5 -38 -8zM224 508l7 -4c6 2 15 4 20 4v12l-21 -5zM230 473l4 12l-11 -1c-8 -9 -19 -11 -27 -19zM210 193l5 8l-5 18l-8 -6l-1 -18zM204 246c-6 -1 -13 -4 -18 -7l5 -7l10 -3c3 3 4 9 4 13c0 1 -1 3 -1 4zM147 169l-7 8l-5 -16l3 -4h11zM363 421l-9 3
v-11l6 -11l6 9zM173 333l8 -2c0 6 0 14 -2 19l-8 -2l-2 -9zM302 525l-3 13l-9 1l-6 -7zM436 399l-8 4l-8 -9c7 -4 11 -4 20 -4zM388 384l-8 6l-3 -6v-8l9 -3zM355 373l-4 10c0 -6 -3 -7 -5 -12c-1 -4 -1 -7 -1 -11h6zM123 152l-10 6l5 -12l-2 -14l7 8v12zM149 213l-9 19
l-8 -6zM482 399l-7 3v-12h10zM127 174l2 11l-9 -3l-2 -10zM281 472l3 7l-9 3v-10h6zM152 124l2 11l-5 -3l-3 -8h6zM255 356v9l-8 -2zM238 431v9l-8 -6zM184 283l-8 9h-9zM249 409v9h-9zM404 417l-6 7v-7h6zM221 232l-6 5l-1 -8z" />
    <glyph glyph-name="brokenbar" unicode="&#xa6;" horiz-adv-x="300" 
d="M310 663v-2c0 -10 -26 -95 -45 -147c-5 -14 -14 -19 -38 -19c-58 0 -96 11 -96 27c0 2 0 4 1 6c0 11 25 91 35 125c7 24 13 35 46 35c30 0 97 -5 97 -25zM192 198l-10 -32c-11 -34 -25 -92 -35 -128c-5 -16 -11 -26 -26 -26c5 0 -111 2 -111 33c0 26 32 119 42 149
c6 18 10 26 65 25c35 0 74 -6 75 -21zM128 153v12h-11v-12c0 -16 11 -16 11 -16h19s0 16 -19 16zM107 120v31c1 -16 -12 -16 -11 -16c0 16 0 16 -18 16v-31h18h11zM110 101l19 14l-19 15v-29zM87 67c0 0 15 0 15 15l-15 16v-31zM44 82h12s0 16 19 30
c-19 -14 -31 -14 -31 -30zM212 625l-11 4v-14l8 -12l7 11zM242 580l-9 7l-4 -7l1 -10l10 -3zM202 567l-5 12c0 -7 -4 -9 -6 -14c-1 -6 -1 -8 -1 -14h7zM262 620l-8 9v-9h8z" />
    <glyph glyph-name="section" unicode="&#xa7;" horiz-adv-x="538" 
d="M374 489c0 -79 49 -151 49 -236c0 -60 -19 -159 -100 -159c-18 0 -36 1 -45 1c5 -12 7 -42 7 -76c0 -114 -51 -225 -181 -225c-50 0 -95 20 -96 20c-2 0 -12 -26 -20 -26c-27 0 -92 34 -105 46c-7 6 -14 13 -12 20c8 36 70 178 88 178c10 0 111 -59 111 -77
c-1 1 -18 -37 -28 -58c3 -5 11 -7 20 -7c66 0 104 100 87 155c-26 90 -93 156 -93 247c0 82 41 174 119 203l24 11c2 16 4 33 12 53c44 109 107 133 157 133c64 0 101 -20 106 -20s22 39 32 39c8 0 112 -63 112 -91c0 -3 -1 -8 -4 -14c-21 -54 -61 -125 -70 -125
c-6 0 -12 2 -19 5c-26 12 -86 45 -85 53l16 62c-39 -4 -82 -57 -82 -112zM232 156c39 27 57 67 57 109c0 49 -21 105 -37 127c-31 -18 -58 -70 -58 -124c0 -40 23 -79 38 -112zM164 218c1 -14 3 -16 0 -22c0 -4 -4 -5 -14 -16l8 -5c-6 -8 -14 -15 -18 -24l14 -16l12 11
c1 7 -3 20 -7 27l6 12l9 -10l12 5v15c-3 6 -9 14 -9 22zM112 300l5 -10l23 3c-8 10 -5 20 -5 30l-8 -1c-6 -6 -14 -15 -15 -22zM177 116l3 -8l18 1l3 16c-4 3 -9 4 -13 5c-4 3 -19 -7 -21 -9zM150 249l-15 -11l11 -8l2 -11l6 2l5 8c-2 7 -5 14 -9 20zM186 171
c1 -6 10 -15 15 -21c0 6 7 17 11 21c-5 1 -15 3 -19 3zM117 366l5 -19l9 8l10 2l-4 6zM188 59l7 -16l24 7l-6 9l-12 -8zM182 99l-10 -8c4 -5 8 -9 15 -11zM158 255l9 -10l7 6l-8 7zM216 67l7 -2l-5 16l-7 -6zM182 223l2 -7l8 4l-5 8zM95 318l5 8l-15 -2zM227 20l7 8l-13 -1z
M132 266h10l-5 6zM286 431l11 1c3 -11 3 -11 -7 -25c3 0 5 1 7 3c5 5 6 14 14 22c-13 12 -13 12 -25 -1zM304 449c9 12 9 12 9 22c-12 -2 -10 -10 -22 -12zM304 390v-13c3 1 6 2 7 4c3 2 3 3 6 6c1 2 4 3 7 3c-3 1 -11 1 -11 1zM351 424l8 9h-10zM305 361c6 0 8 0 9 1
c1 2 1 4 1 9l-12 -2zM319 414c5 -3 8 -5 10 -7c5 -4 4 -7 5 -17l11 3c-23 22 -8 11 -15 18c-5 4 -11 3 -11 3zM315 451l3 -26c-1 10 12 13 11 26c0 0 -1 0 -2 -2c-3 -3 -6 -7 -10 -4c0 1 -2 3 -2 6zM321 349c3 0 6 1 6 2c4 3 2 7 2 7l-10 -1zM321 365c0 0 6 0 13 8
c2 2 4 5 6 7l-22 -2z" />
    <glyph glyph-name="copyright" unicode="&#xa9;" horiz-adv-x="671" 
d="M193 148c-101 28 -133 102 -133 180c0 80 28 161 61 215c51 84 158 164 302 164c112 0 228 -53 228 -223c0 -160 -104 -356 -327 -356c-40 0 -84 6 -131 20zM218 182c30 -8 59 -12 86 -12c189 0 283 184 283 325c0 121 -68 167 -155 167c-202 0 -309 -216 -309 -322
c0 -80 40 -142 95 -158zM421 532c20 0 54 1 54 -34v-28v-12c0 -33 -8 -29 -33 -29c-24 0 -29 1 -29 37c0 8 1 17 1 27c-43 -6 -113 -105 -113 -154c0 -16 9 -23 24 -23c10 0 46 22 50 22h3c10 0 46 -11 46 -13c-7 -22 -81 -34 -104 -34c-53 0 -85 29 -85 71
c0 84 102 170 186 170zM472 483c-4 -1 -6 -2 -8 -2c-5 0 -9 2 -9 6c0 1 1 2 1 2l-10 4s-1 -4 -7 -4h-3c3 1 5 1 5 2c0 0 -2 0 -5 2c1 2 5 2 9 2l-6 13l-12 -8c2 -3 3 -5 3 -5v-6c0 -5 3 -8 11 -8c3 0 8 1 12 2c4 -3 9 -4 12 -4s6 1 7 4zM447 449c0 0 2 -1 5 -1s6 1 8 5l-9 4
s1 1 1 4c0 2 -1 6 -5 8c-2 -6 -3 -9 -3 -12c0 -6 3 -8 3 -8zM108 469v-1l-8 -5c3 -2 3 -2 5 -2c-2 -2 -4 -4 -4 -8l5 -1l-1 -5c1 -1 3 -2 4 -2c4 0 7 2 10 2h6l-15 6c0 7 4 9 15 11l-8 4s1 2 1 4c0 4 -1 7 -5 8zM467 474c-2 -3 -5 -4 -7 -4c-3 0 -5 1 -5 1l5 -11zM304 369
l-10 3c-1 -2 -2 -4 -2 -5s0 -1 1 -1s5 1 11 3zM375 320c-3 -6 -6 -10 -6 -13h2c1 0 11 -2 9 3zM278 347l9 -4c-3 6 -4 8 -5 8c-2 0 -14 -13 -16 -17c5 2 11 4 12 13zM529 247c0 0 3 1 5 1c1 0 2 0 4 -1l-25 11c-3 -5 -4 -7 -4 -10c0 -2 2 -3 7 -4c-16 -28 -23 -9 -23 -21
c0 -1 2 -2 7 -4l2 5h1c5 0 10 5 10 7l1 -2l-3 -7h2c0 -2 -2 -2 -4 -3l9 -4c1 -1 1 7 7 7l2 6c1 -1 2 -1 4 -1c6 0 12 4 12 4c-15 7 -4 10 -14 16zM422 471c-2 -3 -3 -4 -3 -5c0 -2 3 -3 8 -6c0 0 1 7 14 15c-1 0 -2 1 -3 1c-5 0 -9 -6 -13 -6c-1 0 -3 0 -3 1zM115 427l-2 -8
l-4 -8l6 -3c1 4 3 7 3 9s-2 5 -3 10zM252 379c1 -11 1 -16 7 -27c1 4 1 5 1 7c2 -1 3 -1 4 -1s2 2 5 6l-9 2c-1 4 -3 6 -3 11l2 -2l1 2s1 -1 1 -2s0 -1 -1 -2c3 2 8 4 11 10c0 -1 2 -1 3 -1c4 0 4 3 7 3c1 0 2 0 4 -1v2c2 -2 2 -6 6 -6l3 9l-7 4l2 7c-3 -1 -5 -1 -6 -1
c-2 0 -2 0 -2 1c13 9 23 6 29 24c-8 3 -9 5 -9 5s-1 -1 -1 -4c0 -1 0 -2 1 -4l-7 4c5 11 6 15 10 15c0 0 3 -1 5 -3c4 2 5 3 5 4c0 4 -7 5 -18 9c1 1 1 3 1 3c0 1 -2 2 -3 2c-3 0 -7 -2 -7 -2c-5 -14 -6 -13 -6 -13l-6 1c-13 -5 0 -43 -15 -41c18 3 11 -5 16 13
c2 0 4 -2 5 -2c-3 -3 -5 -5 -5 -7s1 -3 2 -7l-3 -9h-2v1l-13 -6c-3 1 -5 2 -6 2c-2 0 -5 -2 -5 -6h3zM90 413c2 5 7 6 7 7c0 0 -1 0 -4 1l-13 -4zM80 290l-3 -10h3v-1l-1 -3l1 -1c3 -2 3 -2 4 -4l-3 -4c0 -1 0 -2 -1 -3l6 -2l-6 -2l6 -12c2 7 4 9 11 14c2 -2 5 -3 9 -3
c-3 5 -4 7 -4 9c0 6 5 -2 13 16c-12 -6 -13 -10 -13 -11v2c-1 1 1 -2 -2 -2c2 1 2 3 6 9h-2c2 0 2 2 3 5l-7 4l11 5l-5 2c1 2 3 2 3 5l-14 6c0 -4 2 -6 4 -7l-11 3l2 6c0 -1 0 -1 1 -1v2c0 3 6 4 6 9c0 1 -1 2 -3 2s-6 -2 -6 -2c-3 1 -4 2 -6 2s-3 -2 -5 -7l6 -2
c-3 -2 -3 -3 -4 -5l5 -11l7 -3l-3 -8c-4 0 -4 3 -8 3zM159 536l-11 -6l-1 -7l16 -6v2c0 4 -5 8 -5 13c0 1 0 2 1 4zM109 392c-4 1 -7 2 -9 2s-3 -2 -5 -5l-3 -10l11 -3zM74 369c3 0 10 0 10 5l-7 4c-2 -8 -3 -9 -3 -9zM70 355l-4 -8c2 4 3 6 5 6s5 -1 9 -3l4 9zM88 381v5
c0 6 -1 9 -3 9c-1 0 -4 -3 -5 -6v-4l4 -11c6 2 7 3 7 4c0 2 -3 3 -3 3zM609 491l9 -7c-7 -10 -7 -10 -24 -12c2 -3 5 -3 8 -3c7 0 13 5 25 5c0 17 0 17 -18 17zM612 389c14 2 14 2 21 9c-10 7 -14 0 -24 7zM606 436l-10 -9c3 -3 6 -3 8 -3h8c3 0 5 0 7 -3c-1 3 -7 8 -7 8z
M129 235h11l-7 7zM557 291c4 -4 5 -5 7 -5s3 1 7 5l-10 8zM588 351c1 -5 2 -9 2 -12c0 -6 -3 -8 -10 -14l10 -7c0 32 3 13 3 23c0 6 -5 10 -5 10zM612 379l-17 -19c7 7 17 0 27 10h-4c-4 0 -9 0 -9 3c0 2 0 4 3 6zM542 306c3 -3 5 -4 6 -4c4 0 6 4 6 4l-6 6zM554 317l6 -7
s-2 2 9 2c2 0 5 0 8 1l-16 14z" />
    <glyph glyph-name="guillemotleft" unicode="&#xab;" horiz-adv-x="616" 
d="M178 264c48 -47 156 -161 156 -188c0 -3 -4 -6 -11 -10c-41 -22 -76 -35 -97 -37c-32 0 -147 134 -206 201c-6 6 -10 10 -10 14c0 3 8 9 25 19c51 29 240 129 273 145c7 4 13 6 18 6c15 -1 30 -23 30 -35c0 -20 -169 -98 -178 -115zM415 264c45 -49 138 -159 138 -185
c0 -4 -3 -7 -6 -9c-1 0 -59 -32 -98 -32c-10 0 -19 5 -27 14l-14 15c-43 49 -88 101 -128 153c-10 12 -15 22 -15 27c0 12 205 125 272 158c7 4 13 6 19 6c16 0 29 -26 30 -38c-23 -26 -162 -97 -171 -109zM194 125l16 -15c-7 7 -1 14 -1 14c9 -9 9 -9 19 1l-17 17zM152 167
c8 7 0 14 0 14s-17 -17 -10 -24l-7 -7l27 7zM174 188c8 7 2 15 6 21c-6 -6 -6 -5 -13 2c0 -15 0 -15 -10 -25l8 -7zM187 85l7 -7l7 7l-7 6c-9 9 -15 2 -15 2l-11 -10s9 -9 19 2zM387 268l4 9c-1 0 -2 1 -3 1c-5 0 -8 -8 -8 -8l-1 -7s-1 -2 -1 -3s0 -1 1 -1s3 0 6 2
c-3 -8 -3 -8 -11 -14c5 -2 3 -6 8 -6c2 0 4 0 7 1l3 7l-10 4c6 2 7 6 7 8c0 4 -2 7 -2 7zM147 208l-10 -9c-7 -8 -1 -15 -1 -15l17 17c2 2 3 2 3 2c-1 1 -4 0 -9 5zM163 156c0 0 -8 -9 0 -17l17 -1zM178 229c-9 8 0 16 -9 26c-8 -8 0 -17 -7 -25c9 6 16 -1 16 -1zM169 124
l-3 -19l19 2zM239 113l-10 -11l7 -7l10 11zM358 256l2 2l3 7h-1c-2 0 -7 -1 -10 -6c-1 1 -2 2 -5 2c-2 0 -5 -1 -8 -3l7 -2s0 -2 4 -2v-1h2c4 -2 6 -2 10 -2c-2 2 -2 3 -4 5zM196 171l-7 -7s8 -7 6 -24c4 17 9 22 1 31zM318 212l-12 -6l17 -5v3c0 6 -5 8 -5 8zM128 200
c-5 5 -7 6 -4 10l-10 -10l11 -11c-5 5 -3 6 3 11zM142 221l8 -9l1 18zM415 227l4 7l-7 1s-1 -1 -1 -3s1 -4 4 -5zM363 197l-1 -7l8 -1v1v0c-1 0 -3 2 -7 7z" />
    <glyph glyph-name="logicalnot" unicode="&#xac;" horiz-adv-x="556" 
d="M536 342c0 -21 -24 -84 -33 -121c-3 -10 -7 -14 -17 -14c-11 0 -113 22 -113 42c0 9 13 55 24 89c-95 -3 -207 -13 -242 -13c-47 0 -121 26 -135 35c8 7 16 8 40 10c131 9 362 16 362 17c40 0 114 -32 114 -43v-2zM420 299c0 0 9 -11 20 -3l3 18zM258 357v11h-11v-11
c0 -14 11 -14 11 -14h17s0 14 -17 14zM333 344v28c1 -15 -11 -15 -10 -15c0 15 0 15 -17 15v-28h17h10zM281 344l17 13l-17 14v-27zM340 355c0 0 9 -11 20 -3l3 18zM382 359l9 -6s7 12 29 13c-22 -1 -31 4 -38 -7zM291 342c0 0 3 -4 7 -1l1 7zM196 359l23 -15l-3 18
c-11 8 -20 -3 -20 -3z" />
    <glyph glyph-name="uni00AD" unicode="&#xad;" horiz-adv-x="559" 
d="M20 307c19 16 351 18 381 18c31 0 138 -28 138 -43c0 -2 -10 -3 -24 -4h-9l-319 -8c-16 -1 -29 -2 -37 -1c-40 0 -123 34 -130 38zM252 295v11h-11v-11c0 -14 11 -14 11 -14h17s0 14 -17 14zM327 282v28c1 -15 -11 -15 -10 -15c0 15 0 15 -17 15v-28h17h10zM275 282
l17 13l-17 14v-27zM334 293c0 0 9 -11 20 -3l3 18zM376 297l9 -6s7 12 29 13c-22 -1 -31 4 -38 -7zM285 280c0 0 3 -4 7 -1l1 7zM190 297l23 -15l-3 18c-11 8 -20 -3 -20 -3z" />
    <glyph glyph-name="registered" unicode="&#xae;" horiz-adv-x="671" 
d="M324 128c-121 0 -264 44 -264 200c0 80 28 161 61 215c51 84 158 164 302 164c112 0 228 -53 228 -223c0 -160 -104 -356 -327 -356zM123 340c0 -114 68 -170 181 -170c189 0 283 184 283 325c0 121 -68 167 -155 167c-202 0 -309 -216 -309 -322zM275 275
c-18 3 -32 6 -32 17c0 24 72 203 79 226c2 9 5 12 12 12c37 0 150 -10 150 -61c0 -29 -42 -44 -118 -87c23 -47 51 -98 51 -100c0 0 -10 -17 -30 -17s-37 43 -60 88l-25 -74c-3 -7 -5 -7 -27 -4zM441 479c-4 6 -26 9 -65 13c-7 -22 -16 -43 -23 -64c46 24 88 48 88 51z
M391 408c-3 -1 -5 -2 -8 -2c-5 0 -4 -3 -4 0c0 1 1 2 1 3l-9 4s-1 -5 -7 -5c0 0 -2 0 -4 1c4 0 6 0 6 1c0 0 -2 0 -6 3c2 1 6 1 10 1l-6 13l-13 -8c3 -3 4 -5 4 -5c-1 -2 -1 -4 -1 -5c0 -6 4 -9 12 -9c3 0 7 1 12 2c4 -2 3 2 7 2c3 0 5 2 6 4zM417 430c0 0 2 -1 4 -1
c3 0 6 1 9 5l-10 4s1 1 1 4c0 2 -1 5 -4 8c-3 -6 -3 -9 -3 -12c0 -7 3 -8 3 -8zM110 468v-1l-9 -6c3 -1 3 -1 6 -1c-3 -2 -4 -4 -4 -8l5 -1l-1 -6c1 0 3 -1 4 -1c4 0 6 2 10 2c2 0 3 0 5 -1l-14 7c0 7 4 9 14 11l-7 4s1 2 1 4c0 3 -1 6 -5 8zM436 455c-1 -3 -4 -5 -6 -5
c-4 0 -6 2 -6 2l6 -11zM333 374l-9 3c-2 -3 -2 -4 -2 -5v-1c2 0 6 1 11 3zM360 340c-4 -7 -6 -11 -6 -13c0 -1 1 -1 2 -1s11 -1 9 3zM284 334l10 -4c-3 6 -5 9 -6 9c-2 0 -13 -13 -16 -18c6 2 11 4 12 13zM530 250h5h4l-25 11c-2 -5 -4 -8 -4 -10s2 -3 8 -4
c-17 -28 -24 -10 -24 -21c0 -1 2 -2 8 -4l1 5h2c4 0 9 5 9 7l1 -2l-3 -7h2c0 -2 -2 -2 -4 -3l9 -4c1 -1 1 7 7 7l2 6c1 -1 3 -1 4 -1c6 0 12 4 12 4c-15 7 -4 10 -14 16zM386 439c-1 -3 -2 -4 -2 -5c0 -3 2 -3 8 -6c0 0 1 7 13 15c-1 0 -1 1 -2 1c-5 0 -9 -6 -14 -6
c0 0 -2 0 -3 1zM117 426l-2 -8l-4 -8l6 -3c1 4 3 6 3 9c0 2 -2 5 -3 10zM281 383c2 -10 2 -16 7 -26c2 4 2 5 2 7c1 -1 3 -1 4 -1s2 1 5 6l-9 2c-2 3 -3 6 -3 11l1 -2l2 2s1 -1 1 -2s0 -1 -1 -2c3 2 8 4 10 9c1 -1 3 -1 3 -1c4 0 4 3 7 3h5v1c1 -1 1 -5 5 -5l4 9l-8 4l3 7
c-3 -1 -5 -2 -6 -2c-2 0 -2 1 -2 2c13 9 23 6 29 23c-9 3 -9 5 -9 5s-1 -1 -1 -3s0 -3 1 -4l-7 4c4 10 6 14 9 14c1 0 3 -1 5 -2c4 1 6 2 6 4c0 3 -7 4 -19 9c1 0 1 2 1 2c0 2 -1 2 -3 2c-3 0 -7 -1 -7 -1c-4 -15 -6 -13 -5 -14l-7 2c-12 -6 0 -44 -14 -41c18 3 10 -5 16 13
c2 0 3 -3 5 -3c-4 -3 -5 -4 -5 -7c0 -1 0 -3 2 -6l-4 -10h-1v2l-13 -7c-3 2 -6 2 -6 2c-2 0 -5 -2 -5 -6h2zM92 412c2 5 6 6 6 7l-3 1l-13 -4zM82 290l-3 -10h3v-2l-1 -2l1 -1c3 -2 3 -2 4 -4l-3 -5s0 -1 -1 -2l6 -2l-6 -2l6 -12c2 7 4 8 10 14c3 -2 6 -3 9 -3
c-2 4 -3 7 -3 9c0 6 5 -2 13 16c-13 -6 -13 -10 -13 -11v2c-1 0 1 -3 -3 -2c3 1 3 3 6 8h-1c1 0 1 3 3 6l-7 4l11 5l-6 1c2 3 4 3 4 6l-14 5c0 -3 1 -5 4 -7l-11 4l2 5h1v1c0 3 6 5 6 9c0 2 -1 2 -3 2s-6 -1 -6 -1c-3 1 -5 1 -6 1c-2 0 -3 -1 -5 -6l6 -3c-3 -1 -3 -3 -4 -5
l5 -11l7 -3l-3 -7c-4 0 -4 3 -8 3zM161 534l-11 -5l-2 -8c12 -4 -2 1 16 -5v1c0 4 -4 8 -4 13c0 1 0 3 1 4zM111 391c-4 1 -7 2 -9 2s-3 -2 -5 -5l-3 -9l10 -4zM76 368c3 0 10 0 10 5l-7 4c-2 -8 -3 -9 -3 -9zM72 354l-4 -8c2 5 3 7 5 7s5 -2 9 -4l4 9zM90 380v5
c0 6 -1 9 -3 9s-4 -3 -5 -6v-4l4 -11c6 2 7 3 7 4c0 2 -3 3 -3 3zM609 492l10 -6c-7 -10 -7 -10 -24 -13c2 -2 5 -3 8 -3c6 0 13 6 25 6c0 16 0 16 -19 16zM613 391c14 2 14 2 21 9c-10 7 -15 0 -24 7zM606 438l-9 -9c3 -3 6 -3 8 -3h8c3 0 5 0 7 -3c-1 3 -7 8 -7 8z
M130 235h12l-7 7zM558 294c4 -4 5 -6 7 -6s4 2 7 6l-10 7zM589 354c1 -6 2 -10 2 -13c0 -6 -3 -7 -10 -14l10 -7c0 32 3 14 3 24c0 6 -5 10 -5 10zM613 382l-17 -20c7 7 17 0 26 10h-3c-4 0 -10 0 -10 4c0 1 1 3 4 6zM541 281c2 -3 5 -4 6 -4c4 0 6 4 6 4l-6 7zM565 313
l7 -7s-2 2 9 2c2 0 5 0 8 1l-17 13z" />
    <glyph glyph-name="degree" unicode="&#xb0;" horiz-adv-x="344" 
d="M384 596c0 -97 -92 -164 -169 -164c-82 0 -125 51 -125 108c0 88 78 164 171 164c57 0 123 -40 123 -108zM215 484c43 0 90 61 90 118c0 26 -12 46 -38 46c-42 0 -95 -73 -95 -122c0 -26 17 -42 43 -42zM361 592c-3 0 -5 -1 -7 -1c-5 0 -9 2 -9 5c0 1 1 2 1 3l-9 3
s-1 -4 -6 -4c-1 0 -2 0 -4 1c4 0 5 0 5 1c0 0 -2 0 -5 2c2 2 5 2 9 2l-5 12l-12 -7c2 -3 3 -5 3 -5c-1 -3 -1 -4 -1 -5c0 -5 4 -8 11 -8c3 0 7 1 12 1c3 -2 7 -3 11 -3c3 0 5 1 6 3zM338 561c0 0 2 -1 4 -1c3 0 6 1 8 4l-9 4s1 1 1 4c0 2 -1 5 -4 7c-2 -5 -3 -8 -3 -11
c0 -6 3 -7 3 -7zM356 584c-1 -2 -4 -4 -6 -4c-3 0 -5 2 -5 2l5 -11zM161 544l-9 3c-1 -2 -2 -4 -2 -5h1c1 0 5 0 10 2zM325 530c-3 -6 -5 -10 -5 -12c0 -1 0 -1 1 -1c2 0 11 -1 9 3zM137 523l9 -3c-3 5 -5 7 -5 7c-2 0 -13 -12 -15 -16c5 2 10 4 11 12zM309 569
c-1 -2 -2 -4 -2 -5c0 -2 2 -2 7 -5c0 0 2 7 13 14c-1 0 -1 1 -2 1c-5 0 -9 -5 -13 -5h-3zM112 553c2 -10 2 -15 7 -25c1 4 1 5 1 7c1 -1 3 -1 4 -1s2 1 5 6l-9 2c-1 3 -3 5 -3 10l2 -2l1 2s1 -1 1 -2s0 -1 -1 -2c3 2 8 4 10 9c1 -1 2 -1 3 -1c3 0 3 3 6 3c2 0 2 0 5 -1v2
c1 -2 1 -5 5 -5l3 8l-7 4l2 6c-3 -1 -4 -1 -6 -1c-1 0 -1 0 -1 1c12 9 21 6 27 22c-8 3 -8 5 -8 5s-1 -1 -1 -3s0 -2 1 -4l-7 4c4 10 6 13 9 13c0 0 3 -1 5 -2c3 1 5 2 5 4c0 3 -7 4 -17 8v2c0 2 -1 2 -3 2s-6 -1 -6 -1c-4 -14 -6 -12 -5 -13l-6 2c-12 -5 0 -41 -14 -39
c17 3 10 -4 15 12c2 0 4 -2 5 -2c-4 -3 -5 -4 -5 -6s1 -3 2 -7l-3 -8h-2v1l-12 -6c-3 1 -5 2 -6 2s-4 -2 -4 -6h2z" />
    <glyph glyph-name="plusminus" unicode="&#xb1;" horiz-adv-x="435" 
d="M4 312c10 12 76 10 150 12c30 91 32 147 68 147c48 0 95 -13 95 -36c-7 -25 -20 -65 -33 -108h28c37 0 103 -28 103 -36c0 -2 -3 -5 -9 -5h-16c-21 0 -68 0 -119 -1c-12 -41 -25 -80 -38 -120c-4 -20 -37 -29 -77 -29c-20 0 -50 1 -50 23c0 32 23 89 34 122
c-42 1 -133 22 -136 31zM-50 96c14 17 319 14 322 14c33 0 105 -28 105 -37c0 -3 -2 -5 -41 -5h-9c-73 0 -222 -5 -253 -5c-60 0 -123 28 -124 33zM235 362l-6 -12c-5 -3 -12 -6 -20 -7l4 -8l8 4l2 -10l10 -2c7 8 10 20 10 31zM211 335c-6 -1 -18 -4 -22 -8l3 -16l12 1
c4 4 6 17 7 23zM197 288v-7l13 -8l7 11c-2 1 -3 5 -6 8c-1 2 -15 3 -18 3zM240 390h-15l3 -11l-3 -9l6 -2l6 4c2 7 3 13 3 18zM228 321v-20c5 7 12 4 19 7c-6 5 -11 12 -19 13zM178 243v-14l19 -6l-1 8h-11zM193 273h-11c3 -4 3 -9 6 -15c2 6 5 9 5 15zM211 409
c0 -4 0 -8 4 -12l4 5l-2 10zM249 390l1 -11h9l-5 10zM211 366l-1 -8l7 -4v14zM201 238l4 -5l5 12h-8zM250 358l-3 -6l9 -1l-2 8zM188 199l9 4l-11 4zM236 409l7 -4l-2 7z" />
    <glyph glyph-name="mu" unicode="&#xb5;" horiz-adv-x="674" 
d="M467 -24c-41 0 -74 30 -74 74c0 14 2 31 6 52c-49 -54 -113 -121 -150 -121c-44 0 -62 73 -80 178c-86 -276 -131 -409 -146 -408l-24 1c-46 2 -99 7 -99 35c1 12 9 34 15 53c62 196 158 476 201 615c6 18 9 26 20 26c26 0 55 -14 82 -27s27 -28 27 -41
c-1 -6 -1 -7 -5 -23c5 -37 56 -289 76 -289c13 0 54 49 100 108l25 65c42 156 52 188 69 188c9 0 109 -30 109 -52c0 -4 -2 -10 -4 -16c-6 -20 -62 -213 -88 -317c-3 -13 -11 -35 9 -36c32 -2 164 68 189 68c6 0 9 -7 9 -15c-1 -14 -10 -36 -22 -45
c-23 -17 -149 -73 -245 -73zM497 223l-6 -12c-5 -4 -13 -7 -20 -8l3 -8l9 4l1 -10l11 -3c7 9 10 21 10 32zM473 195c-7 -1 -19 -4 -23 -8l3 -17l12 1c4 5 6 18 8 24zM499 303l-1 -9l17 -7c0 11 6 13 11 22c-17 9 -21 -6 -27 -6zM458 147v-8l13 -7l8 10c-2 2 -4 6 -6 9
c-2 2 -16 3 -19 3zM502 252l-16 -1l4 -11l-4 -9l7 -2l6 4c2 7 3 13 3 19zM490 180v-20c5 7 12 4 19 7c-6 5 -11 13 -19 13zM534 347l-5 -16l9 3l8 -5v6zM439 101v-15l19 -5l-1 7h-12zM454 132h-11c2 -5 3 -10 6 -15c2 5 5 8 5 15zM473 271c0 -5 0 -9 4 -12l3 5l-1 10z
M511 252l1 -12h9l-4 10zM473 227l-2 -9l8 -4l-1 15zM462 95l4 -4l5 12h-7zM512 218l-3 -6l9 -1l-1 8zM495 324l10 4l-12 6zM449 56l9 4l-11 4zM498 271l7 -4l-2 7zM126 219l-5 2l-9 -13l-12 2l-5 9c-9 0 -17 3 -25 3l-10 15c-7 -2 -1 -27 2 -33c4 4 10 6 15 6l20 -6v-11
l-8 -8l-9 2l-3 13c-15 -9 -5 -19 -11 -31l-7 -2l3 -21l-23 9l3 -12l17 -9v-13l9 -6l3 -31h7l4 7l7 -4h8c6 3 10 9 11 14l-11 3v10l7 5l13 -12l5 3l-15 11l-4 11l4 11l-18 20l8 -25l-6 -10l-11 35l9 16l14 -4l7 -8l-13 20l11 3c7 10 15 26 27 31l6 17l-6 6v23l-14 -4l-4 -9
l-2 3c0 -3 3 -19 8 -19zM81 78c-3 -5 -6 -10 -8 -17c-5 -14 5 -11 14 -16l4 -8l12 -2l5 10l-11 7v20zM46 82l10 -10l14 1c-4 10 -4 20 -6 31l-10 -5zM81 93v6c0 6 -3 10 -3 15s8 12 13 12l-2 -12l5 -5l1 -10zM119 308l-3 -24l19 1l-6 18zM89 36l-12 -3l-2 -10l-19 -6
c3 0 6 -2 10 -2s20 6 25 8zM31 -8l-6 -27c6 5 14 11 18 17l-2 15zM66 -18h-12l-1 -12c9 4 19 4 27 10l-8 5zM91 266l-6 -7l6 -16l6 5v17zM73 13l-2 -11l10 1l6 8l8 2l9 7zM145 300c0 -8 2 -14 7 -18l6 14c-2 2 -10 4 -13 4zM95 219c5 1 12 3 17 6c-4 5 -9 6 -15 10
c0 -6 -2 -10 -2 -16zM116 142c0 -6 0 -12 2 -18l8 3l-1 11zM8 -35l2 -12l9 -2l6 8zM4 -98c1 -7 6 -7 11 -9l6 4l-6 7zM146 248l7 -17l9 7zM163 284l-1 -10l9 2l2 9zM31 -109l6 -2l2 11h-11zM28 13l-3 -7l6 -2l3 9h-6zM113 185l8 -10l8 4zM49 119l1 -10l8 3zM29 -49l8 -4
c-2 4 -6 9 -9 13zM66 50v-9l7 7zM50 25v-5l6 -1v5zM140 328v-9l7 11zM56 -72v-4l6 2l-6 5v-3zM58 71l-2 -9l6 -2zM81 230l4 -4l1 6zM151 269v-4h5zM122 200l1 -5l2 7zM99 87c-2 -1 -2 -5 -2 -8z" />
    <glyph glyph-name="paragraph" unicode="&#xb6;" horiz-adv-x="627" 
d="M103 11c-16 0 -103 -5 -103 23l173 467c-42 17 -58 49 -49 99s71 65 160 83c86 17 203 23 285 23c47 0 78 -12 78 -50c0 -12 -5 -24 -8 -33l1 1c-11 -39 -192 -544 -203 -573c-3 -10 -17 -51 -57 -51c-15 0 -100 0 -100 26c0 20 23 73 32 96c34 88 94 258 139 379
c33 84 45 116 45 121c-40 1 -90 2 -142 -3c-7 -19 -203 -560 -210 -577v2c-9 -24 -20 -33 -41 -33zM445 227c8 0 16 -3 25 -3l8 -14c7 3 1 25 -1 31c-4 -5 -10 -6 -15 -7l-19 7l2 9l6 8l8 -2l3 -11l6 4c4 8 0 16 4 23l7 3l-4 19l24 -8l-4 12l-16 8v11l-9 6l-2 28h-7l-3 -6
l-7 4h-8c-5 -2 -9 -8 -10 -13l10 -2v-10l-6 -4l-13 11l-4 -4l14 -10l4 -10l-4 -9l17 -20l-8 23l6 10l10 -33l-8 -14l-13 4l-6 7l11 -19l-10 -3c-5 -10 -14 -24 -25 -29l-6 -15l6 -6v-21l14 3l2 10l4 -4c0 4 -4 18 -9 18l-3 18l6 -3l8 12l11 -2zM459 357c2 5 6 10 7 17
c4 10 -7 10 -13 14l-2 8l-13 2l-5 -10l12 -5l-2 -20zM491 354l-10 9l-11 -1c2 -9 3 -20 4 -28l10 3zM461 324c0 -4 -8 -11 -12 -11l2 11l-5 4l-1 10l14 4s-1 -2 -1 -4c0 -4 1 -10 3 -14zM423 143l3 23l-18 -1l7 -17zM451 397l11 2l3 10l16 6c-2 0 -6 1 -8 1
c-3 0 -20 -6 -24 -7zM504 438l7 25c-6 -5 -12 -10 -17 -17l1 -13zM473 447h11l1 11c-8 -3 -18 -3 -26 -10l8 -4zM451 183l4 7l-4 15l-8 -6v-15zM466 419l2 9l-9 -1l-6 -8h-8l-8 -7zM235 624l-10 3v-11l8 -11l6 9zM445 227c-4 -1 -11 -3 -15 -6c3 -6 7 -6 13 -8c2 4 2 9 2 14
zM400 151c0 8 -3 11 -7 18l-6 -14c2 -2 9 -4 13 -4zM426 298c0 7 0 10 -2 16l-8 -2l1 -11zM527 463l-3 11l-8 1l-6 -6zM213 585l-4 10l-6 -12l2 -10h6zM199 339c-2 6 -7 6 -11 10l-6 -5l6 -7zM399 199l-8 16l-8 -6zM258 588l-5 5l-6 -5l3 -8l7 -2zM382 166l1 10l-9 -2v-9z
M169 351l-5 2l-1 -11h10zM508 419l3 6l-7 1l-1 -7h5zM376 148l-6 5l4 -11l-3 -11l5 7v10zM429 258l-7 8l-7 -2zM488 320l-1 8l-7 -2zM507 476l-8 4c3 -4 5 -9 9 -12zM473 384v8l-7 -8h7zM403 125v9l-6 -10zM487 407v5h-6l1 -5h5zM480 365l1 6l-4 3zM154 392l5 10l-5 -2v-8z
M459 216l-4 4l-2 -7zM159 363v12l-3 -9zM395 180v4h-6zM420 243l-1 6l-2 -7zM442 349c1 1 3 5 3 7zM168 283v23c-1 -11 -10 -11 -10 -11c0 13 0 13 -15 13v-25h25zM168 236v-14c-10 0 -10 -10 -10 -10s25 0 25 10h9zM150 223h-13c-11 0 -12 -10 -20 -12c8 0 8 -1 8 -11
c12 11 12 11 25 11v12zM202 308v9h-10v-9c0 -13 10 -13 10 -13h15s0 13 -15 13zM143 188h13c12 0 12 10 12 10h-25h-4c0 -1 4 -3 4 -10zM168 263v-25s13 0 13 13zM104 195c0 -12 -12 -12 -12 -25c12 0 12 12 23 13c-11 2 -11 12 -11 12zM187 265l16 12l-16 13v-25zM143 324
h16v11h-16v-11zM134 251h9s0 11 13 22c-14 -10 -22 -11 -22 -22zM162 180c0 -7 0 -9 -5 -10h15v15c0 -5 -2 -5 -10 -5zM137 175v13l-13 -13h13z" />
    <glyph glyph-name="periodcentered" unicode="&#xb7;" horiz-adv-x="197" 
d="M170 393c10 -30 -25 -112 -39 -112s-106 21 -106 35c0 38 30 108 37 108s102 -13 108 -31zM92 390l-13 4v-15l9 -14l8 12zM125 340l-10 8l-5 -8l1 -11l12 -4zM81 325l-6 14c0 -8 -4 -10 -6 -16s-2 -9 -2 -15h8zM147 384l-9 10v-10h9z" />
    <glyph glyph-name="guillemotright" unicode="&#xbb;" horiz-adv-x="590" 
d="M401 183c-41 45 -154 181 -154 189c0 5 5 14 25 20c12 3 55 19 86 19c15 0 29 -6 41 -16c42 -37 171 -172 171 -194c0 -4 -19 -13 -38 -23c-59 -32 -248 -131 -266 -139c-5 -2 -9 -4 -13 -4c-17 0 -30 26 -31 39c15 20 157 86 179 109zM161 185c-23 27 -88 112 -133 165
c-7 8 -16 17 -16 21c0 10 68 37 118 37c43 0 180 -192 180 -206c-2 -5 -220 -139 -277 -159c-5 -3 -9 -4 -14 -4c-15 0 -27 26 -29 39c21 24 136 76 171 107zM438 325c-6 2 -7 7 -7 10v3h-2c-6 0 -9 -8 -9 -8l9 -1c2 -3 2 -4 2 -7c-2 3 -8 4 -13 4c-1 -7 -7 -9 -18 -9l2 8
l-6 1v4l4 2h-2v2c2 -1 4 -1 5 -1c4 0 10 11 10 11c0 3 -2 5 -4 10l4 7l-13 -5l-8 2l-3 -8h3c4 0 10 0 17 4l-2 -7c0 -2 -2 -4 -2 -4c-1 0 -3 2 -5 2l-2 -4c-1 -1 -3 -2 -3 -3s1 -2 3 -4l-7 -4l-2 -1c-1 0 -1 0 -2 1v1v1c-1 0 -3 -2 -7 -2h-2l2 -4c-2 -1 -2 -4 -2 -4
c-2 0 -4 3 -6 3v4c4 5 6 6 6 8c0 1 -1 1 -2 2v1c0 1 -2 5 -8 7v-4l-1 -4s-5 2 -5 6v2c-3 -4 -16 -4 -16 -13c0 -3 1 -9 8 -9l-13 -6l24 -7l7 -14s2 -1 3 -3l-3 -3c4 2 9 2 11 2l31 -9l8 19l-13 4c11 4 20 9 31 13h-4c0 1 2 4 2 4zM394 264c1 0 3 -1 5 -1c4 0 9 1 14 5l-9 4
l-10 1c-5 1 -8 2 -8 4s1 4 3 8c0 0 -6 -4 -6 -7c0 -2 0 -2 2 -3v-2c0 -2 0 -5 4 -7c0 -1 -1 -2 -1 -2c0 -3 4 -7 6 -7c1 1 1 1 1 2c0 2 -1 4 -1 5zM182 310l1 -3l-1 -8l2 1s1 0 1 2l2 -3l1 12c6 3 10 6 12 9c3 1 3 3 3 3c0 1 -4 1 -10 0h-3l-2 9h-3c-2 -3 -1 -6 0 -7l-6 1
l2 -6c-2 -1 -5 -2 -8 -5c2 -2 3 -1 6 -1l-4 -9zM135 327l11 5s1 5 0 7c-1 1 -1 1 -3 1l5 3l-2 5l-4 -9l-17 -5s1 -2 2 -5c2 -2 5 -3 8 -2zM196 285l4 -9l10 4s1 1 3 5l-1 -3l1 1c1 0 3 0 6 2l-2 8zM146 302l-20 -9c7 12 11 16 10 18c-1 1 -6 -1 -16 -4l-13 -5l5 -15l14 6
l26 -10zM318 308l-9 -5c16 -5 23 -8 23 -8c1 1 1 2 1 3c0 3 -9 1 -15 10zM180 258c8 4 8 4 18 1c-2 6 -2 6 2 17c-1 -2 -2 -5 -4 -6c-3 -2 -8 -2 -11 -5c-3 -2 -3 -4 -5 -7zM181 277c-11 6 -11 6 -19 1c0 -1 0 -1 1 -2c3 -5 10 -1 10 -1zM82 343c7 3 14 5 17 2
c-4 5 -12 9 -12 9zM116 357l-11 -5l3 -7c3 1 4 2 6 3c5 4 2 9 2 9zM136 271c-9 -3 -14 -6 -16 -8c-3 -2 -3 -5 0 -12l19 10zM150 375c-6 2 -8 1 -10 -1c-2 -1 -1 -3 -1 -3c-2 -1 -3 -2 -5 -3c-1 -1 0 -3 3 -9c1 7 2 10 4 12c2 1 4 2 9 4zM176 297l-3 7c0 1 0 2 -1 3
s-2 1 -2 0c-2 -1 -3 -4 -7 -8c0 0 7 4 13 -2zM154 331l-7 -4l3 -6l7 3zM168 355l12 -5l-5 8zM156 251l6 2l-3 9c1 -2 1 -7 -2 -9c0 -1 0 -1 -1 -2z" />
    <glyph glyph-name="afii10023" unicode="&#x401;" 
d="M490 332c-29 -5 -191 -37 -261 -51l-26 -5l-52 -185c20 2 132 25 195 42c12 3 22 5 24 5c25 0 78 -40 85 -56c-7 -1 -236 -65 -318 -75l-24 -3c-4 -1 -8 -1 -13 -1c-71 0 -120 23 -120 35c1 14 170 550 183 594c2 4 3 9 4 12c0 15 20 19 34 21c81 11 245 29 287 35
c12 2 20 3 23 3c14 0 64 -57 64 -60c0 -13 -59 -10 -270 -30l-8 -23c-22 -62 -47 -157 -76 -251c83 14 192 48 211 48c8 0 58 -41 58 -55zM200 389c-1 1 -3 1 -5 1c-6 0 -14 -4 -18 -4c-1 0 -2 0 -2 2c0 1 1 2 2 3c-5 1 -8 2 -8 2c-2 -5 -3 -9 -8 -11l-2 -5
c-4 -2 -7 -3 -11 -3s-8 1 -8 1l-9 -26c-5 7 -16 22 -20 23v-3c0 -9 10 -21 18 -27v-4l3 4c30 22 61 21 61 32c0 2 -1 4 -4 8c3 0 5 -3 6 -3c2 0 5 1 6 3zM133 240l5 -2l8 -2l4 14h3c5 0 7 6 7 6c-1 2 -2 4 -2 5c0 3 4 4 6 9h3c1 0 4 0 5 3c-3 1 -4 4 -5 4c0 0 -1 0 -1 -1
c-6 1 -6 2 -6 4v4c-1 -4 -4 -5 -6 -5c-1 0 -2 1 -2 1c-3 -6 -17 -1 -19 -8l-2 -8h-2c-4 0 -6 -3 -10 -3h-4l-2 -6l13 -5s1 5 8 5h3l11 -4c-6 0 -14 -3 -15 -11zM161 392l6 26l-14 -4l9 34c-2 -11 -10 -12 -15 -12h-6s-1 -3 -1 -6v-2c-6 -6 -4 -7 -9 -7l6 -1l-11 -5l8 -2
c3 1 5 3 6 3s1 -1 1 -1l-2 -2l15 -4v1c-6 -7 -7 -15 -7 -15c1 -3 3 -4 5 -4s3 1 6 1h3zM189 333l2 16h-2c3 2 5 6 6 8c-1 0 -2 1 -4 1c-1 0 -2 -1 -3 -1c0 4 -4 4 -5 4c-2 0 -3 -1 -5 -6l-1 -4c0 2 -2 4 -4 4s-6 -18 -6 -17l7 -2c8 -4 8 -4 12 -10l-7 1l-4 -13c2 6 9 9 14 9
h4l-4 8v2zM278 309l18 6l-39 13l-9 -28c11 8 15 12 19 12c3 0 6 -2 11 -3zM89 245c-1 -1 -1 -1 -1 -2c0 -5 3 -6 3 -11v-2l15 -5c-4 6 -4 8 -4 11v5l8 -2c-4 5 -9 10 -11 10c11 -2 20 -6 20 -5v2c0 5 -5 6 -5 6c-3 -2 -7 -2 -9 -2c-3 0 -5 1 -5 4v3s-3 4 -4 4
c-2 0 -3 0 -3 -2l-6 2c3 -1 3 -4 3 -5v-4l7 -2c-1 -2 -1 -3 -2 -3c-2 0 -3 1 -5 1c0 0 -1 0 -1 -3zM193 428l-3 -7v1c0 7 -6 8 -6 8l-2 -8l8 -3l-1 -6c3 -1 6 -2 8 -2c4 0 4 1 6 3c0 -5 5 -7 6 -7l9 3l11 7l1 6s-2 1 -3 1c-4 0 -6 -5 -6 -5h-3c-6 0 -14 -4 -14 -4
c-7 3 -4 10 -11 13zM204 299l5 -8c3 -2 5 -3 6 -3c3 0 4 2 10 4c-1 0 -5 2 -5 7c0 1 0 2 1 3l-7 2c-5 2 -9 3 -13 3s-7 0 -12 -3zM183 428v6c0 13 -12 16 -12 16c-2 -7 -4 -10 -4 -13c0 -5 4 -6 16 -9zM308 647c0 0 -2 -8 -4 -14c9 4 20 10 26 14c0 1 -2 1 -4 1
c-3 0 -8 -2 -14 -2c0 0 -2 1 -4 1zM112 230l7 -3s5 -1 5 -7l1 6l8 -3s2 5 7 5h2l-6 3l-15 4zM105 279c3 -8 7 -16 14 -16l4 2l-7 2l3 6c-3 6 -5 8 -7 8c-1 0 -4 0 -7 -2zM157 233l-2 -6l5 -2h-2c-4 0 -5 -4 -10 -4h-2l-3 -6l8 -3l2 7s4 -2 4 -7l3 13c1 1 1 2 1 3
c0 4 -4 5 -4 5zM162 471l10 -3c6 -2 8 -2 8 -5c0 -2 -1 -4 -2 -8l13 6c-8 2 -10 5 -10 7c0 3 5 5 11 9c-10 -3 -20 0 -30 -6zM197 337h4c5 0 7 3 7 3l-7 12l-8 -6l5 -3c3 0 4 -1 4 -3c0 0 -1 -2 -5 -3zM197 360l7 3c-1 -2 -1 -3 -1 -3h5h3l-5 8c0 1 1 1 1 2l-1 -1v2l-10 -5
l-1 -7zM245 314l-10 3c-6 -5 -11 -11 -16 -12c7 0 15 4 26 9zM204 381l4 14l-9 -4s-1 -1 -1 -3c0 -4 2 -6 6 -7zM206 442l1 8s-4 1 -4 6c0 0 0 2 1 3l-10 -5c7 -2 7 -2 12 -12zM166 252l-2 -8s5 4 11 4c2 0 3 0 6 -1c-3 4 -4 5 -6 5s-4 -1 -5 -1s-3 0 -4 1zM283 634l-6 -2
s3 -1 3 -7v-2l4 9h1l3 6l-6 2c1 -2 1 -3 1 -4v-2zM258 633l-9 2c2 -4 5 -4 6 -4h7zM365 864v-3c0 -12 -18 -66 -26 -89c-4 -7 -7 -7 -15 -7c-17 2 -90 18 -90 31c0 23 24 97 33 97c1 0 3 0 6 -1c18 -2 88 -15 92 -28zM543 856c1 -1 1 -3 1 -6c0 -20 -23 -96 -39 -96
c-7 0 -93 18 -93 32c0 24 26 97 35 97c-4 0 82 -13 96 -27zM314 861v8h-8v-8c0 -10 8 -10 8 -10h13s0 10 -13 10zM300 839v21c1 -11 -9 -11 -8 -11c0 11 0 11 -12 11v-21h12h8zM302 826l12 10l-12 10v-20zM286 803c0 0 10 0 10 11l-10 10v-21zM257 814h8s0 10 13 20
c-13 -10 -21 -10 -21 -20zM504 791c13 0 13 10 13 10h-13s-8 0 -8 -10v-8h8v8zM490 792v21h-8h-12v-21c12 0 12 0 12 11c-1 0 9 0 8 -11zM504 816l-12 10v-20zM476 849v-21l10 10c0 11 -10 11 -10 11zM455 838h-8c0 -10 8 -10 21 -20c-13 10 -13 20 -13 20z" />
    </font>
</defs>
</svg>
